NimbusRomNo9L-Regu.ufo
<glyph name="exclam" format="1">
  <advance width="333"/>
  <unicode hex="0021"/>
  <outline>
    <contour>
      <point x="189" y="176" type="line"/>
      <point x="234" y="559" type="line" smooth="yes"/>
      <point x="235" y="571"/>
      <point x="236" y="582"/>
      <point x="236" y="596" type="curve" smooth="yes"/>
      <point x="236" y="648"/>
      <point x="217" y="676"/>
      <point x="183" y="676" type="curve" smooth="yes"/>
      <point x="150" y="676"/>
      <point x="130" y="646"/>
      <point x="130" y="599" type="curve" smooth="yes"/>
      <point x="130" y="576"/>
      <point x="139" y="494"/>
      <point x="150" y="422" type="curve" smooth="yes"/>
      <point x="159" y="362"/>
      <point x="165" y="309"/>
      <point x="167" y="284" type="curve" smooth="yes"/>
      <point x="176" y="176" type="line"/>
    </contour>
    <contour>
      <point x="183" y="98" type="curve" smooth="yes"/>
      <point x="153" y="98"/>
      <point x="130" y="74"/>
      <point x="130" y="43" type="curve" smooth="yes"/>
      <point x="130" y="13"/>
      <point x="152" y="-9"/>
      <point x="182" y="-9" type="curve" smooth="yes"/>
      <point x="214" y="-9"/>
      <point x="237" y="13"/>
      <point x="237" y="43" type="curve" smooth="yes"/>
      <point x="237" y="73"/>
      <point x="213" y="98"/>
    </contour>
  </outline>
</glyph>
<glyph name="quotesingle" format="1">
  <advance width="180"/>
  <unicode hex="0027"/>
  <outline>
    <contour>
      <point x="101" y="431" type="line"/>
      <point x="108" y="471" type="line" smooth="yes"/>
      <point x="124" y="547"/>
      <point x="133" y="607"/>
      <point x="133" y="636" type="curve" smooth="yes"/>
      <point x="133" y="658"/>
      <point x="114" y="676"/>
      <point x="91" y="676" type="curve" smooth="yes"/>
      <point x="67" y="676"/>
      <point x="48" y="658"/>
      <point x="48" y="635" type="curve" smooth="yes"/>
      <point x="48" y="619"/>
      <point x="63" y="521"/>
      <point x="80" y="431" type="curve"/>
    </contour>
  </outline>
</glyph>
<glyph name="asterisk" format="1">
  <advance width="500"/>
  <unicode hex="002A"/>
  <outline>
    <contour>
      <point x="241" y="449" type="line"/>
      <point x="242" y="432" type="line" smooth="yes"/>
      <point x="244" y="411"/>
      <point x="238" y="382"/>
      <point x="225" y="348" type="curve" smooth="yes"/>
      <point x="218" y="330"/>
      <point x="214" y="313"/>
      <point x="214" y="302" type="curve" smooth="yes"/>
      <point x="214" y="282"/>
      <point x="230" y="265"/>
      <point x="249" y="265" type="curve" smooth="yes"/>
      <point x="270" y="265"/>
      <point x="288" y="284"/>
      <point x="288" y="305" type="curve" smooth="yes"/>
      <point x="288" y="311"/>
      <point x="285" y="324"/>
      <point x="280" y="337" type="curve" smooth="yes"/>
      <point x="267" y="372"/>
      <point x="260" y="410"/>
      <point x="260" y="449" type="curve" smooth="yes"/>
      <point x="260" y="456" type="line"/>
      <point x="267" y="453" type="line" smooth="yes"/>
      <point x="289" y="444"/>
      <point x="310" y="426"/>
      <point x="337" y="393" type="curve" smooth="yes"/>
      <point x="362" y="362"/>
      <point x="379" y="350"/>
      <point x="397" y="350" type="curve" smooth="yes"/>
      <point x="418" y="350"/>
      <point x="432" y="365"/>
      <point x="432" y="387" type="curve" smooth="yes"/>
      <point x="432" y="413"/>
      <point x="417" y="424"/>
      <point x="373" y="431" type="curve" smooth="yes"/>
      <point x="334" y="437"/>
      <point x="302" y="449"/>
      <point x="276" y="465" type="curve" smooth="yes"/>
      <point x="268" y="470" type="line"/>
      <point x="317" y="498"/>
      <point x="336" y="505"/>
      <point x="380" y="512" type="curve" smooth="yes"/>
      <point x="418" y="518"/>
      <point x="431" y="529"/>
      <point x="431" y="554" type="curve" smooth="yes"/>
      <point x="431" y="577"/>
      <point x="416" y="593"/>
      <point x="395" y="593" type="curve" smooth="yes"/>
      <point x="380" y="593"/>
      <point x="363" y="580"/>
      <point x="339" y="552" type="curve" smooth="yes"/>
      <point x="314" y="522"/>
      <point x="289" y="500"/>
      <point x="267" y="488" type="curve" smooth="yes"/>
      <point x="260" y="484" type="line"/>
      <point x="260" y="510" type="line" smooth="yes"/>
      <point x="260" y="534"/>
      <point x="266" y="562"/>
      <point x="277" y="593" type="curve" smooth="yes"/>
      <point x="283" y="612"/>
      <point x="287" y="628"/>
      <point x="287" y="639" type="curve" smooth="yes"/>
      <point x="287" y="660"/>
      <point x="271" y="676"/>
      <point x="251" y="676" type="curve" smooth="yes"/>
      <point x="231" y="676"/>
      <point x="216" y="661"/>
      <point x="216" y="641" type="curve" smooth="yes"/>
      <point x="216" y="629"/>
      <point x="220" y="611"/>
      <point x="226" y="590" type="curve" smooth="yes"/>
      <point x="236" y="557"/>
      <point x="241" y="526"/>
      <point x="241" y="499" type="curve" smooth="yes"/>
      <point x="241" y="486" type="line"/>
      <point x="203" y="507"/>
      <point x="184" y="523"/>
      <point x="151" y="559" type="curve" smooth="yes"/>
      <point x="131" y="583"/>
      <point x="119" y="591"/>
      <point x="103" y="591" type="curve" smooth="yes"/>
      <point x="84" y="591"/>
      <point x="69" y="575"/>
      <point x="69" y="555" type="curve" smooth="yes"/>
      <point x="69" y="531"/>
      <point x="89" y="517"/>
      <point x="137" y="508" type="curve" smooth="yes"/>
      <point x="174" y="501"/>
      <point x="204" y="491"/>
      <point x="223" y="478" type="curve" smooth="yes"/>
      <point x="234" y="471" type="line"/>
      <point x="193" y="446"/>
      <point x="177" y="440"/>
      <point x="131" y="431" type="curve" smooth="yes"/>
      <point x="86" y="423"/>
      <point x="69" y="411"/>
      <point x="69" y="386" type="curve" smooth="yes"/>
      <point x="69" y="364"/>
      <point x="83" y="351"/>
      <point x="105" y="351" type="curve" smooth="yes"/>
      <point x="121" y="351"/>
      <point x="130" y="356"/>
      <point x="147" y="375" type="curve" smooth="yes"/>
      <point x="176" y="408"/>
      <point x="181" y="413"/>
      <point x="189" y="420" type="curve" smooth="yes"/>
      <point x="199" y="429"/>
      <point x="206" y="434"/>
      <point x="241" y="456" type="curve"/>
    </contour>
  </outline>
</glyph>
<glyph name="plus" format="1">
  <advance width="564"/>
  <unicode hex="002B"/>
  <outline>
    <contour>
      <point x="249" y="286" type="line"/>
      <point x="30" y="286" type="line"/>
      <point x="30" y="220" type="line"/>
      <point x="249" y="220" type="line"/>
      <point x="249" y="0" type="line"/>
      <point x="315" y="0" type="line"/>
      <point x="315" y="220" type="line"/>
      <point x="534" y="220" type="line"/>
      <point x="534" y="286" type="line"/>
      <point x="315" y="286" type="line"/>
      <point x="315" y="506" type="line"/>
      <point x="249" y="506" type="line"/>
    </contour>
  </outline>
</glyph>
<glyph name="comma" format="1">
  <advance width="250"/>
  <unicode hex="002C"/>
  <outline>
    <contour>
      <point x="83" y="-141" type="line"/>
      <point x="150" y="-108"/>
      <point x="195" y="-47"/>
      <point x="195" y="13" type="curve" smooth="yes"/>
      <point x="195" y="63"/>
      <point x="160" y="102"/>
      <point x="115" y="102" type="curve" smooth="yes"/>
      <point x="80" y="102"/>
      <point x="56" y="79"/>
      <point x="56" y="45" type="curve" smooth="yes"/>
      <point x="56" y="13"/>
      <point x="79" y="-6"/>
      <point x="115" y="-6" type="curve" smooth="yes"/>
      <point x="121" y="-6"/>
      <point x="128" y="-5"/>
      <point x="134" y="-4" type="curve"/>
      <point x="141" y="-2"/>
      <point x="141" y="-2"/>
      <point x="142" y="-2" type="curve" smooth="yes"/>
      <point x="150" y="-2"/>
      <point x="156" y="-8"/>
      <point x="156" y="-16" type="curve" smooth="yes"/>
      <point x="156" y="-48"/>
      <point x="128" y="-85"/>
      <point x="74" y="-122" type="curve"/>
    </contour>
  </outline>
</glyph>
<glyph name="hyphen" format="1">
  <advance width="333"/>
  <unicode hex="002D"/>
  <outline>
    <contour>
      <point x="39" y="257" type="line"/>
      <point x="39" y="194" type="line"/>
      <point x="285" y="194" type="line"/>
      <point x="285" y="257" type="line"/>
    </contour>
  </outline>
</glyph>
<glyph name="period" format="1">
  <advance width="250"/>
  <unicode hex="002E"/>
  <outline>
    <contour>
      <point x="125" y="100" type="curve" smooth="yes"/>
      <point x="95" y="100"/>
      <point x="70" y="74"/>
      <point x="70" y="43" type="curve" smooth="yes"/>
      <point x="70" y="14"/>
      <point x="95" y="-11"/>
      <point x="124" y="-11" type="curve" smooth="yes"/>
      <point x="155" y="-11"/>
      <point x="181" y="14"/>
      <point x="181" y="43" type="curve" smooth="yes"/>
      <point x="181" y="74"/>
      <point x="155" y="100"/>
    </contour>
  </outline>
</glyph>
<glyph name="slash" format="1">
  <advance width="278"/>
  <unicode hex="002F"/>
  <outline>
    <contour>
      <point x="287" y="676" type="line"/>
      <point x="220" y="676" type="line"/>
      <point x="-9" y="-14" type="line"/>
      <point x="59" y="-14" type="line"/>
    </contour>
  </outline>
</glyph>
<glyph name="zero" format="1">
  <advance width="500"/>
  <unicode hex="0030"/>
  <outline>
    <contour>
      <point x="254" y="676" type="curve" smooth="yes"/>
      <point x="199" y="676"/>
      <point x="157" y="659"/>
      <point x="120" y="624" type="curve" smooth="yes"/>
      <point x="62" y="568"/>
      <point x="24" y="453"/>
      <point x="24" y="336" type="curve" smooth="yes"/>
      <point x="24" y="227"/>
      <point x="57" y="110"/>
      <point x="104" y="54" type="curve" smooth="yes"/>
      <point x="141" y="10"/>
      <point x="192" y="-14"/>
      <point x="250" y="-14" type="curve" smooth="yes"/>
      <point x="301" y="-14"/>
      <point x="344" y="3"/>
      <point x="380" y="38" type="curve" smooth="yes"/>
      <point x="438" y="93"/>
      <point x="476" y="209"/>
      <point x="476" y="330" type="curve" smooth="yes"/>
      <point x="476" y="535"/>
      <point x="385" y="676"/>
    </contour>
    <contour>
      <point x="251" y="650" type="curve" smooth="yes"/>
      <point x="335" y="650"/>
      <point x="380" y="537"/>
      <point x="380" y="328" type="curve" smooth="yes"/>
      <point x="380" y="119"/>
      <point x="336" y="12"/>
      <point x="250" y="12" type="curve" smooth="yes"/>
      <point x="164" y="12"/>
      <point x="120" y="119"/>
      <point x="120" y="327" type="curve" smooth="yes"/>
      <point x="120" y="539"/>
      <point x="165" y="650"/>
    </contour>
  </outline>
</glyph>
<glyph name="one" format="1">
  <advance width="500"/>
  <unicode hex="0031"/>
  <outline>
    <contour>
      <point x="291" y="676" type="line"/>
      <point x="111" y="585" type="line"/>
      <point x="111" y="571" type="line"/>
      <point x="123" y="576"/>
      <point x="134" y="580"/>
      <point x="138" y="582" type="curve"/>
      <point x="156" y="589"/>
      <point x="173" y="593"/>
      <point x="183" y="593" type="curve" smooth="yes"/>
      <point x="204" y="593"/>
      <point x="213" y="578"/>
      <point x="213" y="546" type="curve" smooth="yes"/>
      <point x="213" y="93" type="line" smooth="yes"/>
      <point x="213" y="60"/>
      <point x="205" y="37"/>
      <point x="189" y="28" type="curve" smooth="yes"/>
      <point x="174" y="19"/>
      <point x="160" y="16"/>
      <point x="118" y="15" type="curve"/>
      <point x="118" y="0" type="line"/>
      <point x="394" y="0" type="line"/>
      <point x="394" y="15" type="line"/>
      <point x="315" y="16"/>
      <point x="299" y="26"/>
      <point x="299" y="74" type="curve" smooth="yes"/>
      <point x="299" y="674" type="line"/>
    </contour>
  </outline>
</glyph>
<glyph name="two" format="1">
  <advance width="500"/>
  <unicode hex="0032"/>
  <outline>
    <contour>
      <point x="475" y="137" type="line"/>
      <point x="462" y="142" type="line"/>
      <point x="425" y="85"/>
      <point x="412" y="76"/>
      <point x="367" y="76" type="curve" smooth="yes"/>
      <point x="128" y="76" type="line"/>
      <point x="296" y="252" type="line" smooth="yes"/>
      <point x="385" y="345"/>
      <point x="424" y="421"/>
      <point x="424" y="499" type="curve" smooth="yes"/>
      <point x="424" y="599"/>
      <point x="343" y="676"/>
      <point x="239" y="676" type="curve" smooth="yes"/>
      <point x="184" y="676"/>
      <point x="132" y="654"/>
      <point x="95" y="614" type="curve" smooth="yes"/>
      <point x="63" y="580"/>
      <point x="48" y="548"/>
      <point x="31" y="477" type="curve"/>
      <point x="52" y="472" type="line"/>
      <point x="92" y="570"/>
      <point x="128" y="602"/>
      <point x="197" y="602" type="curve" smooth="yes"/>
      <point x="281" y="602"/>
      <point x="338" y="545"/>
      <point x="338" y="461" type="curve" smooth="yes"/>
      <point x="338" y="383"/>
      <point x="292" y="290"/>
      <point x="208" y="201" type="curve" smooth="yes"/>
      <point x="30" y="12" type="line"/>
      <point x="30" y="0" type="line"/>
      <point x="420" y="0" type="line"/>
    </contour>
  </outline>
</glyph>
<glyph name="three" format="1">
  <advance width="500"/>
  <unicode hex="0033"/>
  <outline>
    <contour>
      <point x="153" y="330" type="line"/>
      <point x="212" y="330"/>
      <point x="235" y="328"/>
      <point x="259" y="319" type="curve" smooth="yes"/>
      <point x="321" y="297"/>
      <point x="360" y="240"/>
      <point x="360" y="171" type="curve" smooth="yes"/>
      <point x="360" y="87"/>
      <point x="303" y="22"/>
      <point x="229" y="22" type="curve" smooth="yes"/>
      <point x="202" y="22"/>
      <point x="182" y="29"/>
      <point x="145" y="53" type="curve" smooth="yes"/>
      <point x="115" y="71"/>
      <point x="98" y="78"/>
      <point x="81" y="78" type="curve" smooth="yes"/>
      <point x="58" y="78"/>
      <point x="43" y="64"/>
      <point x="43" y="43" type="curve" smooth="yes"/>
      <point x="43" y="8"/>
      <point x="86" y="-14"/>
      <point x="156" y="-14" type="curve" smooth="yes"/>
      <point x="233" y="-14"/>
      <point x="312" y="12"/>
      <point x="359" y="53" type="curve" smooth="yes"/>
      <point x="406" y="94"/>
      <point x="432" y="152"/>
      <point x="432" y="219" type="curve" smooth="yes"/>
      <point x="432" y="270"/>
      <point x="416" y="317"/>
      <point x="387" y="348" type="curve" smooth="yes"/>
      <point x="367" y="370"/>
      <point x="348" y="382"/>
      <point x="304" y="401" type="curve"/>
      <point x="373" y="448"/>
      <point x="398" y="485"/>
      <point x="398" y="539" type="curve" smooth="yes"/>
      <point x="398" y="620"/>
      <point x="334" y="676"/>
      <point x="242" y="676" type="curve" smooth="yes"/>
      <point x="192" y="676"/>
      <point x="148" y="659"/>
      <point x="112" y="627" type="curve" smooth="yes"/>
      <point x="82" y="600"/>
      <point x="67" y="574"/>
      <point x="45" y="514" type="curve"/>
      <point x="60" y="510" type="line"/>
      <point x="101" y="583"/>
      <point x="146" y="616"/>
      <point x="209" y="616" type="curve" smooth="yes"/>
      <point x="274" y="616"/>
      <point x="319" y="572"/>
      <point x="319" y="509" type="curve" smooth="yes"/>
      <point x="319" y="473"/>
      <point x="304" y="437"/>
      <point x="279" y="412" type="curve" smooth="yes"/>
      <point x="249" y="382"/>
      <point x="221" y="367"/>
      <point x="153" y="343" type="curve"/>
    </contour>
  </outline>
</glyph>
<glyph name="four" format="1">
  <advance width="500"/>
  <unicode hex="0034"/>
  <outline>
    <contour>
      <point x="472" y="231" type="line"/>
      <point x="370" y="231" type="line"/>
      <point x="370" y="676" type="line"/>
      <point x="326" y="676" type="line"/>
      <point x="12" y="231" type="line"/>
      <point x="12" y="167" type="line"/>
      <point x="293" y="167" type="line"/>
      <point x="293" y="0" type="line"/>
      <point x="370" y="0" type="line"/>
      <point x="370" y="167" type="line"/>
      <point x="472" y="167" type="line"/>
    </contour>
    <contour>
      <point x="292" y="231" type="line"/>
      <point x="52" y="231" type="line"/>
      <point x="292" y="574" type="line"/>
    </contour>
  </outline>
</glyph>
<glyph name="five" format="1">
  <advance width="500"/>
  <unicode hex="0035"/>
  <outline>
    <contour>
      <point x="181" y="583" type="line"/>
      <point x="377" y="583" type="line" smooth="yes"/>
      <point x="393" y="583"/>
      <point x="397" y="585"/>
      <point x="400" y="592" type="curve" smooth="yes"/>
      <point x="438" y="681" type="line"/>
      <point x="429" y="688" type="line"/>
      <point x="414" y="667"/>
      <point x="404" y="662"/>
      <point x="383" y="662" type="curve" smooth="yes"/>
      <point x="174" y="662" type="line"/>
      <point x="65" y="425" type="line" smooth="yes"/>
      <point x="64" y="423"/>
      <point x="64" y="422"/>
      <point x="64" y="420" type="curve" smooth="yes"/>
      <point x="64" y="415"/>
      <point x="68" y="412"/>
      <point x="76" y="412" type="curve" smooth="yes"/>
      <point x="108" y="412"/>
      <point x="148" y="405"/>
      <point x="189" y="392" type="curve" smooth="yes"/>
      <point x="304" y="355"/>
      <point x="357" y="293"/>
      <point x="357" y="194" type="curve" smooth="yes"/>
      <point x="357" y="98"/>
      <point x="296" y="23"/>
      <point x="218" y="23" type="curve" smooth="yes"/>
      <point x="198" y="23"/>
      <point x="181" y="30"/>
      <point x="151" y="52" type="curve" smooth="yes"/>
      <point x="119" y="75"/>
      <point x="96" y="85"/>
      <point x="75" y="85" type="curve" smooth="yes"/>
      <point x="46" y="85"/>
      <point x="32" y="73"/>
      <point x="32" y="48" type="curve" smooth="yes"/>
      <point x="32" y="10"/>
      <point x="79" y="-14"/>
      <point x="154" y="-14" type="curve" smooth="yes"/>
      <point x="238" y="-14"/>
      <point x="310" y="13"/>
      <point x="360" y="64" type="curve" smooth="yes"/>
      <point x="406" y="109"/>
      <point x="427" y="166"/>
      <point x="427" y="242" type="curve" smooth="yes"/>
      <point x="427" y="314"/>
      <point x="408" y="360"/>
      <point x="358" y="410" type="curve" smooth="yes"/>
      <point x="314" y="454"/>
      <point x="257" y="477"/>
      <point x="139" y="498" type="curve"/>
    </contour>
  </outline>
</glyph>
<glyph name="six" format="1">
  <advance width="500"/>
  <unicode hex="0036"/>
  <outline>
    <contour>
      <point x="446" y="684" type="line"/>
      <point x="332" y="674"/>
      <point x="274" y="655"/>
      <point x="201" y="604" type="curve" smooth="yes"/>
      <point x="93" y="527"/>
      <point x="34" y="413"/>
      <point x="34" y="279" type="curve" smooth="yes"/>
      <point x="34" y="192"/>
      <point x="61" y="104"/>
      <point x="104" y="54" type="curve" smooth="yes"/>
      <point x="142" y="10"/>
      <point x="196" y="-14"/>
      <point x="258" y="-14" type="curve" smooth="yes"/>
      <point x="382" y="-14"/>
      <point x="468" y="81"/>
      <point x="468" y="219" type="curve" smooth="yes"/>
      <point x="468" y="347"/>
      <point x="395" y="428"/>
      <point x="280" y="428" type="curve" smooth="yes"/>
      <point x="236" y="428"/>
      <point x="215" y="421"/>
      <point x="152" y="383" type="curve"/>
      <point x="179" y="534"/>
      <point x="291" y="642"/>
      <point x="448" y="668" type="curve"/>
    </contour>
    <contour>
      <point x="242" y="382" type="curve" smooth="yes"/>
      <point x="328" y="382"/>
      <point x="378" y="310"/>
      <point x="378" y="185" type="curve" smooth="yes"/>
      <point x="378" y="75"/>
      <point x="339" y="14"/>
      <point x="269" y="14" type="curve" smooth="yes"/>
      <point x="181" y="14"/>
      <point x="127" y="108"/>
      <point x="127" y="263" type="curve" smooth="yes"/>
      <point x="127" y="314"/>
      <point x="135" y="342"/>
      <point x="155" y="357" type="curve" smooth="yes"/>
      <point x="176" y="373"/>
      <point x="207" y="382"/>
    </contour>
  </outline>
</glyph>
<glyph name="seven" format="1">
  <advance width="500"/>
  <unicode hex="0037"/>
  <outline>
    <contour>
      <point x="449" y="662" type="line"/>
      <point x="79" y="662" type="line"/>
      <point x="20" y="515" type="line"/>
      <point x="37" y="507" type="line"/>
      <point x="80" y="575"/>
      <point x="98" y="588"/>
      <point x="153" y="588" type="curve" smooth="yes"/>
      <point x="370" y="588" type="line"/>
      <point x="172" y="-8" type="line"/>
      <point x="237" y="-8" type="line"/>
      <point x="449" y="646" type="line"/>
    </contour>
  </outline>
</glyph>
<glyph name="nine" format="1">
  <advance width="500"/>
  <unicode hex="0039"/>
  <outline>
    <contour>
      <point x="59" y="-22" type="line"/>
      <point x="171" y="-9"/>
      <point x="226" y="10"/>
      <point x="294" y="59" type="curve" smooth="yes"/>
      <point x="398" y="135"/>
      <point x="459" y="259"/>
      <point x="459" y="394" type="curve" smooth="yes"/>
      <point x="459" y="559"/>
      <point x="367" y="676"/>
      <point x="238" y="676" type="curve" smooth="yes"/>
      <point x="119" y="676"/>
      <point x="30" y="575"/>
      <point x="30" y="440" type="curve" smooth="yes"/>
      <point x="30" y="318"/>
      <point x="102" y="237"/>
      <point x="210" y="237" type="curve" smooth="yes"/>
      <point x="265" y="237"/>
      <point x="307" y="253"/>
      <point x="360" y="294" type="curve"/>
      <point x="319" y="131"/>
      <point x="208" y="24"/>
      <point x="56" y="-2" type="curve"/>
    </contour>
    <contour>
      <point x="362" y="355" type="line" smooth="yes"/>
      <point x="362" y="335"/>
      <point x="358" y="326"/>
      <point x="347" y="317" type="curve" smooth="yes"/>
      <point x="319" y="293"/>
      <point x="282" y="280"/>
      <point x="246" y="280" type="curve" smooth="yes"/>
      <point x="170" y="280"/>
      <point x="122" y="355"/>
      <point x="122" y="474" type="curve" smooth="yes"/>
      <point x="122" y="531"/>
      <point x="138" y="591"/>
      <point x="159" y="617" type="curve" smooth="yes"/>
      <point x="176" y="637"/>
      <point x="201" y="648"/>
      <point x="230" y="648" type="curve" smooth="yes"/>
      <point x="317" y="648"/>
      <point x="362" y="562"/>
      <point x="362" y="394" type="curve" smooth="yes"/>
    </contour>
  </outline>
</glyph>
<glyph name="less" format="1">
  <advance width="564"/>
  <unicode hex="003C"/>
  <outline>
    <contour>
      <point x="536" y="-10" type="line"/>
      <point x="536" y="62" type="line"/>
      <point x="116" y="253" type="line"/>
      <point x="536" y="444" type="line"/>
      <point x="536" y="516" type="line"/>
      <point x="28" y="286" type="line"/>
      <point x="28" y="220" type="line"/>
    </contour>
  </outline>
</glyph>
<glyph name="question" format="1">
  <advance width="444"/>
  <unicode hex="003F"/>
  <outline>
    <contour>
      <point x="244" y="164" type="line"/>
      <point x="255" y="231"/>
      <point x="272" y="271"/>
      <point x="309" y="318" type="curve" smooth="yes"/>
      <point x="355" y="374"/>
      <point x="355" y="374"/>
      <point x="369" y="395" type="curve" smooth="yes"/>
      <point x="401" y="444"/>
      <point x="414" y="480"/>
      <point x="414" y="521" type="curve" smooth="yes"/>
      <point x="414" y="559"/>
      <point x="401" y="595"/>
      <point x="378" y="618" type="curve" smooth="yes"/>
      <point x="343" y="653"/>
      <point x="284" y="676"/>
      <point x="230" y="676" type="curve" smooth="yes"/>
      <point x="138" y="676"/>
      <point x="68" y="614"/>
      <point x="68" y="531" type="curve" smooth="yes"/>
      <point x="68" y="491"/>
      <point x="85" y="469"/>
      <point x="116" y="469" type="curve" smooth="yes"/>
      <point x="140" y="469"/>
      <point x="157" y="486"/>
      <point x="157" y="510" type="curve" smooth="yes"/>
      <point x="157" y="524"/>
      <point x="151" y="536"/>
      <point x="136" y="553" type="curve" smooth="yes"/>
      <point x="124" y="567"/>
      <point x="119" y="576"/>
      <point x="119" y="584" type="curve" smooth="yes"/>
      <point x="119" y="616"/>
      <point x="165" y="646"/>
      <point x="214" y="646" type="curve" smooth="yes"/>
      <point x="274" y="646"/>
      <point x="322" y="593"/>
      <point x="322" y="526" type="curve" smooth="yes"/>
      <point x="322" y="480"/>
      <point x="309" y="425"/>
      <point x="285" y="370" type="curve" smooth="yes"/>
      <point x="257" y="306" type="line" smooth="yes"/>
      <point x="238" y="257"/>
      <point x="228" y="208"/>
      <point x="227" y="164" type="curve"/>
    </contour>
    <contour>
      <point x="237" y="99" type="curve" smooth="yes"/>
      <point x="207" y="99"/>
      <point x="184" y="75"/>
      <point x="184" y="43" type="curve" smooth="yes"/>
      <point x="184" y="14"/>
      <point x="206" y="-8"/>
      <point x="236" y="-8" type="curve" smooth="yes"/>
      <point x="268" y="-8"/>
      <point x="291" y="14"/>
      <point x="291" y="44" type="curve" smooth="yes"/>
      <point x="291" y="74"/>
      <point x="266" y="99"/>
    </contour>
  </outline>
</glyph>
<glyph name="at" format="1">
  <advance width="921"/>
  <unicode hex="0040"/>
  <outline>
    <contour>
      <point x="688" y="73" type="line"/>
      <point x="610" y="38"/>
      <point x="559" y="25"/>
      <point x="492" y="25" type="curve" smooth="yes"/>
      <point x="322" y="25"/>
      <point x="200" y="149"/>
      <point x="200" y="323" type="curve" smooth="yes"/>
      <point x="200" y="416"/>
      <point x="236" y="510"/>
      <point x="293" y="569" type="curve" smooth="yes"/>
      <point x="342" y="618"/>
      <point x="409" y="645"/>
      <point x="482" y="645" type="curve" smooth="yes"/>
      <point x="639" y="645"/>
      <point x="769" y="522"/>
      <point x="769" y="373" type="curve" smooth="yes"/>
      <point x="769" y="273"/>
      <point x="706" y="176"/>
      <point x="640" y="176" type="curve" smooth="yes"/>
      <point x="614" y="176"/>
      <point x="601" y="191"/>
      <point x="601" y="222" type="curve" smooth="yes"/>
      <point x="601" y="229"/>
      <point x="602" y="234"/>
      <point x="603" y="240" type="curve"/>
      <point x="668" y="494" type="line"/>
      <point x="599" y="494" type="line"/>
      <point x="589" y="456" type="line"/>
      <point x="567" y="497"/>
      <point x="552" y="508"/>
      <point x="517" y="508" type="curve" smooth="yes"/>
      <point x="474" y="508"/>
      <point x="439" y="492"/>
      <point x="405" y="458" type="curve" smooth="yes"/>
      <point x="352" y="405"/>
      <point x="321" y="329"/>
      <point x="321" y="256" type="curve" smooth="yes"/>
      <point x="321" y="193"/>
      <point x="360" y="144"/>
      <point x="409" y="144" type="curve" smooth="yes"/>
      <point x="453" y="144"/>
      <point x="500" y="171"/>
      <point x="534" y="216" type="curve"/>
      <point x="540" y="172"/>
      <point x="577" y="143"/>
      <point x="625" y="143" type="curve" smooth="yes"/>
      <point x="724" y="143"/>
      <point x="809" y="254"/>
      <point x="809" y="383" type="curve" smooth="yes"/>
      <point x="809" y="548"/>
      <point x="666" y="676"/>
      <point x="481" y="676" type="curve" smooth="yes"/>
      <point x="278" y="676"/>
      <point x="116" y="521"/>
      <point x="116" y="326" type="curve" smooth="yes"/>
      <point x="116" y="134"/>
      <point x="276" y="-14"/>
      <point x="483" y="-14" type="curve" smooth="yes"/>
      <point x="553" y="-14"/>
      <point x="603" y="-1"/>
      <point x="700" y="43" type="curve"/>
    </contour>
    <contour>
      <point x="531" y="464" type="curve" smooth="yes"/>
      <point x="559" y="462"/>
      <point x="574" y="438"/>
      <point x="572" y="399" type="curve" smooth="yes"/>
      <point x="570" y="351"/>
      <point x="553" y="292"/>
      <point x="527" y="245" type="curve" smooth="yes"/>
      <point x="508" y="209"/>
      <point x="479" y="187"/>
      <point x="452" y="187" type="curve" smooth="yes"/>
      <point x="415" y="187"/>
      <point x="392" y="220"/>
      <point x="392" y="272" type="curve" smooth="yes"/>
      <point x="392" y="326"/>
      <point x="410" y="376"/>
      <point x="444" y="414" type="curve" smooth="yes"/>
      <point x="472" y="446"/>
      <point x="507" y="466"/>
    </contour>
  </outline>
</glyph>
<glyph name="B" format="1">
  <advance width="667"/>
  <unicode hex="0042"/>
  <outline>
    <contour>
      <point x="17" y="662" type="line"/>
      <point x="17" y="643" type="line"/>
      <point x="101" y="638"/>
      <point x="113" y="627"/>
      <point x="113" y="553" type="curve" smooth="yes"/>
      <point x="113" y="109" type="line" smooth="yes"/>
      <point x="113" y="35"/>
      <point x="100" y="22"/>
      <point x="17" y="19" type="curve"/>
      <point x="17" y="0" type="line"/>
      <point x="351" y="0" type="line" smooth="yes"/>
      <point x="429" y="0"/>
      <point x="500" y="21"/>
      <point x="537" y="55" type="curve" smooth="yes"/>
      <point x="573" y="87"/>
      <point x="593" y="132"/>
      <point x="593" y="180" type="curve" smooth="yes"/>
      <point x="593" y="224"/>
      <point x="575" y="264"/>
      <point x="544" y="293" type="curve" smooth="yes"/>
      <point x="514" y="320"/>
      <point x="487" y="332"/>
      <point x="422" y="348" type="curve"/>
      <point x="474" y="361"/>
      <point x="495" y="371"/>
      <point x="519" y="392" type="curve" smooth="yes"/>
      <point x="544" y="414"/>
      <point x="559" y="451"/>
      <point x="559" y="492" type="curve" smooth="yes"/>
      <point x="559" y="604"/>
      <point x="470" y="662"/>
      <point x="297" y="662" type="curve" smooth="yes"/>
    </contour>
    <contour>
      <point x="215" y="326" type="line"/>
      <point x="312" y="326"/>
      <point x="358" y="321"/>
      <point x="394" y="306" type="curve" smooth="yes"/>
      <point x="451" y="282"/>
      <point x="478" y="242"/>
      <point x="478" y="179" type="curve" smooth="yes"/>
      <point x="478" y="125"/>
      <point x="457" y="86"/>
      <point x="417" y="63" type="curve" smooth="yes"/>
      <point x="385" y="45"/>
      <point x="344" y="37"/>
      <point x="278" y="37" type="curve" smooth="yes"/>
      <point x="229" y="37"/>
      <point x="215" y="46"/>
      <point x="215" y="78" type="curve" smooth="yes"/>
    </contour>
    <contour>
      <point x="215" y="366" type="line"/>
      <point x="215" y="595" type="line" smooth="yes"/>
      <point x="215" y="616"/>
      <point x="222" y="625"/>
      <point x="237" y="625" type="curve" smooth="yes"/>
      <point x="281" y="625" type="line" smooth="yes"/>
      <point x="396" y="625"/>
      <point x="457" y="577"/>
      <point x="457" y="488" type="curve" smooth="yes"/>
      <point x="457" y="410"/>
      <point x="404" y="366"/>
      <point x="310" y="366" type="curve" smooth="yes"/>
    </contour>
  </outline>
</glyph>
<glyph name="C" format="1">
  <advance width="667"/>
  <unicode hex="0043"/>
  <outline>
    <contour>
      <point x="620" y="450" type="line"/>
      <point x="611" y="676" type="line"/>
      <point x="590" y="676" type="line"/>
      <point x="584" y="655"/>
      <point x="568" y="643"/>
      <point x="548" y="643" type="curve" smooth="yes"/>
      <point x="539" y="643"/>
      <point x="524" y="646"/>
      <point x="509" y="652" type="curve"/>
      <point x="460" y="668"/>
      <point x="410" y="676"/>
      <point x="363" y="676" type="curve" smooth="yes"/>
      <point x="281" y="676"/>
      <point x="198" y="645"/>
      <point x="136" y="590" type="curve" smooth="yes"/>
      <point x="66" y="528"/>
      <point x="28" y="435"/>
      <point x="28" y="325" type="curve" smooth="yes"/>
      <point x="28" y="232"/>
      <point x="58" y="146"/>
      <point x="109" y="89" type="curve" smooth="yes"/>
      <point x="169" y="24"/>
      <point x="261" y="-14"/>
      <point x="360" y="-14" type="curve" smooth="yes"/>
      <point x="473" y="-14"/>
      <point x="572" y="32"/>
      <point x="633" y="113" type="curve"/>
      <point x="615" y="131" type="line"/>
      <point x="541" y="60"/>
      <point x="475" y="30"/>
      <point x="392" y="30" type="curve" smooth="yes"/>
      <point x="329" y="30"/>
      <point x="273" y="50"/>
      <point x="230" y="88" type="curve" smooth="yes"/>
      <point x="175" y="137"/>
      <point x="144" y="227"/>
      <point x="144" y="338" type="curve" smooth="yes"/>
      <point x="144" y="519"/>
      <point x="237" y="636"/>
      <point x="382" y="636" type="curve" smooth="yes"/>
      <point x="439" y="636"/>
      <point x="491" y="615"/>
      <point x="531" y="575" type="curve" smooth="yes"/>
      <point x="563" y="543"/>
      <point x="578" y="515"/>
      <point x="597" y="450" type="curve"/>
    </contour>
  </outline>
</glyph>
<glyph name="D" format="1">
  <advance width="722"/>
  <unicode hex="0044"/>
  <outline>
    <contour>
      <point x="104" y="109" type="line" smooth="yes"/>
      <point x="104" y="37"/>
      <point x="92" y="24"/>
      <point x="16" y="19" type="curve"/>
      <point x="16" y="0" type="line"/>
      <point x="300" y="0" type="line" smooth="yes"/>
      <point x="416" y="0"/>
      <point x="521" y="33"/>
      <point x="583" y="89" type="curve" smooth="yes"/>
      <point x="648" y="148"/>
      <point x="685" y="237"/>
      <point x="685" y="334" type="curve" smooth="yes"/>
      <point x="685" y="424"/>
      <point x="655" y="502"/>
      <point x="600" y="557" type="curve" smooth="yes"/>
      <point x="532" y="626"/>
      <point x="423" y="662"/>
      <point x="286" y="662" type="curve" smooth="yes"/>
      <point x="16" y="662" type="line"/>
      <point x="16" y="643" type="line"/>
      <point x="95" y="636"/>
      <point x="104" y="627"/>
      <point x="104" y="553" type="curve" smooth="yes"/>
    </contour>
    <contour>
      <point x="206" y="586" type="line" smooth="yes"/>
      <point x="206" y="617"/>
      <point x="217" y="625"/>
      <point x="258" y="625" type="curve" smooth="yes"/>
      <point x="344" y="625"/>
      <point x="409" y="609"/>
      <point x="457" y="575" type="curve" smooth="yes"/>
      <point x="535" y="521"/>
      <point x="576" y="435"/>
      <point x="576" y="327" type="curve" smooth="yes"/>
      <point x="576" y="209"/>
      <point x="535" y="125"/>
      <point x="454" y="78" type="curve" smooth="yes"/>
      <point x="403" y="49"/>
      <point x="345" y="37"/>
      <point x="258" y="37" type="curve" smooth="yes"/>
      <point x="218" y="37"/>
      <point x="206" y="46"/>
      <point x="206" y="78" type="curve" smooth="yes"/>
    </contour>
  </outline>
</glyph>
<glyph name="E" format="1">
  <advance width="611"/>
  <unicode hex="0045"/>
  <outline>
    <contour>
      <point x="597" y="169" type="line"/>
      <point x="569" y="169" type="line"/>
      <point x="519" y="61"/>
      <point x="476" y="37"/>
      <point x="333" y="37" type="curve" smooth="yes"/>
      <point x="306" y="37" type="line" smooth="yes"/>
      <point x="257" y="37"/>
      <point x="215" y="42"/>
      <point x="208" y="49" type="curve"/>
      <point x="203" y="52"/>
      <point x="201" y="63"/>
      <point x="201" y="80" type="curve" smooth="yes"/>
      <point x="201" y="327" type="line"/>
      <point x="355" y="327" type="line" smooth="yes"/>
      <point x="437" y="327"/>
      <point x="452" y="314"/>
      <point x="465" y="231" type="curve"/>
      <point x="488" y="231" type="line"/>
      <point x="488" y="463" type="line"/>
      <point x="465" y="463" type="line"/>
      <point x="458" y="422"/>
      <point x="454" y="407"/>
      <point x="443" y="393" type="curve" smooth="yes"/>
      <point x="430" y="376"/>
      <point x="402" y="368"/>
      <point x="355" y="368" type="curve" smooth="yes"/>
      <point x="201" y="368" type="line"/>
      <point x="201" y="590" type="line" smooth="yes"/>
      <point x="201" y="618"/>
      <point x="207" y="624"/>
      <point x="234" y="624" type="curve" smooth="yes"/>
      <point x="369" y="624" type="line" smooth="yes"/>
      <point x="482" y="624"/>
      <point x="504" y="609"/>
      <point x="521" y="519" type="curve"/>
      <point x="546" y="519" type="line"/>
      <point x="543" y="662" type="line"/>
      <point x="12" y="662" type="line"/>
      <point x="12" y="643" type="line"/>
      <point x="86" y="637"/>
      <point x="99" y="623"/>
      <point x="99" y="553" type="curve" smooth="yes"/>
      <point x="99" y="109" type="line" smooth="yes"/>
      <point x="99" y="39"/>
      <point x="85" y="24"/>
      <point x="12" y="19" type="curve"/>
      <point x="12" y="0" type="line"/>
      <point x="552" y="0" type="line"/>
    </contour>
  </outline>
</glyph>
<glyph name="F" format="1">
  <advance width="556"/>
  <unicode hex="0046"/>
  <outline>
    <contour>
      <point x="479" y="231" type="line"/>
      <point x="479" y="463" type="line"/>
      <point x="456" y="463" type="line"/>
      <point x="444" y="383"/>
      <point x="426" y="368"/>
      <point x="346" y="368" type="curve" smooth="yes"/>
      <point x="201" y="368" type="line"/>
      <point x="201" y="590" type="line" smooth="yes"/>
      <point x="201" y="618"/>
      <point x="206" y="624"/>
      <point x="233" y="624" type="curve" smooth="yes"/>
      <point x="369" y="624" type="line" smooth="yes"/>
      <point x="482" y="624"/>
      <point x="504" y="609"/>
      <point x="521" y="519" type="curve"/>
      <point x="546" y="519" type="line"/>
      <point x="543" y="662" type="line"/>
      <point x="12" y="662" type="line"/>
      <point x="12" y="643" type="line"/>
      <point x="86" y="637"/>
      <point x="99" y="623"/>
      <point x="99" y="553" type="curve" smooth="yes"/>
      <point x="99" y="120" type="line" smooth="yes"/>
      <point x="99" y="37"/>
      <point x="88" y="24"/>
      <point x="12" y="19" type="curve"/>
      <point x="12" y="0" type="line"/>
      <point x="292" y="0" type="line"/>
      <point x="292" y="19" type="line"/>
      <point x="215" y="23"/>
      <point x="201" y="37"/>
      <point x="201" y="109" type="curve" smooth="yes"/>
      <point x="201" y="327" type="line"/>
      <point x="346" y="327" type="line" smooth="yes"/>
      <point x="427" y="327"/>
      <point x="444" y="312"/>
      <point x="456" y="231" type="curve"/>
    </contour>
  </outline>
</glyph>
<glyph name="G" format="1">
  <advance width="722"/>
  <unicode hex="0047"/>
  <outline>
    <contour>
      <point x="709" y="354" type="line"/>
      <point x="454" y="354" type="line"/>
      <point x="454" y="336" type="line"/>
      <point x="497" y="333"/>
      <point x="509" y="330"/>
      <point x="521" y="322" type="curve" smooth="yes"/>
      <point x="536" y="313"/>
      <point x="542" y="290"/>
      <point x="542" y="247" type="curve" smooth="yes"/>
      <point x="542" y="85" type="line" smooth="yes"/>
      <point x="542" y="53"/>
      <point x="481" y="26"/>
      <point x="409" y="26" type="curve" smooth="yes"/>
      <point x="246" y="26"/>
      <point x="146" y="140"/>
      <point x="146" y="326" type="curve" smooth="yes"/>
      <point x="146" y="420"/>
      <point x="174" y="511"/>
      <point x="218" y="560" type="curve" smooth="yes"/>
      <point x="262" y="609"/>
      <point x="324" y="636"/>
      <point x="392" y="636" type="curve" smooth="yes"/>
      <point x="448" y="636"/>
      <point x="497" y="617"/>
      <point x="536" y="581" type="curve" smooth="yes"/>
      <point x="566" y="553"/>
      <point x="582" y="526"/>
      <point x="607" y="465" type="curve"/>
      <point x="630" y="465" type="line"/>
      <point x="622" y="676" type="line"/>
      <point x="600" y="676" type="line"/>
      <point x="594" y="657"/>
      <point x="576" y="643"/>
      <point x="555" y="643" type="curve" smooth="yes"/>
      <point x="545" y="643"/>
      <point x="529" y="646"/>
      <point x="511" y="653" type="curve" smooth="yes"/>
      <point x="466" y="668"/>
      <point x="420" y="676"/>
      <point x="375" y="676" type="curve" smooth="yes"/>
      <point x="175" y="676"/>
      <point x="32" y="529"/>
      <point x="32" y="325" type="curve" smooth="yes"/>
      <point x="32" y="227"/>
      <point x="59" y="152"/>
      <point x="115" y="93" type="curve" smooth="yes"/>
      <point x="182" y="24"/>
      <point x="278" y="-14"/>
      <point x="388" y="-14" type="curve" smooth="yes"/>
      <point x="474" y="-14"/>
      <point x="599" y="21"/>
      <point x="639" y="56" type="curve"/>
      <point x="639" y="259" type="line" smooth="yes"/>
      <point x="639" y="318"/>
      <point x="651" y="331"/>
      <point x="709" y="336" type="curve"/>
    </contour>
  </outline>
</glyph>
<glyph name="J" format="1">
  <advance width="389"/>
  <unicode hex="004A"/>
  <outline>
    <contour>
      <point x="278" y="553" type="line" smooth="yes"/>
      <point x="278" y="626"/>
      <point x="289" y="637"/>
      <point x="370" y="643" type="curve"/>
      <point x="370" y="662" type="line"/>
      <point x="83" y="662" type="line"/>
      <point x="83" y="643" type="line"/>
      <point x="165" y="637"/>
      <point x="176" y="626"/>
      <point x="176" y="553" type="curve" smooth="yes"/>
      <point x="176" y="90" type="line" smooth="yes"/>
      <point x="176" y="45"/>
      <point x="164" y="24"/>
      <point x="138" y="24" type="curve" smooth="yes"/>
      <point x="124" y="24"/>
      <point x="118" y="32"/>
      <point x="111" y="57" type="curve" smooth="yes"/>
      <point x="101" y="92"/>
      <point x="85" y="108"/>
      <point x="59" y="108" type="curve" smooth="yes"/>
      <point x="32" y="108"/>
      <point x="10" y="85"/>
      <point x="10" y="58" type="curve" smooth="yes"/>
      <point x="10" y="16"/>
      <point x="51" y="-14"/>
      <point x="109" y="-14" type="curve" smooth="yes"/>
      <point x="217" y="-14"/>
      <point x="278" y="58"/>
      <point x="278" y="183" type="curve" smooth="yes"/>
    </contour>
  </outline>
</glyph>
<glyph name="M" format="1">
  <advance width="889"/>
  <unicode hex="004D"/>
  <outline>
    <contour>
      <point x="674" y="573" type="line"/>
      <point x="674" y="120" type="line" smooth="yes"/>
      <point x="674" y="37"/>
      <point x="662" y="24"/>
      <point x="583" y="19" type="curve"/>
      <point x="583" y="0" type="line"/>
      <point x="863" y="0" type="line"/>
      <point x="863" y="19" type="line"/>
      <point x="790" y="24"/>
      <point x="776" y="38"/>
      <point x="776" y="109" type="curve" smooth="yes"/>
      <point x="776" y="553" type="line" smooth="yes"/>
      <point x="776" y="624"/>
      <point x="789" y="637"/>
      <point x="863" y="643" type="curve"/>
      <point x="863" y="662" type="line"/>
      <point x="664" y="662" type="line"/>
      <point x="443" y="157" type="line"/>
      <point x="212" y="662" type="line"/>
      <point x="14" y="662" type="line"/>
      <point x="14" y="643" type="line"/>
      <point x="96" y="638"/>
      <point x="109" y="626"/>
      <point x="109" y="553" type="curve" smooth="yes"/>
      <point x="109" y="147" type="line" smooth="yes"/>
      <point x="109" y="44"/>
      <point x="95" y="25"/>
      <point x="12" y="19" type="curve"/>
      <point x="12" y="0" type="line"/>
      <point x="247" y="0" type="line"/>
      <point x="247" y="19" type="line"/>
      <point x="170" y="23"/>
      <point x="153" y="46"/>
      <point x="153" y="147" type="curve" smooth="yes"/>
      <point x="153" y="550" type="line"/>
      <point x="404" y="0" type="line"/>
      <point x="418" y="0" type="line"/>
    </contour>
  </outline>
</glyph>
<glyph name="P" format="1">
  <advance width="556"/>
  <unicode hex="0050"/>
  <outline>
    <contour>
      <point x="202" y="291" type="line"/>
      <point x="228" y="289"/>
      <point x="245" y="288"/>
      <point x="271" y="288" type="curve" smooth="yes"/>
      <point x="349" y="288"/>
      <point x="403" y="298"/>
      <point x="446" y="322" type="curve" smooth="yes"/>
      <point x="506" y="354"/>
      <point x="542" y="415"/>
      <point x="542" y="481" type="curve" smooth="yes"/>
      <point x="542" y="523"/>
      <point x="528" y="561"/>
      <point x="501" y="590" type="curve" smooth="yes"/>
      <point x="461" y="634"/>
      <point x="374" y="662"/>
      <point x="280" y="662" type="curve" smooth="yes"/>
      <point x="16" y="662" type="line"/>
      <point x="16" y="643" type="line"/>
      <point x="90" y="635"/>
      <point x="100" y="625"/>
      <point x="100" y="553" type="curve" smooth="yes"/>
      <point x="100" y="120" type="line" smooth="yes"/>
      <point x="100" y="36"/>
      <point x="92" y="26"/>
      <point x="16" y="19" type="curve"/>
      <point x="16" y="0" type="line"/>
      <point x="296" y="0" type="line"/>
      <point x="296" y="19" type="line"/>
      <point x="217" y="22"/>
      <point x="202" y="36"/>
      <point x="202" y="109" type="curve" smooth="yes"/>
    </contour>
    <contour>
      <point x="202" y="591" type="line" smooth="yes"/>
      <point x="202" y="618"/>
      <point x="209" y="625"/>
      <point x="236" y="625" type="curve" smooth="yes"/>
      <point x="371" y="625"/>
      <point x="433" y="578"/>
      <point x="433" y="475" type="curve" smooth="yes"/>
      <point x="433" y="378"/>
      <point x="374" y="328"/>
      <point x="259" y="328" type="curve" smooth="yes"/>
      <point x="239" y="328"/>
      <point x="225" y="329"/>
      <point x="202" y="331" type="curve"/>
    </contour>
  </outline>
</glyph>
<glyph name="Q" format="1">
  <advance width="722"/>
  <unicode hex="0051"/>
  <outline>
    <contour>
      <point x="701" y="-159" type="line"/>
      <point x="587" y="-156"/>
      <point x="507" y="-112"/>
      <point x="426" y="-7" type="curve"/>
      <point x="494" y="6"/>
      <point x="530" y="23"/>
      <point x="576" y="63" type="curve" smooth="yes"/>
      <point x="650" y="129"/>
      <point x="688" y="220"/>
      <point x="688" y="331" type="curve" smooth="yes"/>
      <point x="688" y="532"/>
      <point x="552" y="676"/>
      <point x="361" y="676" type="curve" smooth="yes"/>
      <point x="170" y="676"/>
      <point x="34" y="532"/>
      <point x="34" y="329" type="curve" smooth="yes"/>
      <point x="34" y="231"/>
      <point x="64" y="149"/>
      <point x="123" y="85" type="curve" smooth="yes"/>
      <point x="162" y="43"/>
      <point x="194" y="23"/>
      <point x="265" y="-1" type="curve"/>
      <point x="312" y="-56" type="line" smooth="yes"/>
      <point x="380" y="-135"/>
      <point x="501" y="-178"/>
      <point x="660" y="-178" type="curve" smooth="yes"/>
      <point x="675" y="-178"/>
      <point x="684" y="-178"/>
      <point x="695" y="-177" type="curve"/>
      <point x="701" y="-177" type="line"/>
    </contour>
    <contour>
      <point x="364" y="640" type="curve" smooth="yes"/>
      <point x="407" y="640"/>
      <point x="453" y="621"/>
      <point x="488" y="590" type="curve" smooth="yes"/>
      <point x="542" y="542"/>
      <point x="574" y="446"/>
      <point x="574" y="333" type="curve" smooth="yes"/>
      <point x="574" y="234"/>
      <point x="545" y="132"/>
      <point x="505" y="86" type="curve" smooth="yes"/>
      <point x="468" y="45"/>
      <point x="416" y="22"/>
      <point x="361" y="22" type="curve" smooth="yes"/>
      <point x="313" y="22"/>
      <point x="269" y="39"/>
      <point x="233" y="71" type="curve" smooth="yes"/>
      <point x="180" y="118"/>
      <point x="148" y="218"/>
      <point x="148" y="335" type="curve" smooth="yes"/>
      <point x="148" y="431"/>
      <point x="177" y="529"/>
      <point x="218" y="575" type="curve" smooth="yes"/>
      <point x="259" y="619"/>
      <point x="306" y="640"/>
    </contour>
  </outline>
</glyph>
<glyph name="S" format="1">
  <advance width="556"/>
  <unicode hex="0053"/>
  <outline>
    <contour>
      <point x="447" y="676" type="line"/>
      <point x="426" y="676" type="line"/>
      <point x="422" y="653"/>
      <point x="411" y="642"/>
      <point x="394" y="642" type="curve" smooth="yes"/>
      <point x="384" y="642"/>
      <point x="367" y="646"/>
      <point x="350" y="654" type="curve"/>
      <point x="313" y="668"/>
      <point x="276" y="676"/>
      <point x="244" y="676" type="curve" smooth="yes"/>
      <point x="201" y="676"/>
      <point x="157" y="659"/>
      <point x="124" y="630" type="curve" smooth="yes"/>
      <point x="89" y="599"/>
      <point x="71" y="557"/>
      <point x="71" y="505" type="curve" smooth="yes"/>
      <point x="71" y="425"/>
      <point x="115" y="369"/>
      <point x="227" y="310" type="curve" smooth="yes"/>
      <point x="299" y="272"/>
      <point x="351" y="231"/>
      <point x="376" y="193" type="curve" smooth="yes"/>
      <point x="385" y="180"/>
      <point x="390" y="159"/>
      <point x="390" y="135" type="curve" smooth="yes"/>
      <point x="390" y="68"/>
      <point x="340" y="22"/>
      <point x="267" y="22" type="curve" smooth="yes"/>
      <point x="178" y="22"/>
      <point x="115" y="77"/>
      <point x="65" y="199" type="curve"/>
      <point x="42" y="199" type="line"/>
      <point x="72" y="-13" type="line"/>
      <point x="94" y="-13" type="line"/>
      <point x="95" y="6"/>
      <point x="107" y="20"/>
      <point x="122" y="20" type="curve" smooth="yes"/>
      <point x="133" y="20"/>
      <point x="150" y="16"/>
      <point x="169" y="9" type="curve" smooth="yes"/>
      <point x="207" y="-6"/>
      <point x="247" y="-14"/>
      <point x="287" y="-14" type="curve" smooth="yes"/>
      <point x="402" y="-14"/>
      <point x="491" y="65"/>
      <point x="491" y="168" type="curve" smooth="yes"/>
      <point x="491" y="250"/>
      <point x="436" y="315"/>
      <point x="304" y="386" type="curve" smooth="yes"/>
      <point x="199" y="444"/>
      <point x="157" y="488"/>
      <point x="157" y="542" type="curve" smooth="yes"/>
      <point x="157" y="597"/>
      <point x="199" y="635"/>
      <point x="261" y="635" type="curve" smooth="yes"/>
      <point x="306" y="635"/>
      <point x="348" y="616"/>
      <point x="383" y="580" type="curve" smooth="yes"/>
      <point x="414" y="548"/>
      <point x="428" y="522"/>
      <point x="444" y="463" type="curve"/>
      <point x="469" y="463" type="line"/>
    </contour>
  </outline>
</glyph>
<glyph name="V" format="1">
  <advance width="722"/>
  <unicode hex="0056"/>
  <outline>
    <contour>
      <point x="697" y="662" type="line"/>
      <point x="492" y="662" type="line"/>
      <point x="492" y="643" type="line"/>
      <point x="547" y="640"/>
      <point x="565" y="629"/>
      <point x="565" y="601" type="curve" smooth="yes"/>
      <point x="565" y="585"/>
      <point x="558" y="558"/>
      <point x="546" y="528" type="curve" smooth="yes"/>
      <point x="399" y="161" type="line"/>
      <point x="248" y="499" type="line" smooth="yes"/>
      <point x="215" y="572"/>
      <point x="207" y="595"/>
      <point x="207" y="610" type="curve" smooth="yes"/>
      <point x="207" y="629"/>
      <point x="221" y="639"/>
      <point x="253" y="641" type="curve"/>
      <point x="257" y="641"/>
      <point x="268" y="642"/>
      <point x="282" y="643" type="curve"/>
      <point x="282" y="662" type="line"/>
      <point x="16" y="662" type="line"/>
      <point x="16" y="643" type="line"/>
      <point x="65" y="641"/>
      <point x="79" y="627"/>
      <point x="122" y="538" type="curve" smooth="yes"/>
      <point x="368" y="-11" type="line"/>
      <point x="383" y="-11" type="line"/>
      <point x="605" y="550" type="line" smooth="yes"/>
      <point x="638" y="629"/>
      <point x="649" y="640"/>
      <point x="697" y="643" type="curve"/>
    </contour>
  </outline>
</glyph>
<glyph name="W" format="1">
  <advance width="944"/>
  <unicode hex="0057"/>
  <outline>
    <contour>
      <point x="932" y="662" type="line"/>
      <point x="734" y="662" type="line"/>
      <point x="734" y="643" type="line"/>
      <point x="785" y="638"/>
      <point x="803" y="627"/>
      <point x="803" y="600" type="curve" smooth="yes"/>
      <point x="803" y="579"/>
      <point x="797" y="553"/>
      <point x="787" y="525" type="curve" smooth="yes"/>
      <point x="662" y="186" type="line"/>
      <point x="530" y="527" type="line" smooth="yes"/>
      <point x="528" y="532"/>
      <point x="519" y="554"/>
      <point x="518" y="557" type="curve"/>
      <point x="509" y="578"/>
      <point x="503" y="597"/>
      <point x="503" y="608" type="curve" smooth="yes"/>
      <point x="503" y="632"/>
      <point x="526" y="642"/>
      <point x="580" y="643" type="curve"/>
      <point x="580" y="662" type="line"/>
      <point x="313" y="662" type="line"/>
      <point x="313" y="643" type="line"/>
      <point x="370" y="642"/>
      <point x="380" y="633"/>
      <point x="414" y="553" type="curve" smooth="yes"/>
      <point x="447" y="471" type="line"/>
      <point x="340" y="189" type="line"/>
      <point x="196" y="565" type="line" smooth="yes"/>
      <point x="189" y="583"/>
      <point x="185" y="600"/>
      <point x="185" y="611" type="curve" smooth="yes"/>
      <point x="185" y="633"/>
      <point x="199" y="640"/>
      <point x="250" y="643" type="curve"/>
      <point x="250" y="662" type="line"/>
      <point x="5" y="662" type="line"/>
      <point x="5" y="643" type="line"/>
      <point x="56" y="638"/>
      <point x="71" y="620"/>
      <point x="108" y="526" type="curve" smooth="yes"/>
      <point x="301" y="-11" type="line"/>
      <point x="316" y="-11" type="line"/>
      <point x="470" y="412" type="line"/>
      <point x="630" y="-11" type="line"/>
      <point x="645" y="-11" type="line"/>
      <point x="730" y="250"/>
      <point x="740" y="278"/>
      <point x="849" y="572" type="curve" smooth="yes"/>
      <point x="868" y="624"/>
      <point x="879" y="633"/>
      <point x="932" y="643" type="curve"/>
    </contour>
  </outline>
</glyph>
<glyph name="X" format="1">
  <advance width="722"/>
  <unicode hex="0058"/>
  <outline>
    <contour>
      <point x="696" y="662" type="line"/>
      <point x="458" y="662" type="line"/>
      <point x="458" y="643" type="line"/>
      <point x="512" y="641"/>
      <point x="528" y="634"/>
      <point x="528" y="611" type="curve" smooth="yes"/>
      <point x="528" y="596"/>
      <point x="517" y="578"/>
      <point x="488" y="542" type="curve" smooth="yes"/>
      <point x="375" y="404" type="line"/>
      <point x="333" y="463" type="line" smooth="yes"/>
      <point x="272" y="548"/>
      <point x="248" y="591"/>
      <point x="248" y="613" type="curve" smooth="yes"/>
      <point x="248" y="633"/>
      <point x="263" y="641"/>
      <point x="296" y="642" type="curve" smooth="yes"/>
      <point x="324" y="643" type="line"/>
      <point x="324" y="662" type="line"/>
      <point x="22" y="662" type="line"/>
      <point x="22" y="643" type="line"/>
      <point x="87" y="640"/>
      <point x="105" y="625"/>
      <point x="203" y="486" type="curve" smooth="yes"/>
      <point x="312" y="326" type="line"/>
      <point x="155" y="133" type="line" smooth="yes"/>
      <point x="66" y="27"/>
      <point x="61" y="23"/>
      <point x="10" y="19" type="curve"/>
      <point x="10" y="0" type="line"/>
      <point x="243" y="0" type="line"/>
      <point x="243" y="19" type="line"/>
      <point x="185" y="23"/>
      <point x="167" y="31"/>
      <point x="167" y="54" type="curve" smooth="yes"/>
      <point x="167" y="69"/>
      <point x="182" y="94"/>
      <point x="219" y="140" type="curve" smooth="yes"/>
      <point x="338" y="288" type="line"/>
      <point x="433" y="148" type="line" smooth="yes"/>
      <point x="466" y="99"/>
      <point x="484" y="65"/>
      <point x="484" y="50" type="curve" smooth="yes"/>
      <point x="484" y="32"/>
      <point x="468" y="22"/>
      <point x="434" y="21" type="curve" smooth="yes"/>
      <point x="430" y="21"/>
      <point x="419" y="20"/>
      <point x="407" y="19" type="curve"/>
      <point x="407" y="0" type="line"/>
      <point x="704" y="0" type="line"/>
      <point x="704" y="19" type="line"/>
      <point x="651" y="25"/>
      <point x="636" y="35"/>
      <point x="593" y="93" type="curve" smooth="yes"/>
      <point x="401" y="367" type="line"/>
      <point x="547" y="549" type="line" smooth="yes"/>
      <point x="612" y="627"/>
      <point x="632" y="639"/>
      <point x="696" y="643" type="curve"/>
    </contour>
  </outline>
</glyph>
<glyph name="bracketleft" format="1">
  <advance width="333"/>
  <unicode hex="005B"/>
  <outline>
    <contour>
      <point x="299" y="-131" type="line"/>
      <point x="213" y="-131" type="line" smooth="yes"/>
      <point x="180" y="-131"/>
      <point x="164" y="-114"/>
      <point x="164" y="-79" type="curve" smooth="yes"/>
      <point x="164" y="593" type="line" smooth="yes"/>
      <point x="164" y="624"/>
      <point x="177" y="637"/>
      <point x="209" y="637" type="curve" smooth="yes"/>
      <point x="299" y="637" type="line"/>
      <point x="299" y="662" type="line"/>
      <point x="88" y="662" type="line"/>
      <point x="88" y="-156" type="line"/>
      <point x="299" y="-156" type="line"/>
    </contour>
  </outline>
</glyph>
<glyph name="backslash" format="1">
  <advance width="278"/>
  <unicode hex="005C"/>
  <outline>
    <contour>
      <point x="-9" y="676" type="line"/>
      <point x="219" y="-14" type="line"/>
      <point x="287" y="-14" type="line"/>
      <point x="58" y="676" type="line"/>
    </contour>
  </outline>
</glyph>
<glyph name="asciicircum" format="1">
  <advance width="469"/>
  <unicode hex="005E"/>
  <outline>
    <contour>
      <point x="92" y="297" type="line"/>
      <point x="235" y="586" type="line"/>
      <point x="378" y="297" type="line"/>
      <point x="446" y="297" type="line"/>
      <point x="265" y="662" type="line"/>
      <point x="205" y="662" type="line"/>
      <point x="24" y="297" type="line"/>
    </contour>
  </outline>
</glyph>
<glyph name="grave" format="1">
  <advance width="333"/>
  <unicode hex="0060"/>
  <outline>
    <contour>
      <point x="242" y="507" type="line"/>
      <point x="95" y="655" type="line" smooth="yes"/>
      <point x="77" y="673"/>
      <point x="68" y="678"/>
      <point x="53" y="678" type="curve" smooth="yes"/>
      <point x="32" y="678"/>
      <point x="19" y="666"/>
      <point x="19" y="647" type="curve" smooth="yes"/>
      <point x="19" y="631"/>
      <point x="30" y="616"/>
      <point x="48" y="604" type="curve" smooth="yes"/>
      <point x="202" y="507" type="line"/>
    </contour>
  </outline>
</glyph>
<glyph name="b" format="1">
  <advance width="500"/>
  <unicode hex="0062"/>
  <outline>
    <contour>
      <point x="153" y="681" type="line"/>
      <point x="148" y="683" type="line"/>
      <point x="106" y="668"/>
      <point x="79" y="660"/>
      <point x="32" y="647" type="curve" smooth="yes"/>
      <point x="3" y="639" type="line"/>
      <point x="3" y="623" type="line"/>
      <point x="9" y="624"/>
      <point x="13" y="624"/>
      <point x="20" y="624" type="curve" smooth="yes"/>
      <point x="60" y="624"/>
      <point x="69" y="615"/>
      <point x="69" y="573" type="curve" smooth="yes"/>
      <point x="69" y="54" type="line" smooth="yes"/>
      <point x="69" y="23"/>
      <point x="154" y="-10"/>
      <point x="234" y="-10" type="curve" smooth="yes"/>
      <point x="366" y="-10"/>
      <point x="468" y="100"/>
      <point x="468" y="243" type="curve" smooth="yes"/>
      <point x="468" y="366"/>
      <point x="392" y="460"/>
      <point x="292" y="460" type="curve" smooth="yes"/>
      <point x="231" y="460"/>
      <point x="173" y="424"/>
      <point x="153" y="375" type="curve"/>
    </contour>
    <contour>
      <point x="153" y="322" type="line" smooth="yes"/>
      <point x="153" y="361"/>
      <point x="200" y="397"/>
      <point x="252" y="397" type="curve" smooth="yes"/>
      <point x="330" y="397"/>
      <point x="380" y="319"/>
      <point x="380" y="197" type="curve" smooth="yes"/>
      <point x="380" y="86"/>
      <point x="332" y="22"/>
      <point x="250" y="22" type="curve" smooth="yes"/>
      <point x="198" y="22"/>
      <point x="153" y="45"/>
      <point x="153" y="70" type="curve" smooth="yes"/>
    </contour>
  </outline>
</glyph>
<glyph name="d" format="1">
  <advance width="500"/>
  <unicode hex="0064"/>
  <outline>
    <contour>
      <point x="344" y="-10" type="line"/>
      <point x="491" y="42" type="line"/>
      <point x="491" y="58" type="line"/>
      <point x="473" y="57"/>
      <point x="471" y="57"/>
      <point x="468" y="57" type="curve" smooth="yes"/>
      <point x="432" y="57"/>
      <point x="424" y="68"/>
      <point x="424" y="114" type="curve" smooth="yes"/>
      <point x="424" y="681" type="line"/>
      <point x="419" y="683" type="line"/>
      <point x="371" y="666"/>
      <point x="336" y="656"/>
      <point x="272" y="639" type="curve"/>
      <point x="272" y="623" type="line"/>
      <point x="280" y="624"/>
      <point x="286" y="624"/>
      <point x="294" y="624" type="curve" smooth="yes"/>
      <point x="331" y="624"/>
      <point x="340" y="614"/>
      <point x="340" y="573" type="curve" smooth="yes"/>
      <point x="340" y="417" type="line"/>
      <point x="302" y="449"/>
      <point x="275" y="460"/>
      <point x="235" y="460" type="curve" smooth="yes"/>
      <point x="120" y="460"/>
      <point x="27" y="347"/>
      <point x="27" y="205" type="curve" smooth="yes"/>
      <point x="27" y="77"/>
      <point x="102" y="-10"/>
      <point x="212" y="-10" type="curve" smooth="yes"/>
      <point x="268" y="-10"/>
      <point x="306" y="10"/>
      <point x="340" y="57" type="curve"/>
      <point x="340" y="-7" type="line"/>
    </contour>
    <contour>
      <point x="340" y="102" type="line" smooth="yes"/>
      <point x="340" y="95"/>
      <point x="333" y="83"/>
      <point x="323" y="72" type="curve" smooth="yes"/>
      <point x="305" y="52"/>
      <point x="280" y="42"/>
      <point x="251" y="42" type="curve" smooth="yes"/>
      <point x="168" y="42"/>
      <point x="113" y="122"/>
      <point x="113" y="245" type="curve" smooth="yes"/>
      <point x="113" y="358"/>
      <point x="162" y="432"/>
      <point x="238" y="432" type="curve" smooth="yes"/>
      <point x="291" y="432"/>
      <point x="340" y="385"/>
      <point x="340" y="332" type="curve" smooth="yes"/>
    </contour>
  </outline>
</glyph>
<glyph name="h" format="1">
  <advance width="500"/>
  <unicode hex="0068"/>
  <outline>
    <contour>
      <point x="157" y="343" type="line"/>
      <point x="199" y="389"/>
      <point x="229" y="406"/>
      <point x="268" y="406" type="curve" smooth="yes"/>
      <point x="318" y="406"/>
      <point x="343" y="370"/>
      <point x="343" y="300" type="curve" smooth="yes"/>
      <point x="343" y="102" type="line" smooth="yes"/>
      <point x="343" y="34"/>
      <point x="333" y="21"/>
      <point x="275" y="15" type="curve"/>
      <point x="275" y="0" type="line"/>
      <point x="487" y="0" type="line"/>
      <point x="487" y="15" type="line"/>
      <point x="433" y="25"/>
      <point x="427" y="33"/>
      <point x="427" y="102" type="curve" smooth="yes"/>
      <point x="427" y="301" type="line" smooth="yes"/>
      <point x="427" y="406"/>
      <point x="385" y="460"/>
      <point x="304" y="460" type="curve" smooth="yes"/>
      <point x="245" y="460"/>
      <point x="203" y="436"/>
      <point x="157" y="376" type="curve"/>
      <point x="157" y="680" type="line"/>
      <point x="152" y="683" type="line"/>
      <point x="118" y="671"/>
      <point x="93" y="663"/>
      <point x="37" y="647" type="curve" smooth="yes"/>
      <point x="10" y="639" type="line"/>
      <point x="10" y="623" type="line"/>
      <point x="14" y="624"/>
      <point x="17" y="624"/>
      <point x="22" y="624" type="curve" smooth="yes"/>
      <point x="65" y="624"/>
      <point x="73" y="616"/>
      <point x="73" y="573" type="curve" smooth="yes"/>
      <point x="73" y="102" type="line" smooth="yes"/>
      <point x="73" y="32"/>
      <point x="67" y="23"/>
      <point x="9" y="15" type="curve"/>
      <point x="9" y="0" type="line"/>
      <point x="225" y="0" type="line"/>
      <point x="225" y="15" type="line"/>
      <point x="167" y="21"/>
      <point x="157" y="33"/>
      <point x="157" y="102" type="curve" smooth="yes"/>
    </contour>
  </outline>
</glyph>
<glyph name="i" format="1">
  <advance width="278"/>
  <unicode hex="0069"/>
  <outline>
    <contour>
      <point x="175" y="460" type="line"/>
      <point x="20" y="405" type="line"/>
      <point x="20" y="390" type="line"/>
      <point x="28" y="391" type="line" smooth="yes"/>
      <point x="40" y="393"/>
      <point x="53" y="394"/>
      <point x="62" y="394" type="curve" smooth="yes"/>
      <point x="86" y="394"/>
      <point x="95" y="378"/>
      <point x="95" y="334" type="curve" smooth="yes"/>
      <point x="95" y="102" type="line" smooth="yes"/>
      <point x="95" y="30"/>
      <point x="85" y="19"/>
      <point x="16" y="15" type="curve"/>
      <point x="16" y="0" type="line"/>
      <point x="253" y="0" type="line"/>
      <point x="253" y="15" type="line"/>
      <point x="187" y="20"/>
      <point x="179" y="30"/>
      <point x="179" y="102" type="curve" smooth="yes"/>
      <point x="179" y="457" type="line"/>
    </contour>
    <contour>
      <point x="128" y="683" type="curve" smooth="yes"/>
      <point x="101" y="683"/>
      <point x="78" y="660"/>
      <point x="78" y="632" type="curve" smooth="yes"/>
      <point x="78" y="604"/>
      <point x="100" y="581"/>
      <point x="128" y="581" type="curve" smooth="yes"/>
      <point x="157" y="581"/>
      <point x="180" y="603"/>
      <point x="180" y="632" type="curve" smooth="yes"/>
      <point x="180" y="660"/>
      <point x="157" y="683"/>
    </contour>
  </outline>
</glyph>
<glyph name="k" format="1">
  <advance width="500"/>
  <unicode hex="006B"/>
  <outline>
    <contour>
      <point x="7" y="623" type="line"/>
      <point x="20" y="624"/>
      <point x="29" y="625"/>
      <point x="39" y="625" type="curve" smooth="yes"/>
      <point x="72" y="625"/>
      <point x="82" y="612"/>
      <point x="82" y="564" type="curve" smooth="yes"/>
      <point x="82" y="82" type="line" smooth="yes"/>
      <point x="82" y="30"/>
      <point x="79" y="27"/>
      <point x="7" y="15" type="curve"/>
      <point x="7" y="0" type="line"/>
      <point x="241" y="0" type="line"/>
      <point x="241" y="15" type="line"/>
      <point x="221" y="16" type="line" smooth="yes"/>
      <point x="181" y="18"/>
      <point x="166" y="32"/>
      <point x="166" y="67" type="curve" smooth="yes"/>
      <point x="166" y="251" type="line"/>
      <point x="306" y="64" type="line"/>
      <point x="309" y="60" type="line"/>
      <point x="311" y="57"/>
      <point x="313" y="54"/>
      <point x="316" y="51" type="curve"/>
      <point x="324" y="41"/>
      <point x="327" y="35"/>
      <point x="327" y="30" type="curve" smooth="yes"/>
      <point x="327" y="21"/>
      <point x="318" y="15"/>
      <point x="306" y="15" type="curve" smooth="yes"/>
      <point x="287" y="15" type="line"/>
      <point x="287" y="0" type="line"/>
      <point x="505" y="0" type="line"/>
      <point x="505" y="15" type="line"/>
      <point x="461" y="18"/>
      <point x="430" y="37"/>
      <point x="388" y="88" type="curve" smooth="yes"/>
      <point x="235" y="282" type="line"/>
      <point x="264" y="309" type="line" smooth="yes"/>
      <point x="335" y="375"/>
      <point x="397" y="421"/>
      <point x="426" y="429" type="curve" smooth="yes"/>
      <point x="441" y="433"/>
      <point x="455" y="435"/>
      <point x="472" y="435" type="curve" smooth="yes"/>
      <point x="480" y="435" type="line"/>
      <point x="480" y="450" type="line"/>
      <point x="276" y="450" type="line"/>
      <point x="276" y="436" type="line"/>
      <point x="315" y="435"/>
      <point x="326" y="431"/>
      <point x="326" y="417" type="curve" smooth="yes"/>
      <point x="326" y="409"/>
      <point x="317" y="395"/>
      <point x="303" y="383" type="curve" smooth="yes"/>
      <point x="166" y="261" type="line"/>
      <point x="166" y="681" type="line"/>
      <point x="162" y="683" type="line"/>
      <point x="124" y="671"/>
      <point x="95" y="663"/>
      <point x="37" y="647" type="curve" smooth="yes"/>
      <point x="7" y="639" type="line"/>
    </contour>
  </outline>
</glyph>
<glyph name="l" format="1">
  <advance width="278"/>
  <unicode hex="006C"/>
  <outline>
    <contour>
      <point x="19" y="623" type="line"/>
      <point x="25" y="623" type="line"/>
      <point x="36" y="624"/>
      <point x="48" y="625"/>
      <point x="56" y="625" type="curve" smooth="yes"/>
      <point x="88" y="625"/>
      <point x="98" y="611"/>
      <point x="98" y="564" type="curve" smooth="yes"/>
      <point x="98" y="87" type="line" smooth="yes"/>
      <point x="98" y="33"/>
      <point x="84" y="20"/>
      <point x="21" y="15" type="curve"/>
      <point x="21" y="0" type="line"/>
      <point x="257" y="0" type="line"/>
      <point x="257" y="15" type="line"/>
      <point x="194" y="19"/>
      <point x="182" y="29"/>
      <point x="182" y="84" type="curve" smooth="yes"/>
      <point x="182" y="681" type="line"/>
      <point x="178" y="683" type="line"/>
      <point x="126" y="666"/>
      <point x="88" y="656"/>
      <point x="19" y="639" type="curve"/>
    </contour>
  </outline>
</glyph>
<glyph name="m" format="1">
  <advance width="778"/>
  <unicode hex="006D"/>
  <outline>
    <contour>
      <point x="19" y="398" type="line"/>
      <point x="32" y="401"/>
      <point x="40" y="402"/>
      <point x="51" y="402" type="curve" smooth="yes"/>
      <point x="77" y="402"/>
      <point x="86" y="386"/>
      <point x="86" y="338" type="curve" smooth="yes"/>
      <point x="86" y="85" type="line" smooth="yes"/>
      <point x="86" y="31"/>
      <point x="72" y="16"/>
      <point x="16" y="15" type="curve"/>
      <point x="16" y="0" type="line"/>
      <point x="238" y="0" type="line"/>
      <point x="238" y="15" type="line"/>
      <point x="185" y="17"/>
      <point x="170" y="28"/>
      <point x="170" y="67" type="curve" smooth="yes"/>
      <point x="170" y="349" type="line" smooth="yes"/>
      <point x="170" y="351"/>
      <point x="178" y="361"/>
      <point x="185" y="368" type="curve" smooth="yes"/>
      <point x="210" y="391"/>
      <point x="253" y="408"/>
      <point x="288" y="408" type="curve" smooth="yes"/>
      <point x="332" y="408"/>
      <point x="354" y="373"/>
      <point x="354" y="303" type="curve" smooth="yes"/>
      <point x="354" y="86" type="line" smooth="yes"/>
      <point x="354" y="30"/>
      <point x="343" y="19"/>
      <point x="286" y="15" type="curve"/>
      <point x="286" y="0" type="line"/>
      <point x="510" y="0" type="line"/>
      <point x="510" y="15" type="line"/>
      <point x="453" y="16"/>
      <point x="438" y="33"/>
      <point x="438" y="95" type="curve" smooth="yes"/>
      <point x="438" y="347" type="line"/>
      <point x="468" y="390"/>
      <point x="501" y="408"/>
      <point x="547" y="408" type="curve" smooth="yes"/>
      <point x="604" y="408"/>
      <point x="622" y="381"/>
      <point x="622" y="298" type="curve" smooth="yes"/>
      <point x="622" y="87" type="line" smooth="yes"/>
      <point x="622" y="30"/>
      <point x="614" y="22"/>
      <point x="556" y="15" type="curve"/>
      <point x="556" y="0" type="line"/>
      <point x="775" y="0" type="line"/>
      <point x="775" y="15" type="line"/>
      <point x="749" y="17" type="line" smooth="yes"/>
      <point x="719" y="19"/>
      <point x="706" y="37"/>
      <point x="706" y="76" type="curve" smooth="yes"/>
      <point x="706" y="282" type="line" smooth="yes"/>
      <point x="706" y="400"/>
      <point x="667" y="460"/>
      <point x="590" y="460" type="curve" smooth="yes"/>
      <point x="532" y="460"/>
      <point x="481" y="434"/>
      <point x="427" y="376" type="curve"/>
      <point x="409" y="433"/>
      <point x="375" y="460"/>
      <point x="321" y="460" type="curve" smooth="yes"/>
      <point x="277" y="460"/>
      <point x="249" y="446"/>
      <point x="166" y="383" type="curve"/>
      <point x="166" y="458" type="line"/>
      <point x="159" y="460" type="line"/>
      <point x="108" y="441"/>
      <point x="74" y="430"/>
      <point x="19" y="415" type="curve"/>
    </contour>
  </outline>
</glyph>
<glyph name="n" format="1">
  <advance width="500"/>
  <unicode hex="006E"/>
  <outline>
    <contour>
      <point x="16" y="398" type="line"/>
      <point x="22" y="401"/>
      <point x="32" y="402"/>
      <point x="43" y="402" type="curve" smooth="yes"/>
      <point x="71" y="402"/>
      <point x="80" y="387"/>
      <point x="80" y="338" type="curve" smooth="yes"/>
      <point x="80" y="90" type="line" smooth="yes"/>
      <point x="80" y="33"/>
      <point x="69" y="19"/>
      <point x="18" y="15" type="curve"/>
      <point x="18" y="0" type="line"/>
      <point x="230" y="0" type="line"/>
      <point x="230" y="15" type="line"/>
      <point x="179" y="19"/>
      <point x="164" y="31"/>
      <point x="164" y="67" type="curve" smooth="yes"/>
      <point x="164" y="348" type="line"/>
      <point x="212" y="393"/>
      <point x="234" y="405"/>
      <point x="267" y="405" type="curve" smooth="yes"/>
      <point x="316" y="405"/>
      <point x="340" y="374"/>
      <point x="340" y="308" type="curve" smooth="yes"/>
      <point x="340" y="99" type="line" smooth="yes"/>
      <point x="340" y="36"/>
      <point x="327" y="19"/>
      <point x="277" y="15" type="curve"/>
      <point x="277" y="0" type="line"/>
      <point x="485" y="0" type="line"/>
      <point x="485" y="15" type="line"/>
      <point x="436" y="20"/>
      <point x="424" y="32"/>
      <point x="424" y="81" type="curve" smooth="yes"/>
      <point x="424" y="310" type="line" smooth="yes"/>
      <point x="424" y="404"/>
      <point x="380" y="460"/>
      <point x="306" y="460" type="curve" smooth="yes"/>
      <point x="260" y="460"/>
      <point x="229" y="443"/>
      <point x="161" y="379" type="curve"/>
      <point x="161" y="458" type="line"/>
      <point x="154" y="460" type="line"/>
      <point x="105" y="442"/>
      <point x="71" y="431"/>
      <point x="16" y="415" type="curve"/>
    </contour>
  </outline>
</glyph>
<glyph name="p" format="1">
  <advance width="500"/>
  <unicode hex="0070"/>
  <outline>
    <contour>
      <point x="9" y="393" type="line"/>
      <point x="18" y="394"/>
      <point x="25" y="394"/>
      <point x="34" y="394" type="curve" smooth="yes"/>
      <point x="68" y="394"/>
      <point x="75" y="384"/>
      <point x="75" y="337" type="curve" smooth="yes"/>
      <point x="75" y="-131" type="line" smooth="yes"/>
      <point x="75" y="-183"/>
      <point x="64" y="-194"/>
      <point x="5" y="-200" type="curve"/>
      <point x="5" y="-217" type="line"/>
      <point x="247" y="-217" type="line"/>
      <point x="247" y="-199" type="line"/>
      <point x="172" y="-198"/>
      <point x="159" y="-187"/>
      <point x="159" y="-124" type="curve" smooth="yes"/>
      <point x="159" y="33" type="line"/>
      <point x="194" y="0"/>
      <point x="218" y="-10"/>
      <point x="260" y="-10" type="curve" smooth="yes"/>
      <point x="378" y="-10"/>
      <point x="470" y="102"/>
      <point x="470" y="247" type="curve" smooth="yes"/>
      <point x="470" y="371"/>
      <point x="400" y="460"/>
      <point x="303" y="460" type="curve" smooth="yes"/>
      <point x="247" y="460"/>
      <point x="203" y="435"/>
      <point x="159" y="381" type="curve"/>
      <point x="159" y="458" type="line"/>
      <point x="153" y="460" type="line"/>
      <point x="99" y="439"/>
      <point x="64" y="426"/>
      <point x="9" y="409" type="curve"/>
    </contour>
    <contour>
      <point x="159" y="334" type="line" smooth="yes"/>
      <point x="159" y="364"/>
      <point x="215" y="400"/>
      <point x="261" y="400" type="curve" smooth="yes"/>
      <point x="335" y="400"/>
      <point x="384" y="324"/>
      <point x="384" y="208" type="curve" smooth="yes"/>
      <point x="384" y="97"/>
      <point x="335" y="22"/>
      <point x="263" y="22" type="curve" smooth="yes"/>
      <point x="216" y="22"/>
      <point x="159" y="58"/>
      <point x="159" y="88" type="curve" smooth="yes"/>
    </contour>
  </outline>
</glyph>
<glyph name="q" format="1">
  <advance width="500"/>
  <unicode hex="0071"/>
  <outline>
    <contour>
      <point x="360" y="425" type="line"/>
      <point x="314" y="452"/>
      <point x="284" y="461"/>
      <point x="245" y="461" type="curve" smooth="yes"/>
      <point x="120" y="461"/>
      <point x="24" y="349"/>
      <point x="24" y="205" type="curve" smooth="yes"/>
      <point x="24" y="79"/>
      <point x="90" y="-10"/>
      <point x="184" y="-10" type="curve" smooth="yes"/>
      <point x="242" y="-10"/>
      <point x="297" y="16"/>
      <point x="341" y="64" type="curve"/>
      <point x="341" y="-124" type="line" smooth="yes"/>
      <point x="341" y="-180"/>
      <point x="323" y="-195"/>
      <point x="252" y="-200" type="curve"/>
      <point x="252" y="-217" type="line"/>
      <point x="488" y="-217" type="line"/>
      <point x="488" y="-203" type="line"/>
      <point x="433" y="-191"/>
      <point x="425" y="-183"/>
      <point x="425" y="-141" type="curve" smooth="yes"/>
      <point x="425" y="457" type="line"/>
      <point x="414" y="457" type="line"/>
    </contour>
    <contour>
      <point x="341" y="127" type="line" smooth="yes"/>
      <point x="341" y="103"/>
      <point x="337" y="90"/>
      <point x="327" y="82" type="curve" smooth="yes"/>
      <point x="305" y="63"/>
      <point x="272" y="51"/>
      <point x="241" y="51" type="curve" smooth="yes"/>
      <point x="210" y="51"/>
      <point x="183" y="61"/>
      <point x="163" y="81" type="curve" smooth="yes"/>
      <point x="131" y="110"/>
      <point x="110" y="175"/>
      <point x="110" y="241" type="curve" smooth="yes"/>
      <point x="110" y="359"/>
      <point x="163" y="433"/>
      <point x="248" y="433" type="curve" smooth="yes"/>
      <point x="310" y="433"/>
      <point x="341" y="400"/>
      <point x="341" y="333" type="curve" smooth="yes"/>
    </contour>
  </outline>
</glyph>
<glyph name="r" format="1">
  <advance width="333"/>
  <unicode hex="0072"/>
  <outline>
    <contour>
      <point x="7" y="390" type="line"/>
      <point x="21" y="393"/>
      <point x="30" y="394"/>
      <point x="42" y="394" type="curve" smooth="yes"/>
      <point x="67" y="394"/>
      <point x="76" y="378"/>
      <point x="76" y="334" type="curve" smooth="yes"/>
      <point x="76" y="84" type="line" smooth="yes"/>
      <point x="76" y="34"/>
      <point x="69" y="27"/>
      <point x="5" y="15" type="curve"/>
      <point x="5" y="0" type="line"/>
      <point x="245" y="0" type="line"/>
      <point x="245" y="15" type="line"/>
      <point x="177" y="18"/>
      <point x="160" y="33"/>
      <point x="160" y="90" type="curve" smooth="yes"/>
      <point x="160" y="315" type="line" smooth="yes"/>
      <point x="160" y="347"/>
      <point x="203" y="397"/>
      <point x="230" y="397" type="curve" smooth="yes"/>
      <point x="236" y="397"/>
      <point x="245" y="392"/>
      <point x="256" y="382" type="curve" smooth="yes"/>
      <point x="272" y="368"/>
      <point x="283" y="362"/>
      <point x="296" y="362" type="curve" smooth="yes"/>
      <point x="320" y="362"/>
      <point x="335" y="379"/>
      <point x="335" y="407" type="curve" smooth="yes"/>
      <point x="335" y="440"/>
      <point x="314" y="460"/>
      <point x="280" y="460" type="curve" smooth="yes"/>
      <point x="238" y="460"/>
      <point x="209" y="437"/>
      <point x="160" y="366" type="curve"/>
      <point x="160" y="458" type="line"/>
      <point x="155" y="460" type="line"/>
      <point x="102" y="438"/>
      <point x="66" y="425"/>
      <point x="7" y="406" type="curve"/>
    </contour>
  </outline>
</glyph>
<glyph name="s" format="1">
  <advance width="389"/>
  <unicode hex="0073"/>
  <outline>
    <contour>
      <point x="315" y="314" type="line"/>
      <point x="311" y="450" type="line"/>
      <point x="300" y="450" type="line"/>
      <point x="298" y="448" type="line"/>
      <point x="289" y="441"/>
      <point x="288" y="440"/>
      <point x="284" y="440" type="curve" smooth="yes"/>
      <point x="278" y="440"/>
      <point x="268" y="442"/>
      <point x="257" y="447" type="curve"/>
      <point x="235" y="455"/>
      <point x="213" y="459"/>
      <point x="187" y="459" type="curve" smooth="yes"/>
      <point x="108" y="459"/>
      <point x="51" y="408"/>
      <point x="51" y="336" type="curve" smooth="yes"/>
      <point x="51" y="280"/>
      <point x="83" y="240"/>
      <point x="168" y="192" type="curve" smooth="yes"/>
      <point x="226" y="159" type="line" smooth="yes"/>
      <point x="261" y="139"/>
      <point x="278" y="115"/>
      <point x="278" y="84" type="curve" smooth="yes"/>
      <point x="278" y="40"/>
      <point x="246" y="12"/>
      <point x="195" y="12" type="curve" smooth="yes"/>
      <point x="161" y="12"/>
      <point x="130" y="25"/>
      <point x="111" y="47" type="curve" smooth="yes"/>
      <point x="90" y="72"/>
      <point x="81" y="95"/>
      <point x="68" y="152" type="curve"/>
      <point x="52" y="152" type="line"/>
      <point x="52" y="-4" type="line"/>
      <point x="65" y="-4" type="line"/>
      <point x="72" y="6"/>
      <point x="76" y="8"/>
      <point x="88" y="8" type="curve" smooth="yes"/>
      <point x="97" y="8"/>
      <point x="111" y="6"/>
      <point x="134" y="0" type="curve" smooth="yes"/>
      <point x="162" y="-6"/>
      <point x="189" y="-10"/>
      <point x="207" y="-10" type="curve" smooth="yes"/>
      <point x="284" y="-10"/>
      <point x="348" y="48"/>
      <point x="348" y="118" type="curve" smooth="yes"/>
      <point x="348" y="168"/>
      <point x="324" y="201"/>
      <point x="264" y="237" type="curve" smooth="yes"/>
      <point x="156" y="301" type="line" smooth="yes"/>
      <point x="128" y="317"/>
      <point x="113" y="342"/>
      <point x="113" y="369" type="curve" smooth="yes"/>
      <point x="113" y="409"/>
      <point x="144" y="437"/>
      <point x="190" y="437" type="curve" smooth="yes"/>
      <point x="247" y="437"/>
      <point x="277" y="403"/>
      <point x="300" y="314" type="curve"/>
    </contour>
  </outline>
</glyph>
<glyph name="v" format="1">
  <advance width="500"/>
  <unicode hex="0076"/>
  <outline>
    <contour>
      <point x="477" y="450" type="line"/>
      <point x="338" y="450" type="line"/>
      <point x="338" y="435" type="line"/>
      <point x="370" y="432"/>
      <point x="385" y="422"/>
      <point x="385" y="403" type="curve" smooth="yes"/>
      <point x="385" y="393"/>
      <point x="383" y="383"/>
      <point x="379" y="373" type="curve" smooth="yes"/>
      <point x="280" y="114" type="line"/>
      <point x="178" y="370" type="line" smooth="yes"/>
      <point x="172" y="384"/>
      <point x="169" y="398"/>
      <point x="169" y="407" type="curve" smooth="yes"/>
      <point x="169" y="425"/>
      <point x="180" y="432"/>
      <point x="215" y="435" type="curve"/>
      <point x="215" y="450" type="line"/>
      <point x="19" y="450" type="line"/>
      <point x="19" y="435" type="line"/>
      <point x="57" y="433"/>
      <point x="64" y="423"/>
      <point x="110" y="320" type="curve" smooth="yes"/>
      <point x="230" y="33" type="line"/>
      <point x="232" y="27"/>
      <point x="235" y="20"/>
      <point x="238" y="12" type="curve" smooth="yes"/>
      <point x="244" y="-6"/>
      <point x="250" y="-14"/>
      <point x="256" y="-14" type="curve" smooth="yes"/>
      <point x="262" y="-14"/>
      <point x="269" y="-1"/>
      <point x="284" y="36" type="curve" smooth="yes"/>
      <point x="412" y="357" type="line" smooth="yes"/>
      <point x="441" y="425"/>
      <point x="447" y="432"/>
      <point x="477" y="435" type="curve"/>
    </contour>
  </outline>
</glyph>
<glyph name="w" format="1">
  <advance width="722"/>
  <unicode hex="0077"/>
  <outline>
    <contour>
      <point x="571" y="450" type="line"/>
      <point x="571" y="435" type="line"/>
      <point x="605" y="428"/>
      <point x="615" y="421"/>
      <point x="615" y="404" type="curve" smooth="yes"/>
      <point x="615" y="389"/>
      <point x="609" y="365"/>
      <point x="598" y="338" type="curve" smooth="yes"/>
      <point x="508" y="116" type="line"/>
      <point x="424" y="340" type="line" smooth="yes"/>
      <point x="407" y="386"/>
      <point x="407" y="386"/>
      <point x="407" y="399" type="curve" smooth="yes"/>
      <point x="407" y="421"/>
      <point x="418" y="428"/>
      <point x="465" y="435" type="curve"/>
      <point x="465" y="450" type="line"/>
      <point x="262" y="450" type="line"/>
      <point x="262" y="435" type="line"/>
      <point x="299" y="431"/>
      <point x="311" y="420"/>
      <point x="331" y="366" type="curve" smooth="yes"/>
      <point x="338" y="347"/>
      <point x="345" y="328"/>
      <point x="351" y="310" type="curve"/>
      <point x="260" y="111" type="line"/>
      <point x="161" y="372" type="line" smooth="yes"/>
      <point x="157" y="382"/>
      <point x="155" y="392"/>
      <point x="155" y="402" type="curve" smooth="yes"/>
      <point x="155" y="423"/>
      <point x="167" y="431"/>
      <point x="201" y="435" type="curve"/>
      <point x="201" y="450" type="line"/>
      <point x="21" y="450" type="line"/>
      <point x="21" y="435" type="line"/>
      <point x="44" y="433"/>
      <point x="52" y="423"/>
      <point x="74" y="372" type="curve" smooth="yes"/>
      <point x="209" y="30" type="line" smooth="yes"/>
      <point x="221" y="0"/>
      <point x="229" y="-14"/>
      <point x="235" y="-14" type="curve" smooth="yes"/>
      <point x="240" y="-14"/>
      <point x="248" y="-1"/>
      <point x="260" y="25" type="curve" smooth="yes"/>
      <point x="372" y="265" type="line"/>
      <point x="463" y="29" type="line" smooth="yes"/>
      <point x="477" y="-8"/>
      <point x="481" y="-14"/>
      <point x="487" y="-14" type="curve" smooth="yes"/>
      <point x="494" y="-14"/>
      <point x="499" y="-5"/>
      <point x="515" y="35" type="curve" smooth="yes"/>
      <point x="653" y="381" type="line" smooth="yes"/>
      <point x="671" y="423"/>
      <point x="674" y="428"/>
      <point x="694" y="435" type="curve"/>
      <point x="694" y="450" type="line"/>
    </contour>
  </outline>
</glyph>
<glyph name="bar" format="1">
  <advance width="200"/>
  <unicode hex="007C"/>
  <outline>
    <contour>
      <point x="67" y="-14" type="line"/>
      <point x="133" y="-14" type="line"/>
      <point x="133" y="676" type="line"/>
      <point x="67" y="676" type="line"/>
    </contour>
  </outline>
</glyph>
<glyph name="exclamdown" format="1">
  <advance width="333"/>
  <unicode hex="00A1"/>
  <outline>
    <contour>
      <point x="144" y="282" type="line"/>
      <point x="99" y="-101" type="line" smooth="yes"/>
      <point x="98" y="-113"/>
      <point x="97" y="-126"/>
      <point x="97" y="-138" type="curve" smooth="yes"/>
      <point x="97" y="-190"/>
      <point x="116" y="-218"/>
      <point x="150" y="-218" type="curve" smooth="yes"/>
      <point x="183" y="-218"/>
      <point x="203" y="-188"/>
      <point x="203" y="-140" type="curve" smooth="yes"/>
      <point x="203" y="-106"/>
      <point x="195" y="-35"/>
      <point x="183" y="36" type="curve" smooth="yes"/>
      <point x="176" y="81"/>
      <point x="170" y="127"/>
      <point x="166" y="174" type="curve" smooth="yes"/>
      <point x="157" y="282" type="line"/>
    </contour>
    <contour>
      <point x="151" y="469" type="curve" smooth="yes"/>
      <point x="119" y="469"/>
      <point x="97" y="448"/>
      <point x="97" y="418" type="curve" smooth="yes"/>
      <point x="97" y="386"/>
      <point x="120" y="362"/>
      <point x="150" y="362" type="curve" smooth="yes"/>
      <point x="180" y="362"/>
      <point x="204" y="387"/>
      <point x="204" y="417" type="curve" smooth="yes"/>
      <point x="204" y="446"/>
      <point x="180" y="469"/>
    </contour>
  </outline>
</glyph>
<glyph name="brokenbar" format="1">
  <advance width="200"/>
  <unicode hex="00A6"/>
  <outline>
    <contour>
      <point x="67" y="-14" type="line"/>
      <point x="133" y="-14" type="line"/>
      <point x="133" y="262" type="line"/>
      <point x="67" y="262" type="line"/>
    </contour>
    <contour>
      <point x="67" y="400" type="line"/>
      <point x="133" y="400" type="line"/>
      <point x="133" y="676" type="line"/>
      <point x="67" y="676" type="line"/>
    </contour>
  </outline>
</glyph>
<glyph name="dieresis" format="1">
  <advance width="333"/>
  <unicode hex="00A8"/>
  <outline>
    <contour>
      <point x="66" y="622" type="curve" smooth="yes"/>
      <point x="41" y="622"/>
      <point x="18" y="599"/>
      <point x="18" y="573" type="curve" smooth="yes"/>
      <point x="18" y="545"/>
      <point x="39" y="523"/>
      <point x="66" y="523" type="curve" smooth="yes"/>
      <point x="94" y="523"/>
      <point x="117" y="545"/>
      <point x="117" y="572" type="curve" smooth="yes"/>
      <point x="117" y="599"/>
      <point x="94" y="622"/>
    </contour>
    <contour>
      <point x="265" y="622" type="curve" smooth="yes"/>
      <point x="240" y="622"/>
      <point x="217" y="599"/>
      <point x="217" y="573" type="curve" smooth="yes"/>
      <point x="217" y="545"/>
      <point x="238" y="523"/>
      <point x="265" y="523" type="curve" smooth="yes"/>
      <point x="293" y="523"/>
      <point x="316" y="545"/>
      <point x="316" y="572" type="curve" smooth="yes"/>
      <point x="316" y="599"/>
      <point x="293" y="622"/>
    </contour>
  </outline>
</glyph>
<glyph name="copyright" format="1">
  <advance width="760"/>
  <unicode hex="00A9"/>
  <outline>
    <contour>
      <point x="531" y="247" type="line"/>
      <point x="501" y="185"/>
      <point x="467" y="161"/>
      <point x="407" y="161" type="curve" smooth="yes"/>
      <point x="319" y="161"/>
      <point x="267" y="226"/>
      <point x="267" y="337" type="curve" smooth="yes"/>
      <point x="267" y="449"/>
      <point x="317" y="512"/>
      <point x="406" y="512" type="curve" smooth="yes"/>
      <point x="469" y="512"/>
      <point x="505" y="482"/>
      <point x="514" y="423" type="curve"/>
      <point x="531" y="423" type="line"/>
      <point x="531" y="493" type="line" smooth="yes"/>
      <point x="531" y="500"/>
      <point x="526" y="507"/>
      <point x="517" y="510" type="curve"/>
      <point x="483" y="524"/>
      <point x="444" y="532"/>
      <point x="411" y="532" type="curve" smooth="yes"/>
      <point x="279" y="532"/>
      <point x="190" y="451"/>
      <point x="190" y="331" type="curve" smooth="yes"/>
      <point x="190" y="217"/>
      <point x="271" y="141"/>
      <point x="392" y="141" type="curve" smooth="yes"/>
      <point x="449" y="141"/>
      <point x="527" y="158"/>
      <point x="530" y="171" type="curve" smooth="yes"/>
      <point x="547" y="247" type="line"/>
    </contour>
    <contour>
      <point x="386" y="676" type="curve" smooth="yes"/>
      <point x="190" y="676"/>
      <point x="38" y="525"/>
      <point x="38" y="330" type="curve" smooth="yes"/>
      <point x="38" y="138"/>
      <point x="190" y="-14"/>
      <point x="381" y="-14" type="curve" smooth="yes"/>
      <point x="572" y="-14"/>
      <point x="722" y="138"/>
      <point x="722" y="330" type="curve" smooth="yes"/>
      <point x="722" y="521"/>
      <point x="571" y="676"/>
    </contour>
    <contour>
      <point x="385" y="634" type="curve" smooth="yes"/>
      <point x="537" y="634"/>
      <point x="667" y="494"/>
      <point x="667" y="331" type="curve" smooth="yes"/>
      <point x="667" y="166"/>
      <point x="537" y="28"/>
      <point x="381" y="28" type="curve" smooth="yes"/>
      <point x="224" y="28"/>
      <point x="93" y="166"/>
      <point x="93" y="330" type="curve" smooth="yes"/>
      <point x="93" y="498"/>
      <point x="224" y="634"/>
    </contour>
  </outline>
</glyph>
<glyph name="guillemotleft" format="1">
  <advance width="500"/>
  <unicode hex="00AB"/>
  <outline>
    <contour>
      <point x="42" y="222" type="line"/>
      <point x="73" y="195" type="line" smooth="yes"/>
      <point x="145" y="133"/>
      <point x="186" y="95"/>
      <point x="243" y="39" type="curve"/>
      <point x="247" y="34"/>
      <point x="249" y="33"/>
      <point x="254" y="33" type="curve" smooth="yes"/>
      <point x="259" y="33"/>
      <point x="263" y="37"/>
      <point x="263" y="42" type="curve" smooth="yes"/>
      <point x="263" y="55"/>
      <point x="222" y="114"/>
      <point x="145" y="211" type="curve" smooth="yes"/>
      <point x="142" y="215"/>
      <point x="141" y="215"/>
      <point x="135" y="224" type="curve"/>
      <point x="158" y="255"/>
      <point x="173" y="273"/>
      <point x="210" y="317" type="curve" smooth="yes"/>
      <point x="239" y="353"/>
      <point x="264" y="393"/>
      <point x="264" y="406" type="curve" smooth="yes"/>
      <point x="264" y="411"/>
      <point x="259" y="416"/>
      <point x="254" y="416" type="curve" smooth="yes"/>
      <point x="248" y="416"/>
      <point x="227" y="398"/>
      <point x="210" y="377" type="curve"/>
      <point x="206" y="371"/>
      <point x="179" y="344"/>
      <point x="150" y="318" type="curve"/>
      <point x="141" y="311"/>
      <point x="134" y="304"/>
      <point x="126" y="297" type="curve"/>
      <point x="123" y="295" type="line"/>
      <point x="118" y="290"/>
      <point x="113" y="285"/>
      <point x="107" y="281" type="curve"/>
    </contour>
    <contour>
      <point x="234" y="222" type="line"/>
      <point x="265" y="195" type="line" smooth="yes"/>
      <point x="337" y="133"/>
      <point x="378" y="95"/>
      <point x="435" y="39" type="curve"/>
      <point x="439" y="34"/>
      <point x="441" y="33"/>
      <point x="446" y="33" type="curve" smooth="yes"/>
      <point x="451" y="33"/>
      <point x="455" y="37"/>
      <point x="455" y="42" type="curve" smooth="yes"/>
      <point x="455" y="55"/>
      <point x="414" y="114"/>
      <point x="337" y="211" type="curve" smooth="yes"/>
      <point x="334" y="215"/>
      <point x="333" y="215"/>
      <point x="327" y="224" type="curve"/>
      <point x="350" y="255"/>
      <point x="365" y="273"/>
      <point x="402" y="317" type="curve" smooth="yes"/>
      <point x="431" y="353"/>
      <point x="456" y="393"/>
      <point x="456" y="406" type="curve" smooth="yes"/>
      <point x="456" y="411"/>
      <point x="451" y="416"/>
      <point x="446" y="416" type="curve" smooth="yes"/>
      <point x="440" y="416"/>
      <point x="419" y="398"/>
      <point x="402" y="377" type="curve"/>
      <point x="398" y="371"/>
      <point x="371" y="344"/>
      <point x="342" y="318" type="curve"/>
      <point x="333" y="311"/>
      <point x="326" y="304"/>
      <point x="318" y="297" type="curve"/>
      <point x="315" y="295" type="line"/>
      <point x="310" y="290"/>
      <point x="305" y="285"/>
      <point x="299" y="281" type="curve"/>
    </contour>
  </outline>
</glyph>
<glyph name="logicalnot" format="1">
  <advance width="564"/>
  <unicode hex="00AC"/>
  <outline>
    <contour>
      <point x="468" y="108" type="line"/>
      <point x="534" y="108" type="line"/>
      <point x="534" y="386" type="line"/>
      <point x="30" y="386" type="line"/>
      <point x="30" y="320" type="line"/>
      <point x="468" y="320" type="line"/>
    </contour>
  </outline>
</glyph>
<glyph name="macron" format="1">
  <advance width="333"/>
  <unicode hex="00AF"/>
  <outline>
    <contour>
      <point x="11" y="601" type="line"/>
      <point x="11" y="547" type="line"/>
      <point x="322" y="547" type="line"/>
      <point x="322" y="601" type="line"/>
    </contour>
  </outline>
</glyph>
<glyph name="degree" format="1">
  <advance width="400"/>
  <unicode hex="00B0"/>
  <outline>
    <contour>
      <point x="200" y="676" type="curve" smooth="yes"/>
      <point x="120" y="676"/>
      <point x="57" y="613"/>
      <point x="57" y="533" type="curve" smooth="yes"/>
      <point x="57" y="454"/>
      <point x="120" y="390"/>
      <point x="198" y="390" type="curve" smooth="yes"/>
      <point x="279" y="390"/>
      <point x="343" y="452"/>
      <point x="343" y="532" type="curve" smooth="yes"/>
      <point x="343" y="613"/>
      <point x="280" y="676"/>
    </contour>
    <contour>
      <point x="200" y="642" type="curve" smooth="yes"/>
      <point x="256" y="642"/>
      <point x="304" y="592"/>
      <point x="304" y="533" type="curve" smooth="yes"/>
      <point x="304" y="473"/>
      <point x="257" y="424"/>
      <point x="199" y="424" type="curve" smooth="yes"/>
      <point x="143" y="424"/>
      <point x="96" y="474"/>
      <point x="96" y="533" type="curve" smooth="yes"/>
      <point x="96" y="592"/>
      <point x="143" y="642"/>
    </contour>
  </outline>
</glyph>
<glyph name="plusminus" format="1">
  <advance width="564"/>
  <unicode hex="00B1"/>
  <outline>
    <contour>
      <point x="30" y="0" type="line"/>
      <point x="534" y="0" type="line"/>
      <point x="534" y="66" type="line"/>
      <point x="30" y="66" type="line"/>
    </contour>
    <contour>
      <point x="249" y="348" type="line"/>
      <point x="30" y="348" type="line"/>
      <point x="30" y="282" type="line"/>
      <point x="249" y="282" type="line"/>
      <point x="249" y="122" type="line"/>
      <point x="315" y="122" type="line"/>
      <point x="315" y="282" type="line"/>
      <point x="534" y="282" type="line"/>
      <point x="534" y="348" type="line"/>
      <point x="315" y="348" type="line"/>
      <point x="315" y="568" type="line"/>
      <point x="249" y="568" type="line"/>
    </contour>
  </outline>
</glyph>
<glyph name="paragraph" format="1">
  <advance width="453"/>
  <unicode hex="00B6"/>
  <outline>
    <contour>
      <point x="238" y="640" type="line"/>
      <point x="296" y="640" type="line"/>
      <point x="296" y="-154" type="line"/>
      <point x="450" y="-154" type="line"/>
      <point x="450" y="-132" type="line"/>
      <point x="374" y="-126"/>
      <point x="362" y="-113"/>
      <point x="362" y="-42" type="curve" smooth="yes"/>
      <point x="362" y="553" type="line" smooth="yes"/>
      <point x="362" y="625"/>
      <point x="373" y="636"/>
      <point x="450" y="643" type="curve"/>
      <point x="450" y="662" type="line"/>
      <point x="187" y="662" type="line" smooth="yes"/>
      <point x="40" y="662"/>
      <point x="-22" y="607"/>
      <point x="-22" y="477" type="curve" smooth="yes"/>
      <point x="-22" y="396"/>
      <point x="1" y="339"/>
      <point x="48" y="307" type="curve" smooth="yes"/>
      <point x="81" y="283"/>
      <point x="109" y="275"/>
      <point x="172" y="273" type="curve"/>
      <point x="172" y="-31" type="line" smooth="yes"/>
      <point x="172" y="-115"/>
      <point x="162" y="-127"/>
      <point x="84" y="-132" type="curve"/>
      <point x="84" y="-154" type="line"/>
      <point x="238" y="-154" type="line"/>
    </contour>
    <contour>
      <point x="172" y="295" type="line"/>
      <point x="86" y="304"/>
      <point x="54" y="355"/>
      <point x="54" y="481" type="curve" smooth="yes"/>
      <point x="54" y="552"/>
      <point x="68" y="597"/>
      <point x="97" y="618" type="curve" smooth="yes"/>
      <point x="115" y="631"/>
      <point x="132" y="637"/>
      <point x="172" y="640" type="curve"/>
    </contour>
  </outline>
</glyph>
<glyph name="cedilla" format="1">
  <advance width="333"/>
  <unicode hex="00B8"/>
  <outline>
    <contour>
      <point x="98" y="-99" type="line"/>
      <point x="105" y="-104" type="line"/>
      <point x="113" y="-101"/>
      <point x="122" y="-100"/>
      <point x="133" y="-100" type="curve" smooth="yes"/>
      <point x="171" y="-100"/>
      <point x="186" y="-110"/>
      <point x="186" y="-136" type="curve" smooth="yes"/>
      <point x="186" y="-163"/>
      <point x="165" y="-180"/>
      <point x="131" y="-180" type="curve" smooth="yes"/>
      <point x="110" y="-180"/>
      <point x="94" y="-177"/>
      <point x="66" y="-168" type="curve"/>
      <point x="52" y="-199" type="line"/>
      <point x="81" y="-211"/>
      <point x="104" y="-215"/>
      <point x="136" y="-215" type="curve" smooth="yes"/>
      <point x="213" y="-215"/>
      <point x="261" y="-183"/>
      <point x="261" y="-131" type="curve" smooth="yes"/>
      <point x="261" y="-88"/>
      <point x="229" y="-62"/>
      <point x="175" y="-62" type="curve" smooth="yes"/>
      <point x="165" y="-62"/>
      <point x="159" y="-63"/>
      <point x="149" y="-65" type="curve"/>
      <point x="174" y="0" type="line"/>
      <point x="139" y="0" type="line"/>
    </contour>
  </outline>
</glyph>
<glyph name="ordmasculine" format="1">
  <advance width="310"/>
  <unicode hex="00BA"/>
  <outline>
    <contour>
      <point x="159" y="676" type="curve" smooth="yes"/>
      <point x="68" y="676"/>
      <point x="6" y="618"/>
      <point x="6" y="533" type="curve" smooth="yes"/>
      <point x="6" y="453"/>
      <point x="67" y="394"/>
      <point x="151" y="394" type="curve" smooth="yes"/>
      <point x="238" y="394"/>
      <point x="304" y="458"/>
      <point x="304" y="542" type="curve" smooth="yes"/>
      <point x="304" y="621"/>
      <point x="244" y="676"/>
    </contour>
    <contour>
      <point x="150" y="643" type="curve" smooth="yes"/>
      <point x="198" y="643"/>
      <point x="231" y="589"/>
      <point x="231" y="514" type="curve" smooth="yes"/>
      <point x="231" y="458"/>
      <point x="206" y="427"/>
      <point x="160" y="427" type="curve" smooth="yes"/>
      <point x="135" y="427"/>
      <point x="116" y="439"/>
      <point x="104" y="461" type="curve" smooth="yes"/>
      <point x="88" y="490"/>
      <point x="79" y="530"/>
      <point x="79" y="569" type="curve" smooth="yes"/>
      <point x="79" y="614"/>
      <point x="107" y="643"/>
    </contour>
  </outline>
</glyph>
<glyph name="guillemotright" format="1">
  <advance width="500"/>
  <unicode hex="00BB"/>
  <outline>
    <contour>
      <point x="458" y="222" type="line"/>
      <point x="393" y="281" type="line"/>
      <point x="387" y="285"/>
      <point x="382" y="290"/>
      <point x="377" y="295" type="curve"/>
      <point x="374" y="297" type="line"/>
      <point x="368" y="302"/>
      <point x="360" y="309"/>
      <point x="351" y="318" type="curve"/>
      <point x="321" y="344"/>
      <point x="292" y="372"/>
      <point x="290" y="377" type="curve"/>
      <point x="273" y="398"/>
      <point x="252" y="416"/>
      <point x="246" y="416" type="curve" smooth="yes"/>
      <point x="241" y="416"/>
      <point x="236" y="411"/>
      <point x="236" y="406" type="curve" smooth="yes"/>
      <point x="236" y="393"/>
      <point x="261" y="352"/>
      <point x="290" y="317" type="curve" smooth="yes"/>
      <point x="365" y="224" type="line"/>
      <point x="361" y="218" type="line"/>
      <point x="355" y="211" type="line" smooth="yes"/>
      <point x="280" y="116"/>
      <point x="237" y="54"/>
      <point x="237" y="42" type="curve" smooth="yes"/>
      <point x="237" y="37"/>
      <point x="241" y="33"/>
      <point x="247" y="33" type="curve" smooth="yes"/>
      <point x="251" y="33"/>
      <point x="253" y="34"/>
      <point x="257" y="39" type="curve"/>
      <point x="314" y="95"/>
      <point x="354" y="132"/>
      <point x="427" y="195" type="curve" smooth="yes"/>
    </contour>
    <contour>
      <point x="266" y="222" type="line"/>
      <point x="201" y="281" type="line"/>
      <point x="195" y="285"/>
      <point x="190" y="290"/>
      <point x="185" y="295" type="curve"/>
      <point x="182" y="297" type="line"/>
      <point x="176" y="302"/>
      <point x="168" y="309"/>
      <point x="159" y="318" type="curve"/>
      <point x="129" y="344"/>
      <point x="100" y="372"/>
      <point x="98" y="377" type="curve"/>
      <point x="81" y="398"/>
      <point x="60" y="416"/>
      <point x="54" y="416" type="curve" smooth="yes"/>
      <point x="49" y="416"/>
      <point x="44" y="411"/>
      <point x="44" y="406" type="curve" smooth="yes"/>
      <point x="44" y="393"/>
      <point x="69" y="352"/>
      <point x="98" y="317" type="curve" smooth="yes"/>
      <point x="173" y="224" type="line"/>
      <point x="169" y="218" type="line"/>
      <point x="163" y="211" type="line" smooth="yes"/>
      <point x="88" y="116"/>
      <point x="45" y="54"/>
      <point x="45" y="42" type="curve" smooth="yes"/>
      <point x="45" y="37"/>
      <point x="49" y="33"/>
      <point x="55" y="33" type="curve" smooth="yes"/>
      <point x="59" y="33"/>
      <point x="61" y="34"/>
      <point x="65" y="39" type="curve"/>
      <point x="122" y="95"/>
      <point x="162" y="132"/>
      <point x="235" y="195" type="curve" smooth="yes"/>
    </contour>
  </outline>
</glyph>
<glyph name="onequarter" format="1">
  <advance width="750"/>
  <unicode hex="00BC"/>
  <outline>
    <contour>
      <point x="718" y="147" type="line"/>
      <point x="663" y="147" type="line"/>
      <point x="663" y="405" type="line"/>
      <point x="616" y="405" type="line"/>
      <point x="413" y="139" type="line"/>
      <point x="413" y="90" type="line"/>
      <point x="593" y="90" type="line"/>
      <point x="593" y="0" type="line"/>
      <point x="663" y="0" type="line"/>
      <point x="663" y="90" type="line"/>
      <point x="718" y="90" type="line"/>
    </contour>
    <contour>
      <point x="593" y="147" type="line"/>
      <point x="458" y="147" type="line"/>
      <point x="593" y="326" type="line"/>
    </contour>
    <contour>
      <point x="637" y="676" type="line"/>
      <point x="591" y="676" type="line"/>
      <point x="138" y="-14" type="line"/>
      <point x="187" y="-14" type="line"/>
    </contour>
    <contour>
      <point x="228" y="294" type="line"/>
      <point x="182" y="297"/>
      <point x="171" y="304"/>
      <point x="171" y="330" type="curve" smooth="yes"/>
      <point x="171" y="673" type="line"/>
      <point x="157" y="676" type="line"/>
      <point x="39" y="621" type="line"/>
      <point x="39" y="598" type="line"/>
      <point x="76" y="611"/>
      <point x="76" y="611"/>
      <point x="82" y="611" type="curve" smooth="yes"/>
      <point x="88" y="611"/>
      <point x="90" y="605"/>
      <point x="90" y="583" type="curve" smooth="yes"/>
      <point x="90" y="326" type="line" smooth="yes"/>
      <point x="90" y="303"/>
      <point x="80" y="297"/>
      <point x="37" y="294" type="curve"/>
      <point x="37" y="270" type="line"/>
      <point x="228" y="270" type="line"/>
    </contour>
  </outline>
</glyph>
<glyph name="onehalf" format="1">
  <advance width="750"/>
  <unicode hex="00BD"/>
  <outline>
    <contour>
      <point x="600" y="676" type="line"/>
      <point x="554" y="676" type="line"/>
      <point x="101" y="-14" type="line"/>
      <point x="150" y="-14" type="line"/>
    </contour>
    <contour>
      <point x="222" y="294" type="line"/>
      <point x="176" y="297"/>
      <point x="165" y="304"/>
      <point x="165" y="330" type="curve" smooth="yes"/>
      <point x="165" y="673" type="line"/>
      <point x="151" y="676" type="line"/>
      <point x="33" y="621" type="line"/>
      <point x="33" y="598" type="line"/>
      <point x="70" y="611"/>
      <point x="70" y="611"/>
      <point x="76" y="611" type="curve" smooth="yes"/>
      <point x="82" y="611"/>
      <point x="84" y="605"/>
      <point x="84" y="583" type="curve" smooth="yes"/>
      <point x="84" y="326" type="line" smooth="yes"/>
      <point x="84" y="303"/>
      <point x="74" y="297"/>
      <point x="31" y="294" type="curve"/>
      <point x="31" y="270" type="line"/>
      <point x="222" y="270" type="line"/>
    </contour>
    <contour>
      <point x="746" y="85" type="line"/>
      <point x="729" y="92" type="line"/>
      <point x="714" y="70"/>
      <point x="705" y="65"/>
      <point x="678" y="65" type="curve" smooth="yes"/>
      <point x="557" y="65" type="line"/>
      <point x="643" y="150" type="line" smooth="yes"/>
      <point x="704" y="210"/>
      <point x="727" y="251"/>
      <point x="727" y="300" type="curve" smooth="yes"/>
      <point x="727" y="363"/>
      <point x="674" y="406"/>
      <point x="596" y="406" type="curve" smooth="yes"/>
      <point x="556" y="406"/>
      <point x="521" y="394"/>
      <point x="498" y="371" type="curve" smooth="yes"/>
      <point x="477" y="352"/>
      <point x="467" y="333"/>
      <point x="451" y="287" type="curve"/>
      <point x="476" y="273" type="line"/>
      <point x="498" y="321"/>
      <point x="525" y="343"/>
      <point x="562" y="343" type="curve" smooth="yes"/>
      <point x="602" y="343"/>
      <point x="635" y="309"/>
      <point x="635" y="267" type="curve" smooth="yes"/>
      <point x="635" y="237"/>
      <point x="604" y="184"/>
      <point x="554" y="130" type="curve" smooth="yes"/>
      <point x="456" y="23" type="line"/>
      <point x="456" y="0" type="line"/>
      <point x="709" y="0" type="line"/>
    </contour>
  </outline>
</glyph>
<glyph name="threequarters" format="1">
  <advance width="750"/>
  <unicode hex="00BE"/>
  <outline>
    <contour>
      <point x="718" y="147" type="line"/>
      <point x="663" y="147" type="line"/>
      <point x="663" y="405" type="line"/>
      <point x="616" y="405" type="line"/>
      <point x="413" y="139" type="line"/>
      <point x="413" y="90" type="line"/>
      <point x="593" y="90" type="line"/>
      <point x="593" y="0" type="line"/>
      <point x="663" y="0" type="line"/>
      <point x="663" y="90" type="line"/>
      <point x="718" y="90" type="line"/>
    </contour>
    <contour>
      <point x="593" y="147" type="line"/>
      <point x="458" y="147" type="line"/>
      <point x="593" y="326" type="line"/>
    </contour>
    <contour>
      <point x="637" y="676" type="line"/>
      <point x="591" y="676" type="line"/>
      <point x="138" y="-14" type="line"/>
      <point x="187" y="-14" type="line"/>
    </contour>
    <contour>
      <point x="94" y="460" type="line"/>
      <point x="117" y="463" type="line" smooth="yes"/>
      <point x="129" y="465"/>
      <point x="154" y="458"/>
      <point x="170" y="449" type="curve" smooth="yes"/>
      <point x="197" y="434"/>
      <point x="211" y="409"/>
      <point x="211" y="378" type="curve" smooth="yes"/>
      <point x="211" y="337"/>
      <point x="184" y="310"/>
      <point x="143" y="310" type="curve" smooth="yes"/>
      <point x="124" y="310"/>
      <point x="113" y="314"/>
      <point x="91" y="330" type="curve" smooth="yes"/>
      <point x="73" y="344"/>
      <point x="61" y="349"/>
      <point x="50" y="349" type="curve" smooth="yes"/>
      <point x="30" y="349"/>
      <point x="15" y="333"/>
      <point x="15" y="312" type="curve" smooth="yes"/>
      <point x="15" y="280"/>
      <point x="46" y="262"/>
      <point x="98" y="262" type="curve" smooth="yes"/>
      <point x="209" y="262"/>
      <point x="292" y="320"/>
      <point x="292" y="398" type="curve" smooth="yes"/>
      <point x="292" y="450"/>
      <point x="263" y="488"/>
      <point x="205" y="511" type="curve"/>
      <point x="249" y="542"/>
      <point x="266" y="565"/>
      <point x="266" y="593" type="curve" smooth="yes"/>
      <point x="266" y="639"/>
      <point x="218" y="676"/>
      <point x="158" y="676" type="curve" smooth="yes"/>
      <point x="96" y="676"/>
      <point x="57" y="649"/>
      <point x="21" y="581" type="curve"/>
      <point x="46" y="563" type="line"/>
      <point x="78" y="607"/>
      <point x="97" y="620"/>
      <point x="134" y="620" type="curve" smooth="yes"/>
      <point x="168" y="620"/>
      <point x="190" y="601"/>
      <point x="190" y="571" type="curve" smooth="yes"/>
      <point x="190" y="535"/>
      <point x="164" y="513"/>
      <point x="94" y="489" type="curve"/>
    </contour>
  </outline>
</glyph>
<glyph name="questiondown" format="1">
  <advance width="444"/>
  <unicode hex="00BF"/>
  <outline>
    <contour>
      <point x="200" y="294" type="line"/>
      <point x="186" y="213"/>
      <point x="168" y="178"/>
      <point x="105" y="104" type="curve" smooth="yes"/>
      <point x="54" y="42"/>
      <point x="30" y="-12"/>
      <point x="30" y="-63" type="curve" smooth="yes"/>
      <point x="30" y="-101"/>
      <point x="43" y="-137"/>
      <point x="66" y="-160" type="curve" smooth="yes"/>
      <point x="101" y="-195"/>
      <point x="160" y="-218"/>
      <point x="214" y="-218" type="curve" smooth="yes"/>
      <point x="306" y="-218"/>
      <point x="376" y="-156"/>
      <point x="376" y="-73" type="curve" smooth="yes"/>
      <point x="376" y="-33"/>
      <point x="359" y="-11"/>
      <point x="328" y="-11" type="curve" smooth="yes"/>
      <point x="303" y="-11"/>
      <point x="287" y="-28"/>
      <point x="287" y="-52" type="curve" smooth="yes"/>
      <point x="287" y="-66"/>
      <point x="293" y="-78"/>
      <point x="308" y="-95" type="curve" smooth="yes"/>
      <point x="320" y="-109"/>
      <point x="325" y="-118"/>
      <point x="325" y="-126" type="curve" smooth="yes"/>
      <point x="325" y="-158"/>
      <point x="278" y="-188"/>
      <point x="230" y="-188" type="curve" smooth="yes"/>
      <point x="170" y="-188"/>
      <point x="122" y="-135"/>
      <point x="122" y="-68" type="curve" smooth="yes"/>
      <point x="122" y="-22"/>
      <point x="135" y="33"/>
      <point x="159" y="88" type="curve" smooth="yes"/>
      <point x="187" y="152" type="line" smooth="yes"/>
      <point x="206" y="200"/>
      <point x="216" y="250"/>
      <point x="217" y="294" type="curve"/>
    </contour>
    <contour>
      <point x="208" y="468" type="curve" smooth="yes"/>
      <point x="176" y="468"/>
      <point x="154" y="447"/>
      <point x="154" y="417" type="curve" smooth="yes"/>
      <point x="154" y="385"/>
      <point x="177" y="361"/>
      <point x="207" y="361" type="curve" smooth="yes"/>
      <point x="236" y="361"/>
      <point x="261" y="386"/>
      <point x="261" y="416" type="curve" smooth="yes"/>
      <point x="261" y="445"/>
      <point x="237" y="468"/>
    </contour>
  </outline>
</glyph>
<glyph name="Agrave" format="1">
  <advance width="722"/>
  <unicode hex="00C0"/>
  <outline>
    <contour>
      <point x="706" y="19" type="line"/>
      <point x="661" y="22"/>
      <point x="651" y="32"/>
      <point x="616" y="106" type="curve" smooth="yes"/>
      <point x="367" y="674" type="line"/>
      <point x="347" y="674" type="line"/>
      <point x="139" y="183" type="line" smooth="yes"/>
      <point x="75" y="37"/>
      <point x="63" y="21"/>
      <point x="15" y="19" type="curve"/>
      <point x="15" y="0" type="line"/>
      <point x="213" y="0" type="line"/>
      <point x="213" y="19" type="line"/>
      <point x="165" y="19"/>
      <point x="145" y="32"/>
      <point x="145" y="60" type="curve" smooth="yes"/>
      <point x="145" y="72"/>
      <point x="148" y="86"/>
      <point x="153" y="99" type="curve" smooth="yes"/>
      <point x="199" y="216" type="line"/>
      <point x="461" y="216" type="line"/>
      <point x="502" y="120" type="line" smooth="yes"/>
      <point x="514" y="93"/>
      <point x="521" y="67"/>
      <point x="521" y="53" type="curve" smooth="yes"/>
      <point x="521" y="28"/>
      <point x="504" y="20"/>
      <point x="451" y="19" type="curve"/>
      <point x="451" y="0" type="line"/>
      <point x="706" y="0" type="line"/>
    </contour>
    <contour>
      <point x="216" y="257" type="line"/>
      <point x="331" y="532" type="line"/>
      <point x="447" y="257" type="line"/>
    </contour>
    <contour>
      <point x="437" y="719" type="line"/>
      <point x="290" y="867" type="line" smooth="yes"/>
      <point x="272" y="885"/>
      <point x="263" y="890"/>
      <point x="248" y="890" type="curve" smooth="yes"/>
      <point x="227" y="890"/>
      <point x="214" y="878"/>
      <point x="214" y="859" type="curve" smooth="yes"/>
      <point x="214" y="843"/>
      <point x="225" y="828"/>
      <point x="243" y="816" type="curve" smooth="yes"/>
      <point x="397" y="719" type="line"/>
    </contour>
  </outline>
</glyph>
<glyph name="Atilde" format="1">
  <advance width="722"/>
  <unicode hex="00C3"/>
  <outline>
    <contour>
      <point x="706" y="19" type="line"/>
      <point x="661" y="22"/>
      <point x="651" y="32"/>
      <point x="616" y="106" type="curve" smooth="yes"/>
      <point x="367" y="674" type="line"/>
      <point x="347" y="674" type="line"/>
      <point x="139" y="183" type="line" smooth="yes"/>
      <point x="75" y="37"/>
      <point x="63" y="21"/>
      <point x="15" y="19" type="curve"/>
      <point x="15" y="0" type="line"/>
      <point x="213" y="0" type="line"/>
      <point x="213" y="19" type="line"/>
      <point x="165" y="19"/>
      <point x="145" y="32"/>
      <point x="145" y="60" type="curve" smooth="yes"/>
      <point x="145" y="72"/>
      <point x="148" y="86"/>
      <point x="153" y="99" type="curve" smooth="yes"/>
      <point x="199" y="216" type="line"/>
      <point x="461" y="216" type="line"/>
      <point x="502" y="120" type="line" smooth="yes"/>
      <point x="514" y="93"/>
      <point x="521" y="67"/>
      <point x="521" y="53" type="curve" smooth="yes"/>
      <point x="521" y="28"/>
      <point x="504" y="20"/>
      <point x="451" y="19" type="curve"/>
      <point x="451" y="0" type="line"/>
      <point x="706" y="0" type="line"/>
    </contour>
    <contour>
      <point x="216" y="257" type="line"/>
      <point x="331" y="532" type="line"/>
      <point x="447" y="257" type="line"/>
    </contour>
    <contour>
      <point x="497" y="850" type="line"/>
      <point x="480" y="812"/>
      <point x="467" y="800"/>
      <point x="444" y="800" type="curve" smooth="yes"/>
      <point x="429" y="800"/>
      <point x="410" y="806"/>
      <point x="391" y="815" type="curve" smooth="yes"/>
      <point x="367" y="827" type="line" smooth="yes"/>
      <point x="344" y="839"/>
      <point x="319" y="845"/>
      <point x="297" y="845" type="curve" smooth="yes"/>
      <point x="247" y="845"/>
      <point x="211" y="809"/>
      <point x="196" y="744" type="curve"/>
      <point x="225" y="744" type="line"/>
      <point x="236" y="775"/>
      <point x="253" y="790"/>
      <point x="276" y="790" type="curve" smooth="yes"/>
      <point x="288" y="790"/>
      <point x="302" y="786"/>
      <point x="317" y="779" type="curve" smooth="yes"/>
      <point x="340" y="768" type="line" smooth="yes"/>
      <point x="381" y="748"/>
      <point x="396" y="744"/>
      <point x="421" y="744" type="curve" smooth="yes"/>
      <point x="476" y="744"/>
      <point x="505" y="774"/>
      <point x="526" y="850" type="curve"/>
    </contour>
  </outline>
</glyph>
<glyph name="Adieresis" format="1">
  <advance width="722"/>
  <unicode hex="00C4"/>
  <outline>
    <contour>
      <point x="706" y="19" type="line"/>
      <point x="661" y="22"/>
      <point x="651" y="32"/>
      <point x="616" y="106" type="curve" smooth="yes"/>
      <point x="367" y="674" type="line"/>
      <point x="347" y="674" type="line"/>
      <point x="139" y="183" type="line" smooth="yes"/>
      <point x="75" y="37"/>
      <point x="63" y="21"/>
      <point x="15" y="19" type="curve"/>
      <point x="15" y="0" type="line"/>
      <point x="213" y="0" type="line"/>
      <point x="213" y="19" type="line"/>
      <point x="165" y="19"/>
      <point x="145" y="32"/>
      <point x="145" y="60" type="curve" smooth="yes"/>
      <point x="145" y="72"/>
      <point x="148" y="86"/>
      <point x="153" y="99" type="curve" smooth="yes"/>
      <point x="199" y="216" type="line"/>
      <point x="461" y="216" type="line"/>
      <point x="502" y="120" type="line" smooth="yes"/>
      <point x="514" y="93"/>
      <point x="521" y="67"/>
      <point x="521" y="53" type="curve" smooth="yes"/>
      <point x="521" y="28"/>
      <point x="504" y="20"/>
      <point x="451" y="19" type="curve"/>
      <point x="451" y="0" type="line"/>
      <point x="706" y="0" type="line"/>
    </contour>
    <contour>
      <point x="216" y="257" type="line"/>
      <point x="331" y="532" type="line"/>
      <point x="447" y="257" type="line"/>
    </contour>
    <contour>
      <point x="254" y="834" type="curve" smooth="yes"/>
      <point x="229" y="834"/>
      <point x="206" y="811"/>
      <point x="206" y="785" type="curve" smooth="yes"/>
      <point x="206" y="757"/>
      <point x="227" y="735"/>
      <point x="254" y="735" type="curve" smooth="yes"/>
      <point x="282" y="735"/>
      <point x="305" y="757"/>
      <point x="305" y="784" type="curve" smooth="yes"/>
      <point x="305" y="811"/>
      <point x="282" y="834"/>
    </contour>
    <contour>
      <point x="453" y="834" type="curve" smooth="yes"/>
      <point x="428" y="834"/>
      <point x="405" y="811"/>
      <point x="405" y="785" type="curve" smooth="yes"/>
      <point x="405" y="757"/>
      <point x="426" y="735"/>
      <point x="453" y="735" type="curve" smooth="yes"/>
      <point x="481" y="735"/>
      <point x="504" y="757"/>
      <point x="504" y="784" type="curve" smooth="yes"/>
      <point x="504" y="811"/>
      <point x="481" y="834"/>
    </contour>
  </outline>
</glyph>
<glyph name="AE" format="1">
  <advance width="889"/>
  <unicode hex="00C6"/>
  <outline>
    <contour>
      <point x="816" y="521" type="line"/>
      <point x="816" y="662" type="line"/>
      <point x="252" y="662" type="line"/>
      <point x="252" y="642" type="line"/>
      <point x="317" y="640"/>
      <point x="342" y="631"/>
      <point x="342" y="609" type="curve" smooth="yes"/>
      <point x="342" y="603"/>
      <point x="339" y="592"/>
      <point x="333" y="581" type="curve" smooth="yes"/>
      <point x="88" y="97" type="line" smooth="yes"/>
      <point x="55" y="36"/>
      <point x="43" y="25"/>
      <point x="0" y="19" type="curve"/>
      <point x="0" y="0" type="line"/>
      <point x="199" y="0" type="line"/>
      <point x="199" y="19" type="line"/>
      <point x="198" y="19" type="line"/>
      <point x="155" y="23"/>
      <point x="130" y="34"/>
      <point x="130" y="49" type="curve" smooth="yes"/>
      <point x="130" y="71"/>
      <point x="154" y="129"/>
      <point x="194" y="207" type="curve" smooth="yes"/>
      <point x="222" y="260" type="line"/>
      <point x="398" y="260" type="line"/>
      <point x="398" y="108" type="line" smooth="yes"/>
      <point x="398" y="42"/>
      <point x="386" y="28"/>
      <point x="326" y="21" type="curve" smooth="yes"/>
      <point x="309" y="19" type="line"/>
      <point x="309" y="0" type="line"/>
      <point x="819" y="0" type="line"/>
      <point x="863" y="168" type="line"/>
      <point x="839" y="168" type="line"/>
      <point x="781" y="58"/>
      <point x="750" y="38"/>
      <point x="642" y="38" type="curve" smooth="yes"/>
      <point x="566" y="38" type="line" smooth="yes"/>
      <point x="501" y="38"/>
      <point x="497" y="41"/>
      <point x="497" y="91" type="curve" smooth="yes"/>
      <point x="497" y="329" type="line"/>
      <point x="642" y="329" type="line" smooth="yes"/>
      <point x="680" y="329"/>
      <point x="707" y="319"/>
      <point x="720" y="301" type="curve" smooth="yes"/>
      <point x="731" y="285"/>
      <point x="735" y="270"/>
      <point x="740" y="229" type="curve"/>
      <point x="761" y="229" type="line"/>
      <point x="761" y="463" type="line"/>
      <point x="740" y="463" type="line"/>
      <point x="736" y="426"/>
      <point x="732" y="411"/>
      <point x="722" y="396" type="curve"/>
      <point x="706" y="375"/>
      <point x="671" y="366"/>
      <point x="608" y="366" type="curve" smooth="yes"/>
      <point x="497" y="366" type="line"/>
      <point x="497" y="596" type="line" smooth="yes"/>
      <point x="497" y="618"/>
      <point x="505" y="626"/>
      <point x="524" y="626" type="curve" smooth="yes"/>
      <point x="611" y="626" type="line" smooth="yes"/>
      <point x="757" y="626"/>
      <point x="780" y="612"/>
      <point x="793" y="521" type="curve"/>
    </contour>
    <contour>
      <point x="239" y="299" type="line"/>
      <point x="398" y="618" type="line"/>
      <point x="398" y="299" type="line"/>
    </contour>
  </outline>
</glyph>
<glyph name="Ccedilla" format="1">
  <advance width="667"/>
  <unicode hex="00C7"/>
  <outline>
    <contour>
      <point x="336" y="-13" type="line"/>
      <point x="345" y="-14"/>
      <point x="352" y="-14"/>
      <point x="360" y="-14" type="curve" smooth="yes"/>
      <point x="473" y="-14"/>
      <point x="573" y="32"/>
      <point x="633" y="113" type="curve"/>
      <point x="615" y="131" type="line"/>
      <point x="541" y="60"/>
      <point x="475" y="30"/>
      <point x="392" y="30" type="curve" smooth="yes"/>
      <point x="329" y="30"/>
      <point x="273" y="50"/>
      <point x="230" y="88" type="curve" smooth="yes"/>
      <point x="175" y="137"/>
      <point x="144" y="227"/>
      <point x="144" y="338" type="curve" smooth="yes"/>
      <point x="144" y="519"/>
      <point x="237" y="636"/>
      <point x="382" y="636" type="curve" smooth="yes"/>
      <point x="439" y="636"/>
      <point x="491" y="615"/>
      <point x="531" y="575" type="curve" smooth="yes"/>
      <point x="563" y="543"/>
      <point x="578" y="515"/>
      <point x="597" y="450" type="curve"/>
      <point x="620" y="450" type="line"/>
      <point x="611" y="676" type="line"/>
      <point x="590" y="676" type="line"/>
      <point x="584" y="655"/>
      <point x="568" y="643"/>
      <point x="548" y="643" type="curve" smooth="yes"/>
      <point x="539" y="643"/>
      <point x="524" y="646"/>
      <point x="509" y="652" type="curve"/>
      <point x="460" y="668"/>
      <point x="410" y="676"/>
      <point x="363" y="676" type="curve" smooth="yes"/>
      <point x="281" y="676"/>
      <point x="198" y="645"/>
      <point x="136" y="590" type="curve" smooth="yes"/>
      <point x="66" y="528"/>
      <point x="28" y="435"/>
      <point x="28" y="325" type="curve" smooth="yes"/>
      <point x="28" y="144"/>
      <point x="135" y="14"/>
      <point x="302" y="-10" type="curve"/>
      <point x="265" y="-99" type="line"/>
      <point x="272" y="-104" type="line"/>
      <point x="280" y="-101"/>
      <point x="289" y="-100"/>
      <point x="300" y="-100" type="curve" smooth="yes"/>
      <point x="338" y="-100"/>
      <point x="353" y="-110"/>
      <point x="353" y="-136" type="curve" smooth="yes"/>
      <point x="353" y="-163"/>
      <point x="332" y="-180"/>
      <point x="298" y="-180" type="curve" smooth="yes"/>
      <point x="277" y="-180"/>
      <point x="261" y="-177"/>
      <point x="233" y="-168" type="curve"/>
      <point x="219" y="-199" type="line"/>
      <point x="248" y="-211"/>
      <point x="271" y="-215"/>
      <point x="303" y="-215" type="curve" smooth="yes"/>
      <point x="380" y="-215"/>
      <point x="428" y="-183"/>
      <point x="428" y="-131" type="curve" smooth="yes"/>
      <point x="428" y="-88"/>
      <point x="396" y="-62"/>
      <point x="342" y="-62" type="curve" smooth="yes"/>
      <point x="332" y="-62"/>
      <point x="326" y="-63"/>
      <point x="316" y="-65" type="curve"/>
    </contour>
  </outline>
</glyph>
<glyph name="Igrave" format="1">
  <advance width="333"/>
  <unicode hex="00CC"/>
  <outline>
    <contour>
      <point x="115" y="109" type="line" smooth="yes"/>
      <point x="115" y="34"/>
      <point x="102" y="22"/>
      <point x="18" y="19" type="curve"/>
      <point x="18" y="0" type="line"/>
      <point x="315" y="0" type="line"/>
      <point x="315" y="19" type="line"/>
      <point x="233" y="22"/>
      <point x="217" y="36"/>
      <point x="217" y="109" type="curve" smooth="yes"/>
      <point x="217" y="553" type="line" smooth="yes"/>
      <point x="217" y="626"/>
      <point x="231" y="639"/>
      <point x="315" y="643" type="curve"/>
      <point x="315" y="662" type="line"/>
      <point x="18" y="662" type="line"/>
      <point x="18" y="643" type="line"/>
      <point x="103" y="638"/>
      <point x="115" y="627"/>
      <point x="115" y="553" type="curve" smooth="yes"/>
    </contour>
    <contour>
      <point x="242" y="719" type="line"/>
      <point x="95" y="867" type="line" smooth="yes"/>
      <point x="77" y="885"/>
      <point x="68" y="890"/>
      <point x="53" y="890" type="curve" smooth="yes"/>
      <point x="32" y="890"/>
      <point x="19" y="878"/>
      <point x="19" y="859" type="curve" smooth="yes"/>
      <point x="19" y="843"/>
      <point x="30" y="828"/>
      <point x="48" y="816" type="curve" smooth="yes"/>
      <point x="202" y="719" type="line"/>
    </contour>
  </outline>
</glyph>
<glyph name="Iacute" format="1">
  <advance width="333"/>
  <unicode hex="00CD"/>
  <outline>
    <contour>
      <point x="115" y="109" type="line" smooth="yes"/>
      <point x="115" y="34"/>
      <point x="102" y="22"/>
      <point x="18" y="19" type="curve"/>
      <point x="18" y="0" type="line"/>
      <point x="315" y="0" type="line"/>
      <point x="315" y="19" type="line"/>
      <point x="233" y="22"/>
      <point x="217" y="36"/>
      <point x="217" y="109" type="curve" smooth="yes"/>
      <point x="217" y="553" type="line" smooth="yes"/>
      <point x="217" y="626"/>
      <point x="231" y="639"/>
      <point x="315" y="643" type="curve"/>
      <point x="315" y="662" type="line"/>
      <point x="18" y="662" type="line"/>
      <point x="18" y="643" type="line"/>
      <point x="103" y="638"/>
      <point x="115" y="627"/>
      <point x="115" y="553" type="curve" smooth="yes"/>
    </contour>
    <contour>
      <point x="133" y="719" type="line"/>
      <point x="287" y="816" type="line" smooth="yes"/>
      <point x="308" y="829"/>
      <point x="317" y="842"/>
      <point x="317" y="858" type="curve" smooth="yes"/>
      <point x="317" y="878"/>
      <point x="304" y="890"/>
      <point x="282" y="890" type="curve" smooth="yes"/>
      <point x="267" y="890"/>
      <point x="258" y="885"/>
      <point x="240" y="867" type="curve" smooth="yes"/>
      <point x="93" y="719" type="line"/>
    </contour>
  </outline>
</glyph>
<glyph name="Icircumflex" format="1">
  <advance width="333"/>
  <unicode hex="00CE"/>
  <outline>
    <contour>
      <point x="115" y="109" type="line" smooth="yes"/>
      <point x="115" y="34"/>
      <point x="102" y="22"/>
      <point x="18" y="19" type="curve"/>
      <point x="18" y="0" type="line"/>
      <point x="315" y="0" type="line"/>
      <point x="315" y="19" type="line"/>
      <point x="233" y="22"/>
      <point x="217" y="36"/>
      <point x="217" y="109" type="curve" smooth="yes"/>
      <point x="217" y="553" type="line" smooth="yes"/>
      <point x="217" y="626"/>
      <point x="231" y="639"/>
      <point x="315" y="643" type="curve"/>
      <point x="315" y="662" type="line"/>
      <point x="18" y="662" type="line"/>
      <point x="18" y="643" type="line"/>
      <point x="103" y="638"/>
      <point x="115" y="627"/>
      <point x="115" y="553" type="curve" smooth="yes"/>
    </contour>
    <contour>
      <point x="322" y="719" type="line"/>
      <point x="197" y="886" type="line"/>
      <point x="135" y="886" type="line"/>
      <point x="11" y="719" type="line"/>
      <point x="45" y="719" type="line"/>
      <point x="166" y="822" type="line"/>
      <point x="288" y="719" type="line"/>
    </contour>
  </outline>
</glyph>
<glyph name="Idieresis" format="1">
  <advance width="333"/>
  <unicode hex="00CF"/>
  <outline>
    <contour>
      <point x="115" y="109" type="line" smooth="yes"/>
      <point x="115" y="34"/>
      <point x="102" y="22"/>
      <point x="18" y="19" type="curve"/>
      <point x="18" y="0" type="line"/>
      <point x="315" y="0" type="line"/>
      <point x="315" y="19" type="line"/>
      <point x="233" y="22"/>
      <point x="217" y="36"/>
      <point x="217" y="109" type="curve" smooth="yes"/>
      <point x="217" y="553" type="line" smooth="yes"/>
      <point x="217" y="626"/>
      <point x="231" y="639"/>
      <point x="315" y="643" type="curve"/>
      <point x="315" y="662" type="line"/>
      <point x="18" y="662" type="line"/>
      <point x="18" y="643" type="line"/>
      <point x="103" y="638"/>
      <point x="115" y="627"/>
      <point x="115" y="553" type="curve" smooth="yes"/>
    </contour>
    <contour>
      <point x="66" y="834" type="curve" smooth="yes"/>
      <point x="41" y="834"/>
      <point x="18" y="811"/>
      <point x="18" y="785" type="curve" smooth="yes"/>
      <point x="18" y="757"/>
      <point x="39" y="735"/>
      <point x="66" y="735" type="curve" smooth="yes"/>
      <point x="94" y="735"/>
      <point x="117" y="757"/>
      <point x="117" y="784" type="curve" smooth="yes"/>
      <point x="117" y="811"/>
      <point x="94" y="834"/>
    </contour>
    <contour>
      <point x="265" y="834" type="curve" smooth="yes"/>
      <point x="240" y="834"/>
      <point x="217" y="811"/>
      <point x="217" y="785" type="curve" smooth="yes"/>
      <point x="217" y="757"/>
      <point x="238" y="735"/>
      <point x="265" y="735" type="curve" smooth="yes"/>
      <point x="293" y="735"/>
      <point x="316" y="757"/>
      <point x="316" y="784" type="curve" smooth="yes"/>
      <point x="316" y="811"/>
      <point x="293" y="834"/>
    </contour>
  </outline>
</glyph>
<glyph name="Otilde" format="1">
  <advance width="722"/>
  <unicode hex="00D5"/>
  <outline>
    <contour>
      <point x="361" y="676" type="curve" smooth="yes"/>
      <point x="170" y="676"/>
      <point x="34" y="532"/>
      <point x="34" y="331" type="curve" smooth="yes"/>
      <point x="34" y="237"/>
      <point x="66" y="146"/>
      <point x="120" y="88" type="curve" smooth="yes"/>
      <point x="178" y="25"/>
      <point x="267" y="-14"/>
      <point x="355" y="-14" type="curve" smooth="yes"/>
      <point x="552" y="-14"/>
      <point x="688" y="126"/>
      <point x="688" y="327" type="curve" smooth="yes"/>
      <point x="688" y="426"/>
      <point x="659" y="511"/>
      <point x="604" y="571" type="curve" smooth="yes"/>
      <point x="541" y="640"/>
      <point x="457" y="676"/>
    </contour>
    <contour>
      <point x="361" y="640" type="curve" smooth="yes"/>
      <point x="407" y="640"/>
      <point x="453" y="622"/>
      <point x="489" y="590" type="curve" smooth="yes"/>
      <point x="543" y="541"/>
      <point x="574" y="447"/>
      <point x="574" y="328" type="curve" smooth="yes"/>
      <point x="574" y="269"/>
      <point x="561" y="200"/>
      <point x="541" y="148" type="curve" smooth="yes"/>
      <point x="532" y="123"/>
      <point x="515" y="98"/>
      <point x="492" y="75" type="curve" smooth="yes"/>
      <point x="457" y="40"/>
      <point x="412" y="22"/>
      <point x="359" y="22" type="curve" smooth="yes"/>
      <point x="313" y="22"/>
      <point x="268" y="40"/>
      <point x="233" y="71" type="curve" smooth="yes"/>
      <point x="181" y="117"/>
      <point x="148" y="218"/>
      <point x="148" y="329" type="curve" smooth="yes"/>
      <point x="148" y="431"/>
      <point x="176" y="528"/>
      <point x="218" y="575" type="curve" smooth="yes"/>
      <point x="257" y="618"/>
      <point x="306" y="640"/>
    </contour>
    <contour>
      <point x="497" y="850" type="line"/>
      <point x="480" y="812"/>
      <point x="467" y="800"/>
      <point x="444" y="800" type="curve" smooth="yes"/>
      <point x="429" y="800"/>
      <point x="410" y="806"/>
      <point x="391" y="815" type="curve" smooth="yes"/>
      <point x="367" y="827" type="line" smooth="yes"/>
      <point x="344" y="839"/>
      <point x="319" y="845"/>
      <point x="297" y="845" type="curve" smooth="yes"/>
      <point x="247" y="845"/>
      <point x="211" y="809"/>
      <point x="196" y="744" type="curve"/>
      <point x="225" y="744" type="line"/>
      <point x="236" y="775"/>
      <point x="253" y="790"/>
      <point x="276" y="790" type="curve" smooth="yes"/>
      <point x="288" y="790"/>
      <point x="302" y="786"/>
      <point x="317" y="779" type="curve" smooth="yes"/>
      <point x="340" y="768" type="line" smooth="yes"/>
      <point x="381" y="748"/>
      <point x="396" y="744"/>
      <point x="421" y="744" type="curve" smooth="yes"/>
      <point x="476" y="744"/>
      <point x="505" y="774"/>
      <point x="526" y="850" type="curve"/>
    </contour>
  </outline>
</glyph>
<glyph name="Odieresis" format="1">
  <advance width="722"/>
  <unicode hex="00D6"/>
  <outline>
    <contour>
      <point x="361" y="676" type="curve" smooth="yes"/>
      <point x="170" y="676"/>
      <point x="34" y="532"/>
      <point x="34" y="331" type="curve" smooth="yes"/>
      <point x="34" y="237"/>
      <point x="66" y="146"/>
      <point x="120" y="88" type="curve" smooth="yes"/>
      <point x="178" y="25"/>
      <point x="267" y="-14"/>
      <point x="355" y="-14" type="curve" smooth="yes"/>
      <point x="552" y="-14"/>
      <point x="688" y="126"/>
      <point x="688" y="327" type="curve" smooth="yes"/>
      <point x="688" y="426"/>
      <point x="659" y="511"/>
      <point x="604" y="571" type="curve" smooth="yes"/>
      <point x="541" y="640"/>
      <point x="457" y="676"/>
    </contour>
    <contour>
      <point x="361" y="640" type="curve" smooth="yes"/>
      <point x="407" y="640"/>
      <point x="453" y="622"/>
      <point x="489" y="590" type="curve" smooth="yes"/>
      <point x="543" y="541"/>
      <point x="574" y="447"/>
      <point x="574" y="328" type="curve" smooth="yes"/>
      <point x="574" y="269"/>
      <point x="561" y="200"/>
      <point x="541" y="148" type="curve" smooth="yes"/>
      <point x="532" y="123"/>
      <point x="515" y="98"/>
      <point x="492" y="75" type="curve" smooth="yes"/>
      <point x="457" y="40"/>
      <point x="412" y="22"/>
      <point x="359" y="22" type="curve" smooth="yes"/>
      <point x="313" y="22"/>
      <point x="268" y="40"/>
      <point x="233" y="71" type="curve" smooth="yes"/>
      <point x="181" y="117"/>
      <point x="148" y="218"/>
      <point x="148" y="329" type="curve" smooth="yes"/>
      <point x="148" y="431"/>
      <point x="176" y="528"/>
      <point x="218" y="575" type="curve" smooth="yes"/>
      <point x="257" y="618"/>
      <point x="306" y="640"/>
    </contour>
    <contour>
      <point x="261" y="834" type="curve" smooth="yes"/>
      <point x="236" y="834"/>
      <point x="213" y="811"/>
      <point x="213" y="785" type="curve" smooth="yes"/>
      <point x="213" y="757"/>
      <point x="234" y="735"/>
      <point x="261" y="735" type="curve" smooth="yes"/>
      <point x="289" y="735"/>
      <point x="312" y="757"/>
      <point x="312" y="784" type="curve" smooth="yes"/>
      <point x="312" y="811"/>
      <point x="289" y="834"/>
    </contour>
    <contour>
      <point x="460" y="834" type="curve" smooth="yes"/>
      <point x="435" y="834"/>
      <point x="412" y="811"/>
      <point x="412" y="785" type="curve" smooth="yes"/>
      <point x="412" y="757"/>
      <point x="433" y="735"/>
      <point x="460" y="735" type="curve" smooth="yes"/>
      <point x="488" y="735"/>
      <point x="511" y="757"/>
      <point x="511" y="784" type="curve" smooth="yes"/>
      <point x="511" y="811"/>
      <point x="488" y="834"/>
    </contour>
  </outline>
</glyph>
<glyph name="multiply" format="1">
  <advance width="564"/>
  <unicode hex="00D7"/>
  <outline>
    <contour>
      <point x="234" y="253" type="line"/>
      <point x="38" y="56" type="line"/>
      <point x="86" y="8" type="line"/>
      <point x="282" y="205" type="line"/>
      <point x="479" y="8" type="line"/>
      <point x="527" y="56" type="line"/>
      <point x="330" y="253" type="line"/>
      <point x="527" y="449" type="line"/>
      <point x="479" y="497" type="line"/>
      <point x="282" y="300" type="line"/>
      <point x="86" y="497" type="line"/>
      <point x="38" y="449" type="line"/>
    </contour>
  </outline>
</glyph>
<glyph name="Oslash" format="1">
  <advance width="722"/>
  <unicode hex="00D8"/>
  <outline>
    <contour>
      <point x="658" y="734" type="line"/>
      <point x="609" y="734" type="line"/>
      <point x="537" y="627" type="line"/>
      <point x="473" y="663"/>
      <point x="428" y="676"/>
      <point x="362" y="676" type="curve" smooth="yes"/>
      <point x="170" y="676"/>
      <point x="34" y="533"/>
      <point x="34" y="330" type="curve" smooth="yes"/>
      <point x="34" y="267"/>
      <point x="49" y="202"/>
      <point x="75" y="152" type="curve" smooth="yes"/>
      <point x="93" y="117"/>
      <point x="109" y="97"/>
      <point x="151" y="59" type="curve"/>
      <point x="56" y="-80" type="line"/>
      <point x="105" y="-80" type="line"/>
      <point x="184" y="36" type="line"/>
      <point x="246" y="-1"/>
      <point x="292" y="-14"/>
      <point x="359" y="-14" type="curve" smooth="yes"/>
      <point x="553" y="-14"/>
      <point x="688" y="128"/>
      <point x="688" y="331" type="curve" smooth="yes"/>
      <point x="688" y="396"/>
      <point x="673" y="461"/>
      <point x="646" y="511" type="curve" smooth="yes"/>
      <point x="628" y="546"/>
      <point x="611" y="566"/>
      <point x="570" y="604" type="curve"/>
    </contour>
    <contour>
      <point x="527" y="540" type="line"/>
      <point x="561" y="475"/>
      <point x="574" y="419"/>
      <point x="574" y="330" type="curve" smooth="yes"/>
      <point x="574" y="139"/>
      <point x="493" y="22"/>
      <point x="361" y="22" type="curve" smooth="yes"/>
      <point x="303" y="22"/>
      <point x="262" y="41"/>
      <point x="219" y="88" type="curve"/>
    </contour>
    <contour>
      <point x="194" y="123" type="line"/>
      <point x="160" y="187"/>
      <point x="148" y="242"/>
      <point x="148" y="330" type="curve" smooth="yes"/>
      <point x="148" y="521"/>
      <point x="230" y="640"/>
      <point x="361" y="640" type="curve" smooth="yes"/>
      <point x="416" y="640"/>
      <point x="458" y="621"/>
      <point x="502" y="575" type="curve"/>
    </contour>
  </outline>
</glyph>
<glyph name="Ucircumflex" format="1">
  <advance width="722"/>
  <unicode hex="00DB"/>
  <outline>
    <contour>
      <point x="611" y="515" type="line" smooth="yes"/>
      <point x="611" y="617"/>
      <point x="623" y="633"/>
      <point x="705" y="643" type="curve"/>
      <point x="705" y="662" type="line"/>
      <point x="473" y="662" type="line"/>
      <point x="473" y="643" type="line"/>
      <point x="551" y="637"/>
      <point x="567" y="615"/>
      <point x="567" y="515" type="curve" smooth="yes"/>
      <point x="567" y="245" type="line" smooth="yes"/>
      <point x="567" y="177"/>
      <point x="560" y="139"/>
      <point x="544" y="109" type="curve" smooth="yes"/>
      <point x="517" y="61"/>
      <point x="453" y="30"/>
      <point x="378" y="30" type="curve" smooth="yes"/>
      <point x="307" y="30"/>
      <point x="258" y="54"/>
      <point x="231" y="101" type="curve" smooth="yes"/>
      <point x="213" y="133"/>
      <point x="206" y="170"/>
      <point x="206" y="233" type="curve" smooth="yes"/>
      <point x="206" y="553" type="line" smooth="yes"/>
      <point x="206" y="625"/>
      <point x="217" y="636"/>
      <point x="297" y="643" type="curve"/>
      <point x="297" y="662" type="line"/>
      <point x="14" y="662" type="line"/>
      <point x="14" y="643" type="line"/>
      <point x="93" y="637"/>
      <point x="104" y="626"/>
      <point x="104" y="553" type="curve" smooth="yes"/>
      <point x="104" y="241" type="line" smooth="yes"/>
      <point x="104" y="68"/>
      <point x="185" y="-14"/>
      <point x="355" y="-14" type="curve" smooth="yes"/>
      <point x="464" y="-14"/>
      <point x="539" y="21"/>
      <point x="578" y="89" type="curve" smooth="yes"/>
      <point x="602" y="131"/>
      <point x="611" y="177"/>
      <point x="611" y="254" type="curve" smooth="yes"/>
    </contour>
    <contour>
      <point x="536" y="719" type="line"/>
      <point x="411" y="886" type="line"/>
      <point x="349" y="886" type="line"/>
      <point x="225" y="719" type="line"/>
      <point x="259" y="719" type="line"/>
      <point x="380" y="822" type="line"/>
      <point x="502" y="719" type="line"/>
    </contour>
  </outline>
</glyph>
<glyph name="Thorn" format="1">
  <advance width="556"/>
  <unicode hex="00DE"/>
  <outline>
    <contour>
      <point x="293" y="662" type="line"/>
      <point x="16" y="662" type="line"/>
      <point x="16" y="643" type="line"/>
      <point x="90" y="635"/>
      <point x="100" y="625"/>
      <point x="100" y="553" type="curve" smooth="yes"/>
      <point x="100" y="120" type="line" smooth="yes"/>
      <point x="100" y="36"/>
      <point x="92" y="26"/>
      <point x="16" y="19" type="curve"/>
      <point x="16" y="0" type="line"/>
      <point x="296" y="0" type="line"/>
      <point x="296" y="19" type="line"/>
      <point x="217" y="22"/>
      <point x="202" y="36"/>
      <point x="202" y="109" type="curve" smooth="yes"/>
      <point x="202" y="161" type="line"/>
      <point x="229" y="159"/>
      <point x="247" y="158"/>
      <point x="271" y="158" type="curve" smooth="yes"/>
      <point x="349" y="158"/>
      <point x="403" y="168"/>
      <point x="446" y="192" type="curve" smooth="yes"/>
      <point x="505" y="224"/>
      <point x="542" y="285"/>
      <point x="542" y="351" type="curve" smooth="yes"/>
      <point x="542" y="462"/>
      <point x="442" y="532"/>
      <point x="282" y="532" type="curve" smooth="yes"/>
      <point x="202" y="532" type="line"/>
      <point x="201" y="623"/>
      <point x="211" y="636"/>
      <point x="293" y="643" type="curve"/>
    </contour>
    <contour>
      <point x="202" y="461" type="line" smooth="yes"/>
      <point x="202" y="487"/>
      <point x="209" y="494"/>
      <point x="234" y="494" type="curve" smooth="yes"/>
      <point x="372" y="494"/>
      <point x="433" y="448"/>
      <point x="433" y="345" type="curve" smooth="yes"/>
      <point x="433" y="248"/>
      <point x="374" y="198"/>
      <point x="259" y="198" type="curve" smooth="yes"/>
      <point x="239" y="198"/>
      <point x="225" y="199"/>
      <point x="202" y="201" type="curve"/>
    </contour>
  </outline>
</glyph>
<glyph name="germandbls" format="1">
  <advance width="500"/>
  <unicode hex="00DF"/>
  <outline>
    <contour>
      <point x="73" y="84" type="line" smooth="yes"/>
      <point x="73" y="31"/>
      <point x="62" y="19"/>
      <point x="12" y="15" type="curve"/>
      <point x="12" y="0" type="line"/>
      <point x="157" y="0" type="line"/>
      <point x="157" y="549" type="line" smooth="yes"/>
      <point x="157" y="614"/>
      <point x="191" y="656"/>
      <point x="243" y="656" type="curve" smooth="yes"/>
      <point x="300" y="656"/>
      <point x="334" y="604"/>
      <point x="334" y="517" type="curve" smooth="yes"/>
      <point x="334" y="437"/>
      <point x="304" y="396"/>
      <point x="239" y="389" type="curve" smooth="yes"/>
      <point x="218" y="387"/>
      <point x="210" y="383"/>
      <point x="210" y="374" type="curve" smooth="yes"/>
      <point x="210" y="363"/>
      <point x="219" y="358"/>
      <point x="242" y="357" type="curve" smooth="yes"/>
      <point x="330" y="354"/>
      <point x="374" y="285"/>
      <point x="374" y="150" type="curve" smooth="yes"/>
      <point x="374" y="65"/>
      <point x="352" y="20"/>
      <point x="310" y="20" type="curve" smooth="yes"/>
      <point x="291" y="20"/>
      <point x="283" y="28"/>
      <point x="281" y="50" type="curve" smooth="yes"/>
      <point x="279" y="72" type="line" smooth="yes"/>
      <point x="277" y="95"/>
      <point x="259" y="112"/>
      <point x="237" y="112" type="curve" smooth="yes"/>
      <point x="211" y="112"/>
      <point x="192" y="91"/>
      <point x="192" y="64" type="curve" smooth="yes"/>
      <point x="192" y="21"/>
      <point x="232" y="-9"/>
      <point x="289" y="-9" type="curve" smooth="yes"/>
      <point x="389" y="-9"/>
      <point x="468" y="77"/>
      <point x="468" y="186" type="curve" smooth="yes"/>
      <point x="468" y="242"/>
      <point x="446" y="292"/>
      <point x="406" y="326" type="curve" smooth="yes"/>
      <point x="374" y="354"/>
      <point x="345" y="365"/>
      <point x="284" y="377" type="curve"/>
      <point x="391" y="426"/>
      <point x="421" y="459"/>
      <point x="421" y="531" type="curve" smooth="yes"/>
      <point x="421" y="623"/>
      <point x="355" y="683"/>
      <point x="251" y="683" type="curve" smooth="yes"/>
      <point x="183" y="683"/>
      <point x="132" y="657"/>
      <point x="103" y="606" type="curve" smooth="yes"/>
      <point x="82" y="569"/>
      <point x="73" y="524"/>
      <point x="73" y="454" type="curve" smooth="yes"/>
    </contour>
  </outline>
</glyph>
<glyph name="atilde" format="1">
  <advance width="444"/>
  <unicode hex="00E3"/>
  <outline>
    <contour>
      <point x="442" y="66" type="line"/>
      <point x="425" y="52"/>
      <point x="413" y="47"/>
      <point x="398" y="47" type="curve" smooth="yes"/>
      <point x="375" y="47"/>
      <point x="368" y="61"/>
      <point x="368" y="105" type="curve" smooth="yes"/>
      <point x="368" y="300" type="line" smooth="yes"/>
      <point x="368" y="352"/>
      <point x="363" y="381"/>
      <point x="348" y="405" type="curve" smooth="yes"/>
      <point x="326" y="441"/>
      <point x="283" y="460"/>
      <point x="224" y="460" type="curve" smooth="yes"/>
      <point x="130" y="460"/>
      <point x="56" y="411"/>
      <point x="56" y="348" type="curve" smooth="yes"/>
      <point x="56" y="325"/>
      <point x="76" y="305"/>
      <point x="99" y="305" type="curve" smooth="yes"/>
      <point x="123" y="305"/>
      <point x="144" y="325"/>
      <point x="144" y="347" type="curve" smooth="yes"/>
      <point x="144" y="351"/>
      <point x="143" y="356"/>
      <point x="142" y="363" type="curve"/>
      <point x="140" y="372"/>
      <point x="139" y="380"/>
      <point x="139" y="387" type="curve" smooth="yes"/>
      <point x="139" y="414"/>
      <point x="171" y="436"/>
      <point x="211" y="436" type="curve" smooth="yes"/>
      <point x="260" y="436"/>
      <point x="287" y="407"/>
      <point x="287" y="353" type="curve" smooth="yes"/>
      <point x="287" y="292" type="line"/>
      <point x="133" y="230"/>
      <point x="116" y="222"/>
      <point x="73" y="184" type="curve" smooth="yes"/>
      <point x="51" y="164"/>
      <point x="37" y="130"/>
      <point x="37" y="97" type="curve" smooth="yes"/>
      <point x="37" y="34"/>
      <point x="81" y="-10"/>
      <point x="142" y="-10" type="curve" smooth="yes"/>
      <point x="186" y="-10"/>
      <point x="227" y="11"/>
      <point x="288" y="63" type="curve"/>
      <point x="293" y="11"/>
      <point x="311" y="-10"/>
      <point x="352" y="-10" type="curve" smooth="yes"/>
      <point x="386" y="-10"/>
      <point x="407" y="2"/>
      <point x="442" y="40" type="curve"/>
    </contour>
    <contour>
      <point x="287" y="123" type="line" smooth="yes"/>
      <point x="287" y="92"/>
      <point x="282" y="83"/>
      <point x="261" y="71" type="curve" smooth="yes"/>
      <point x="237" y="57"/>
      <point x="209" y="48"/>
      <point x="188" y="48" type="curve" smooth="yes"/>
      <point x="153" y="48"/>
      <point x="125" y="82"/>
      <point x="125" y="125" type="curve" smooth="yes"/>
      <point x="125" y="129" type="line" smooth="yes"/>
      <point x="125" y="188"/>
      <point x="166" y="224"/>
      <point x="287" y="268" type="curve"/>
    </contour>
    <contour>
      <point x="358" y="638" type="line"/>
      <point x="341" y="600"/>
      <point x="328" y="588"/>
      <point x="305" y="588" type="curve" smooth="yes"/>
      <point x="290" y="588"/>
      <point x="271" y="594"/>
      <point x="252" y="603" type="curve" smooth="yes"/>
      <point x="228" y="615" type="line" smooth="yes"/>
      <point x="205" y="627"/>
      <point x="180" y="633"/>
      <point x="158" y="633" type="curve" smooth="yes"/>
      <point x="108" y="633"/>
      <point x="72" y="597"/>
      <point x="57" y="532" type="curve"/>
      <point x="86" y="532" type="line"/>
      <point x="97" y="563"/>
      <point x="114" y="578"/>
      <point x="137" y="578" type="curve" smooth="yes"/>
      <point x="149" y="578"/>
      <point x="163" y="574"/>
      <point x="178" y="567" type="curve" smooth="yes"/>
      <point x="201" y="556" type="line" smooth="yes"/>
      <point x="242" y="536"/>
      <point x="257" y="532"/>
      <point x="282" y="532" type="curve" smooth="yes"/>
      <point x="337" y="532"/>
      <point x="366" y="562"/>
      <point x="387" y="638" type="curve"/>
    </contour>
  </outline>
</glyph>
<glyph name="aring" format="1">
  <advance width="444"/>
  <unicode hex="00E5"/>
  <outline>
    <contour>
      <point x="442" y="66" type="line"/>
      <point x="425" y="52"/>
      <point x="413" y="47"/>
      <point x="398" y="47" type="curve" smooth="yes"/>
      <point x="375" y="47"/>
      <point x="368" y="61"/>
      <point x="368" y="105" type="curve" smooth="yes"/>
      <point x="368" y="300" type="line" smooth="yes"/>
      <point x="368" y="352"/>
      <point x="363" y="381"/>
      <point x="348" y="405" type="curve" smooth="yes"/>
      <point x="326" y="441"/>
      <point x="283" y="460"/>
      <point x="224" y="460" type="curve" smooth="yes"/>
      <point x="130" y="460"/>
      <point x="56" y="411"/>
      <point x="56" y="348" type="curve" smooth="yes"/>
      <point x="56" y="325"/>
      <point x="76" y="305"/>
      <point x="99" y="305" type="curve" smooth="yes"/>
      <point x="123" y="305"/>
      <point x="144" y="325"/>
      <point x="144" y="347" type="curve" smooth="yes"/>
      <point x="144" y="351"/>
      <point x="143" y="356"/>
      <point x="142" y="363" type="curve"/>
      <point x="140" y="372"/>
      <point x="139" y="380"/>
      <point x="139" y="387" type="curve" smooth="yes"/>
      <point x="139" y="414"/>
      <point x="171" y="436"/>
      <point x="211" y="436" type="curve" smooth="yes"/>
      <point x="260" y="436"/>
      <point x="287" y="407"/>
      <point x="287" y="353" type="curve" smooth="yes"/>
      <point x="287" y="292" type="line"/>
      <point x="133" y="230"/>
      <point x="116" y="222"/>
      <point x="73" y="184" type="curve" smooth="yes"/>
      <point x="51" y="164"/>
      <point x="37" y="130"/>
      <point x="37" y="97" type="curve" smooth="yes"/>
      <point x="37" y="34"/>
      <point x="81" y="-10"/>
      <point x="142" y="-10" type="curve" smooth="yes"/>
      <point x="186" y="-10"/>
      <point x="227" y="11"/>
      <point x="288" y="63" type="curve"/>
      <point x="293" y="11"/>
      <point x="311" y="-10"/>
      <point x="352" y="-10" type="curve" smooth="yes"/>
      <point x="386" y="-10"/>
      <point x="407" y="2"/>
      <point x="442" y="40" type="curve"/>
    </contour>
    <contour>
      <point x="287" y="123" type="line" smooth="yes"/>
      <point x="287" y="92"/>
      <point x="282" y="83"/>
      <point x="261" y="71" type="curve" smooth="yes"/>
      <point x="237" y="57"/>
      <point x="209" y="48"/>
      <point x="188" y="48" type="curve" smooth="yes"/>
      <point x="153" y="48"/>
      <point x="125" y="82"/>
      <point x="125" y="125" type="curve" smooth="yes"/>
      <point x="125" y="129" type="line" smooth="yes"/>
      <point x="125" y="188"/>
      <point x="166" y="224"/>
      <point x="287" y="268" type="curve"/>
    </contour>
    <contour>
      <point x="221" y="721" type="curve" smooth="yes"/>
      <point x="167" y="721"/>
      <point x="122" y="676"/>
      <point x="122" y="622" type="curve" smooth="yes"/>
      <point x="122" y="566"/>
      <point x="165" y="522"/>
      <point x="221" y="522" type="curve" smooth="yes"/>
      <point x="276" y="522"/>
      <point x="321" y="566"/>
      <point x="321" y="621" type="curve" smooth="yes"/>
      <point x="321" y="676"/>
      <point x="276" y="721"/>
    </contour>
    <contour>
      <point x="222" y="687" type="curve" smooth="yes"/>
      <point x="257" y="687"/>
      <point x="287" y="657"/>
      <point x="287" y="621" type="curve" smooth="yes"/>
      <point x="287" y="585"/>
      <point x="257" y="556"/>
      <point x="220" y="556" type="curve" smooth="yes"/>
      <point x="185" y="556"/>
      <point x="156" y="586"/>
      <point x="156" y="622" type="curve" smooth="yes"/>
      <point x="156" y="658"/>
      <point x="186" y="687"/>
    </contour>
  </outline>
</glyph>
<glyph name="ae" format="1">
  <advance width="667"/>
  <unicode hex="00E6"/>
  <outline>
    <contour>
      <point x="620" y="154" type="line"/>
      <point x="572" y="84"/>
      <point x="533" y="57"/>
      <point x="476" y="57" type="curve" smooth="yes"/>
      <point x="435" y="57"/>
      <point x="398" y="77"/>
      <point x="381" y="107" type="curve" smooth="yes"/>
      <point x="360" y="146"/>
      <point x="355" y="178"/>
      <point x="354" y="277" type="curve"/>
      <point x="616" y="277" type="line"/>
      <point x="605" y="406"/>
      <point x="557" y="460"/>
      <point x="456" y="460" type="curve" smooth="yes"/>
      <point x="410" y="460"/>
      <point x="382" y="449"/>
      <point x="337" y="415" type="curve"/>
      <point x="299" y="448"/>
      <point x="269" y="460"/>
      <point x="220" y="460" type="curve" smooth="yes"/>
      <point x="129" y="460"/>
      <point x="60" y="414"/>
      <point x="60" y="352" type="curve" smooth="yes"/>
      <point x="60" y="323"/>
      <point x="77" y="304"/>
      <point x="104" y="304" type="curve" smooth="yes"/>
      <point x="132" y="304"/>
      <point x="148" y="323"/>
      <point x="147" y="352" type="curve" smooth="yes"/>
      <point x="146" y="369" type="line"/>
      <point x="146" y="380" type="line"/>
      <point x="146" y="380"/>
      <point x="146" y="383"/>
      <point x="145" y="386" type="curve"/>
      <point x="140" y="413"/>
      <point x="171" y="436"/>
      <point x="213" y="436" type="curve" smooth="yes"/>
      <point x="237" y="436"/>
      <point x="256" y="427"/>
      <point x="263" y="413" type="curve" smooth="yes"/>
      <point x="271" y="398"/>
      <point x="276" y="367"/>
      <point x="275" y="344" type="curve" smooth="yes"/>
      <point x="273" y="281" type="line"/>
      <point x="187" y="245" type="line" smooth="yes"/>
      <point x="80" y="201"/>
      <point x="38" y="160"/>
      <point x="38" y="100" type="curve" smooth="yes"/>
      <point x="38" y="35"/>
      <point x="86" y="-10"/>
      <point x="154" y="-10" type="curve" smooth="yes"/>
      <point x="204" y="-10"/>
      <point x="238" y="7"/>
      <point x="306" y="63" type="curve"/>
      <point x="340" y="11"/>
      <point x="378" y="-10"/>
      <point x="435" y="-10" type="curve" smooth="yes"/>
      <point x="482" y="-10"/>
      <point x="523" y="6"/>
      <point x="559" y="38" type="curve" smooth="yes"/>
      <point x="586" y="62"/>
      <point x="605" y="90"/>
      <point x="632" y="149" type="curve"/>
    </contour>
    <contour>
      <point x="274" y="201" type="line" smooth="yes"/>
      <point x="274" y="165"/>
      <point x="280" y="128"/>
      <point x="293" y="91" type="curve"/>
      <point x="294" y="90"/>
      <point x="294" y="89"/>
      <point x="294" y="88" type="curve" smooth="yes"/>
      <point x="294" y="70"/>
      <point x="229" y="38"/>
      <point x="192" y="38" type="curve" smooth="yes"/>
      <point x="155" y="38"/>
      <point x="125" y="77"/>
      <point x="125" y="125" type="curve" smooth="yes"/>
      <point x="125" y="185"/>
      <point x="153" y="209"/>
      <point x="274" y="253" type="curve"/>
    </contour>
    <contour>
      <point x="355" y="307" type="line"/>
      <point x="360" y="395"/>
      <point x="385" y="431"/>
      <point x="442" y="431" type="curve" smooth="yes"/>
      <point x="496" y="431"/>
      <point x="519" y="394"/>
      <point x="521" y="307" type="curve"/>
    </contour>
  </outline>
</glyph>
<glyph name="ccedilla" format="1">
  <advance width="444"/>
  <unicode hex="00E7"/>
  <outline>
    <contour>
      <point x="226" y="-10" type="line"/>
      <point x="307" y="-3"/>
      <point x="360" y="42"/>
      <point x="412" y="147" type="curve"/>
      <point x="398" y="156" type="line"/>
      <point x="350" y="86"/>
      <point x="314" y="62"/>
      <point x="257" y="62" type="curve" smooth="yes"/>
      <point x="166" y="62"/>
      <point x="102" y="142"/>
      <point x="102" y="257" type="curve" smooth="yes"/>
      <point x="102" y="360"/>
      <point x="157" y="431"/>
      <point x="238" y="431" type="curve" smooth="yes"/>
      <point x="274" y="431"/>
      <point x="287" y="420"/>
      <point x="297" y="383" type="curve" smooth="yes"/>
      <point x="303" y="361" type="line" smooth="yes"/>
      <point x="311" y="332"/>
      <point x="329" y="315"/>
      <point x="351" y="315" type="curve" smooth="yes"/>
      <point x="376" y="315"/>
      <point x="398" y="334"/>
      <point x="398" y="357" type="curve" smooth="yes"/>
      <point x="398" y="413"/>
      <point x="328" y="460"/>
      <point x="244" y="460" type="curve" smooth="yes"/>
      <point x="195" y="460"/>
      <point x="144" y="440"/>
      <point x="103" y="404" type="curve" smooth="yes"/>
      <point x="53" y="360"/>
      <point x="25" y="292"/>
      <point x="25" y="212" type="curve" smooth="yes"/>
      <point x="25" y="93"/>
      <point x="91" y="5"/>
      <point x="192" y="-8" type="curve"/>
      <point x="154" y="-99" type="line"/>
      <point x="161" y="-104" type="line"/>
      <point x="169" y="-101"/>
      <point x="178" y="-100"/>
      <point x="189" y="-100" type="curve" smooth="yes"/>
      <point x="227" y="-100"/>
      <point x="242" y="-110"/>
      <point x="242" y="-136" type="curve" smooth="yes"/>
      <point x="242" y="-163"/>
      <point x="221" y="-180"/>
      <point x="187" y="-180" type="curve" smooth="yes"/>
      <point x="166" y="-180"/>
      <point x="149" y="-177"/>
      <point x="122" y="-168" type="curve"/>
      <point x="108" y="-199" type="line"/>
      <point x="137" y="-211"/>
      <point x="160" y="-215"/>
      <point x="192" y="-215" type="curve" smooth="yes"/>
      <point x="269" y="-215"/>
      <point x="317" y="-183"/>
      <point x="317" y="-131" type="curve" smooth="yes"/>
      <point x="317" y="-88"/>
      <point x="285" y="-62"/>
      <point x="231" y="-62" type="curve" smooth="yes"/>
      <point x="221" y="-62"/>
      <point x="215" y="-63"/>
      <point x="205" y="-65" type="curve"/>
    </contour>
  </outline>
</glyph>
<glyph name="egrave" format="1">
  <advance width="444"/>
  <unicode hex="00E8"/>
  <outline>
    <contour>
      <point x="408" y="164" type="line"/>
      <point x="360" y="88"/>
      <point x="317" y="59"/>
      <point x="253" y="59" type="curve" smooth="yes"/>
      <point x="196" y="59"/>
      <point x="153" y="88"/>
      <point x="124" y="145" type="curve" smooth="yes"/>
      <point x="106" y="183"/>
      <point x="99" y="216"/>
      <point x="97" y="277" type="curve"/>
      <point x="405" y="277" type="line"/>
      <point x="397" y="342"/>
      <point x="387" y="371"/>
      <point x="362" y="403" type="curve" smooth="yes"/>
      <point x="332" y="439"/>
      <point x="286" y="460"/>
      <point x="234" y="460" type="curve" smooth="yes"/>
      <point x="184" y="460"/>
      <point x="137" y="442"/>
      <point x="99" y="408" type="curve" smooth="yes"/>
      <point x="52" y="367"/>
      <point x="25" y="296"/>
      <point x="25" y="214" type="curve" smooth="yes"/>
      <point x="25" y="76"/>
      <point x="97" y="-10"/>
      <point x="212" y="-10" type="curve" smooth="yes"/>
      <point x="307" y="-10"/>
      <point x="382" y="49"/>
      <point x="424" y="157" type="curve"/>
    </contour>
    <contour>
      <point x="99" y="309" type="line"/>
      <point x="110" y="387"/>
      <point x="144" y="424"/>
      <point x="205" y="424" type="curve" smooth="yes"/>
      <point x="266" y="424"/>
      <point x="290" y="396"/>
      <point x="303" y="309" type="curve"/>
    </contour>
    <contour>
      <point x="297" y="507" type="line"/>
      <point x="150" y="655" type="line" smooth="yes"/>
      <point x="132" y="673"/>
      <point x="123" y="678"/>
      <point x="108" y="678" type="curve" smooth="yes"/>
      <point x="87" y="678"/>
      <point x="74" y="666"/>
      <point x="74" y="647" type="curve" smooth="yes"/>
      <point x="74" y="631"/>
      <point x="85" y="616"/>
      <point x="103" y="604" type="curve" smooth="yes"/>
      <point x="257" y="507" type="line"/>
    </contour>
  </outline>
</glyph>
<glyph name="eacute" format="1">
  <advance width="444"/>
  <unicode hex="00E9"/>
  <outline>
    <contour>
      <point x="408" y="164" type="line"/>
      <point x="360" y="88"/>
      <point x="317" y="59"/>
      <point x="253" y="59" type="curve" smooth="yes"/>
      <point x="196" y="59"/>
      <point x="153" y="88"/>
      <point x="124" y="145" type="curve" smooth="yes"/>
      <point x="106" y="183"/>
      <point x="99" y="216"/>
      <point x="97" y="277" type="curve"/>
      <point x="405" y="277" type="line"/>
      <point x="397" y="342"/>
      <point x="387" y="371"/>
      <point x="362" y="403" type="curve" smooth="yes"/>
      <point x="332" y="439"/>
      <point x="286" y="460"/>
      <point x="234" y="460" type="curve" smooth="yes"/>
      <point x="184" y="460"/>
      <point x="137" y="442"/>
      <point x="99" y="408" type="curve" smooth="yes"/>
      <point x="52" y="367"/>
      <point x="25" y="296"/>
      <point x="25" y="214" type="curve" smooth="yes"/>
      <point x="25" y="76"/>
      <point x="97" y="-10"/>
      <point x="212" y="-10" type="curve" smooth="yes"/>
      <point x="307" y="-10"/>
      <point x="382" y="49"/>
      <point x="424" y="157" type="curve"/>
    </contour>
    <contour>
      <point x="99" y="309" type="line"/>
      <point x="110" y="387"/>
      <point x="144" y="424"/>
      <point x="205" y="424" type="curve" smooth="yes"/>
      <point x="266" y="424"/>
      <point x="290" y="396"/>
      <point x="303" y="309" type="curve"/>
    </contour>
    <contour>
      <point x="189" y="507" type="line"/>
      <point x="343" y="604" type="line" smooth="yes"/>
      <point x="364" y="617"/>
      <point x="373" y="630"/>
      <point x="373" y="646" type="curve" smooth="yes"/>
      <point x="373" y="666"/>
      <point x="360" y="678"/>
      <point x="338" y="678" type="curve" smooth="yes"/>
      <point x="323" y="678"/>
      <point x="314" y="673"/>
      <point x="296" y="655" type="curve" smooth="yes"/>
      <point x="149" y="507" type="line"/>
    </contour>
  </outline>
</glyph>
<glyph name="igrave" format="1">
  <advance width="278"/>
  <unicode hex="00EC"/>
  <outline>
    <contour>
      <point x="175" y="460" type="line"/>
      <point x="20" y="405" type="line"/>
      <point x="20" y="390" type="line"/>
      <point x="28" y="391" type="line" smooth="yes"/>
      <point x="40" y="393"/>
      <point x="53" y="394"/>
      <point x="62" y="394" type="curve" smooth="yes"/>
      <point x="86" y="394"/>
      <point x="95" y="378"/>
      <point x="95" y="334" type="curve" smooth="yes"/>
      <point x="95" y="102" type="line" smooth="yes"/>
      <point x="95" y="30"/>
      <point x="85" y="19"/>
      <point x="16" y="15" type="curve"/>
      <point x="16" y="0" type="line"/>
      <point x="253" y="0" type="line"/>
      <point x="253" y="15" type="line"/>
      <point x="187" y="20"/>
      <point x="179" y="30"/>
      <point x="179" y="102" type="curve" smooth="yes"/>
      <point x="179" y="457" type="line"/>
    </contour>
    <contour>
      <point x="215" y="507" type="line"/>
      <point x="68" y="655" type="line" smooth="yes"/>
      <point x="50" y="673"/>
      <point x="41" y="678"/>
      <point x="26" y="678" type="curve" smooth="yes"/>
      <point x="5" y="678"/>
      <point x="-8" y="666"/>
      <point x="-8" y="647" type="curve" smooth="yes"/>
      <point x="-8" y="631"/>
      <point x="3" y="616"/>
      <point x="21" y="604" type="curve" smooth="yes"/>
      <point x="175" y="507" type="line"/>
    </contour>
  </outline>
</glyph>
<glyph name="iacute" format="1">
  <advance width="278"/>
  <unicode hex="00ED"/>
  <outline>
    <contour>
      <point x="175" y="460" type="line"/>
      <point x="20" y="405" type="line"/>
      <point x="20" y="390" type="line"/>
      <point x="28" y="391" type="line" smooth="yes"/>
      <point x="40" y="393"/>
      <point x="53" y="394"/>
      <point x="62" y="394" type="curve" smooth="yes"/>
      <point x="86" y="394"/>
      <point x="95" y="378"/>
      <point x="95" y="334" type="curve" smooth="yes"/>
      <point x="95" y="102" type="line" smooth="yes"/>
      <point x="95" y="30"/>
      <point x="85" y="19"/>
      <point x="16" y="15" type="curve"/>
      <point x="16" y="0" type="line"/>
      <point x="253" y="0" type="line"/>
      <point x="253" y="15" type="line"/>
      <point x="187" y="20"/>
      <point x="179" y="30"/>
      <point x="179" y="102" type="curve" smooth="yes"/>
      <point x="179" y="457" type="line"/>
    </contour>
    <contour>
      <point x="106" y="507" type="line"/>
      <point x="260" y="604" type="line" smooth="yes"/>
      <point x="281" y="617"/>
      <point x="290" y="630"/>
      <point x="290" y="646" type="curve" smooth="yes"/>
      <point x="290" y="666"/>
      <point x="277" y="678"/>
      <point x="255" y="678" type="curve" smooth="yes"/>
      <point x="240" y="678"/>
      <point x="231" y="673"/>
      <point x="213" y="655" type="curve" smooth="yes"/>
      <point x="66" y="507" type="line"/>
    </contour>
  </outline>
</glyph>
<glyph name="eth" format="1">
  <advance width="500"/>
  <unicode hex="00F0"/>
  <outline>
    <contour>
      <point x="270" y="575" type="line"/>
      <point x="329" y="515"/>
      <point x="352" y="474"/>
      <point x="367" y="400" type="curve"/>
      <point x="316" y="447"/>
      <point x="289" y="460"/>
      <point x="241" y="460" type="curve" smooth="yes"/>
      <point x="121" y="460"/>
      <point x="29" y="357"/>
      <point x="29" y="223" type="curve" smooth="yes"/>
      <point x="29" y="90"/>
      <point x="123" y="-10"/>
      <point x="247" y="-10" type="curve" smooth="yes"/>
      <point x="300" y="-10"/>
      <point x="345" y="8"/>
      <point x="382" y="43" type="curve" smooth="yes"/>
      <point x="437" y="95"/>
      <point x="471" y="189"/>
      <point x="471" y="285" type="curve" smooth="yes"/>
      <point x="471" y="355"/>
      <point x="455" y="427"/>
      <point x="424" y="490" type="curve" smooth="yes"/>
      <point x="402" y="535"/>
      <point x="384" y="559"/>
      <point x="333" y="608" type="curve"/>
      <point x="424" y="656" type="line"/>
      <point x="391" y="686" type="line"/>
      <point x="296" y="636" type="line"/>
      <point x="245" y="666"/>
      <point x="210" y="677"/>
      <point x="144" y="683" type="curve"/>
      <point x="102" y="660" type="line"/>
      <point x="154" y="651"/>
      <point x="188" y="637"/>
      <point x="235" y="604" type="curve"/>
      <point x="114" y="540" type="line"/>
      <point x="147" y="510" type="line"/>
    </contour>
    <contour>
      <point x="237" y="432" type="curve" smooth="yes"/>
      <point x="322" y="432"/>
      <point x="381" y="337"/>
      <point x="381" y="201" type="curve" smooth="yes"/>
      <point x="381" y="86"/>
      <point x="337" y="18"/>
      <point x="261" y="18" type="curve" smooth="yes"/>
      <point x="222" y="18"/>
      <point x="185" y="42"/>
      <point x="163" y="83" type="curve" smooth="yes"/>
      <point x="135" y="136"/>
      <point x="119" y="206"/>
      <point x="119" y="276" type="curve" smooth="yes"/>
      <point x="119" y="369"/>
      <point x="167" y="432"/>
    </contour>
  </outline>
</glyph>
<glyph name="ntilde" format="1">
  <advance width="500"/>
  <unicode hex="00F1"/>
  <outline>
    <contour>
      <point x="16" y="398" type="line"/>
      <point x="22" y="401"/>
      <point x="32" y="402"/>
      <point x="43" y="402" type="curve" smooth="yes"/>
      <point x="71" y="402"/>
      <point x="80" y="387"/>
      <point x="80" y="338" type="curve" smooth="yes"/>
      <point x="80" y="90" type="line" smooth="yes"/>
      <point x="80" y="33"/>
      <point x="69" y="19"/>
      <point x="18" y="15" type="curve"/>
      <point x="18" y="0" type="line"/>
      <point x="230" y="0" type="line"/>
      <point x="230" y="15" type="line"/>
      <point x="179" y="19"/>
      <point x="164" y="31"/>
      <point x="164" y="67" type="curve" smooth="yes"/>
      <point x="164" y="348" type="line"/>
      <point x="212" y="393"/>
      <point x="234" y="405"/>
      <point x="267" y="405" type="curve" smooth="yes"/>
      <point x="316" y="405"/>
      <point x="340" y="374"/>
      <point x="340" y="308" type="curve" smooth="yes"/>
      <point x="340" y="99" type="line" smooth="yes"/>
      <point x="340" y="36"/>
      <point x="327" y="19"/>
      <point x="277" y="15" type="curve"/>
      <point x="277" y="0" type="line"/>
      <point x="485" y="0" type="line"/>
      <point x="485" y="15" type="line"/>
      <point x="436" y="20"/>
      <point x="424" y="32"/>
      <point x="424" y="81" type="curve" smooth="yes"/>
      <point x="424" y="310" type="line" smooth="yes"/>
      <point x="424" y="404"/>
      <point x="380" y="460"/>
      <point x="306" y="460" type="curve" smooth="yes"/>
      <point x="260" y="460"/>
      <point x="229" y="443"/>
      <point x="161" y="379" type="curve"/>
      <point x="161" y="458" type="line"/>
      <point x="154" y="460" type="line"/>
      <point x="105" y="442"/>
      <point x="71" y="431"/>
      <point x="16" y="415" type="curve"/>
    </contour>
    <contour>
      <point x="386" y="638" type="line"/>
      <point x="369" y="600"/>
      <point x="356" y="588"/>
      <point x="333" y="588" type="curve" smooth="yes"/>
      <point x="318" y="588"/>
      <point x="299" y="594"/>
      <point x="280" y="603" type="curve" smooth="yes"/>
      <point x="256" y="615" type="line" smooth="yes"/>
      <point x="233" y="627"/>
      <point x="208" y="633"/>
      <point x="186" y="633" type="curve" smooth="yes"/>
      <point x="136" y="633"/>
      <point x="100" y="597"/>
      <point x="85" y="532" type="curve"/>
      <point x="114" y="532" type="line"/>
      <point x="125" y="563"/>
      <point x="142" y="578"/>
      <point x="165" y="578" type="curve" smooth="yes"/>
      <point x="177" y="578"/>
      <point x="191" y="574"/>
      <point x="206" y="567" type="curve" smooth="yes"/>
      <point x="229" y="556" type="line" smooth="yes"/>
      <point x="270" y="536"/>
      <point x="285" y="532"/>
      <point x="310" y="532" type="curve" smooth="yes"/>
      <point x="365" y="532"/>
      <point x="394" y="562"/>
      <point x="415" y="638" type="curve"/>
    </contour>
  </outline>
</glyph>
<glyph name="ocircumflex" format="1">
  <advance width="500"/>
  <unicode hex="00F4"/>
  <outline>
    <contour>
      <point x="250" y="460" type="curve" smooth="yes"/>
      <point x="120" y="460"/>
      <point x="29" y="364"/>
      <point x="29" y="226" type="curve" smooth="yes"/>
      <point x="29" y="91"/>
      <point x="122" y="-10"/>
      <point x="248" y="-10" type="curve" smooth="yes"/>
      <point x="374" y="-10"/>
      <point x="470" y="96"/>
      <point x="470" y="234" type="curve" smooth="yes"/>
      <point x="470" y="365"/>
      <point x="378" y="460"/>
    </contour>
    <contour>
      <point x="237" y="432" type="curve" smooth="yes"/>
      <point x="321" y="432"/>
      <point x="380" y="336"/>
      <point x="380" y="199" type="curve" smooth="yes"/>
      <point x="380" y="86"/>
      <point x="335" y="18"/>
      <point x="260" y="18" type="curve" smooth="yes"/>
      <point x="221" y="18"/>
      <point x="184" y="42"/>
      <point x="163" y="82" type="curve" smooth="yes"/>
      <point x="135" y="134"/>
      <point x="119" y="204"/>
      <point x="119" y="275" type="curve" smooth="yes"/>
      <point x="119" y="370"/>
      <point x="166" y="432"/>
    </contour>
    <contour>
      <point x="406" y="507" type="line"/>
      <point x="281" y="674" type="line"/>
      <point x="219" y="674" type="line"/>
      <point x="95" y="507" type="line"/>
      <point x="129" y="507" type="line"/>
      <point x="250" y="610" type="line"/>
      <point x="372" y="507" type="line"/>
    </contour>
  </outline>
</glyph>
<glyph name="otilde" format="1">
  <advance width="500"/>
  <unicode hex="00F5"/>
  <outline>
    <contour>
      <point x="250" y="460" type="curve" smooth="yes"/>
      <point x="120" y="460"/>
      <point x="29" y="364"/>
      <point x="29" y="226" type="curve" smooth="yes"/>
      <point x="29" y="91"/>
      <point x="122" y="-10"/>
      <point x="248" y="-10" type="curve" smooth="yes"/>
      <point x="374" y="-10"/>
      <point x="470" y="96"/>
      <point x="470" y="234" type="curve" smooth="yes"/>
      <point x="470" y="365"/>
      <point x="378" y="460"/>
    </contour>
    <contour>
      <point x="237" y="432" type="curve" smooth="yes"/>
      <point x="321" y="432"/>
      <point x="380" y="336"/>
      <point x="380" y="199" type="curve" smooth="yes"/>
      <point x="380" y="86"/>
      <point x="335" y="18"/>
      <point x="260" y="18" type="curve" smooth="yes"/>
      <point x="221" y="18"/>
      <point x="184" y="42"/>
      <point x="163" y="82" type="curve" smooth="yes"/>
      <point x="135" y="134"/>
      <point x="119" y="204"/>
      <point x="119" y="275" type="curve" smooth="yes"/>
      <point x="119" y="370"/>
      <point x="166" y="432"/>
    </contour>
    <contour>
      <point x="386" y="638" type="line"/>
      <point x="369" y="600"/>
      <point x="356" y="588"/>
      <point x="333" y="588" type="curve" smooth="yes"/>
      <point x="318" y="588"/>
      <point x="299" y="594"/>
      <point x="280" y="603" type="curve" smooth="yes"/>
      <point x="256" y="615" type="line" smooth="yes"/>
      <point x="233" y="627"/>
      <point x="208" y="633"/>
      <point x="186" y="633" type="curve" smooth="yes"/>
      <point x="136" y="633"/>
      <point x="100" y="597"/>
      <point x="85" y="532" type="curve"/>
      <point x="114" y="532" type="line"/>
      <point x="125" y="563"/>
      <point x="142" y="578"/>
      <point x="165" y="578" type="curve" smooth="yes"/>
      <point x="177" y="578"/>
      <point x="191" y="574"/>
      <point x="206" y="567" type="curve" smooth="yes"/>
      <point x="229" y="556" type="line" smooth="yes"/>
      <point x="270" y="536"/>
      <point x="285" y="532"/>
      <point x="310" y="532" type="curve" smooth="yes"/>
      <point x="365" y="532"/>
      <point x="394" y="562"/>
      <point x="415" y="638" type="curve"/>
    </contour>
  </outline>
</glyph>
<glyph name="odieresis" format="1">
  <advance width="500"/>
  <unicode hex="00F6"/>
  <outline>
    <contour>
      <point x="250" y="460" type="curve" smooth="yes"/>
      <point x="120" y="460"/>
      <point x="29" y="364"/>
      <point x="29" y="226" type="curve" smooth="yes"/>
      <point x="29" y="91"/>
      <point x="122" y="-10"/>
      <point x="248" y="-10" type="curve" smooth="yes"/>
      <point x="374" y="-10"/>
      <point x="470" y="96"/>
      <point x="470" y="234" type="curve" smooth="yes"/>
      <point x="470" y="365"/>
      <point x="378" y="460"/>
    </contour>
    <contour>
      <point x="237" y="432" type="curve" smooth="yes"/>
      <point x="321" y="432"/>
      <point x="380" y="336"/>
      <point x="380" y="199" type="curve" smooth="yes"/>
      <point x="380" y="86"/>
      <point x="335" y="18"/>
      <point x="260" y="18" type="curve" smooth="yes"/>
      <point x="221" y="18"/>
      <point x="184" y="42"/>
      <point x="163" y="82" type="curve" smooth="yes"/>
      <point x="135" y="134"/>
      <point x="119" y="204"/>
      <point x="119" y="275" type="curve" smooth="yes"/>
      <point x="119" y="370"/>
      <point x="166" y="432"/>
    </contour>
    <contour>
      <point x="149" y="622" type="curve" smooth="yes"/>
      <point x="124" y="622"/>
      <point x="101" y="599"/>
      <point x="101" y="573" type="curve" smooth="yes"/>
      <point x="101" y="545"/>
      <point x="122" y="523"/>
      <point x="149" y="523" type="curve" smooth="yes"/>
      <point x="177" y="523"/>
      <point x="200" y="545"/>
      <point x="200" y="572" type="curve" smooth="yes"/>
      <point x="200" y="599"/>
      <point x="177" y="622"/>
    </contour>
    <contour>
      <point x="348" y="622" type="curve" smooth="yes"/>
      <point x="323" y="622"/>
      <point x="300" y="599"/>
      <point x="300" y="573" type="curve" smooth="yes"/>
      <point x="300" y="545"/>
      <point x="321" y="523"/>
      <point x="348" y="523" type="curve" smooth="yes"/>
      <point x="376" y="523"/>
      <point x="399" y="545"/>
      <point x="399" y="572" type="curve" smooth="yes"/>
      <point x="399" y="599"/>
      <point x="376" y="622"/>
    </contour>
  </outline>
</glyph>
<glyph name="oslash" format="1">
  <advance width="500"/>
  <unicode hex="00F8"/>
  <outline>
    <contour>
      <point x="437" y="551" type="line"/>
      <point x="398" y="551" type="line"/>
      <point x="341" y="442" type="line"/>
      <point x="306" y="455"/>
      <point x="282" y="460"/>
      <point x="249" y="460" type="curve" smooth="yes"/>
      <point x="120" y="460"/>
      <point x="29" y="363"/>
      <point x="29" y="227" type="curve" smooth="yes"/>
      <point x="29" y="181"/>
      <point x="41" y="135"/>
      <point x="62" y="97" type="curve" smooth="yes"/>
      <point x="78" y="70"/>
      <point x="91" y="55"/>
      <point x="125" y="28" type="curve"/>
      <point x="52" y="-112" type="line"/>
      <point x="89" y="-112" type="line"/>
      <point x="154" y="11" type="line"/>
      <point x="189" y="-5"/>
      <point x="212" y="-10"/>
      <point x="247" y="-10" type="curve" smooth="yes"/>
      <point x="374" y="-10"/>
      <point x="470" y="95"/>
      <point x="470" y="234" type="curve" smooth="yes"/>
      <point x="470" y="282"/>
      <point x="456" y="330"/>
      <point x="432" y="368" type="curve" smooth="yes"/>
      <point x="416" y="392"/>
      <point x="403" y="404"/>
      <point x="372" y="426" type="curve"/>
    </contour>
    <contour>
      <point x="340" y="366" type="line"/>
      <point x="369" y="311"/>
      <point x="380" y="267"/>
      <point x="380" y="203" type="curve" smooth="yes"/>
      <point x="380" y="87"/>
      <point x="336" y="18"/>
      <point x="261" y="18" type="curve" smooth="yes"/>
      <point x="227" y="18"/>
      <point x="204" y="30"/>
      <point x="179" y="60" type="curve"/>
    </contour>
    <contour>
      <point x="158" y="92" type="line"/>
      <point x="131" y="149"/>
      <point x="119" y="207"/>
      <point x="119" y="276" type="curve" smooth="yes"/>
      <point x="119" y="370"/>
      <point x="166" y="432"/>
      <point x="237" y="432" type="curve" smooth="yes"/>
      <point x="268" y="432"/>
      <point x="290" y="422"/>
      <point x="317" y="396" type="curve"/>
    </contour>
  </outline>
</glyph>
<glyph name="yacute" format="1">
  <advance width="500"/>
  <unicode hex="00FD"/>
  <outline>
    <contour>
      <point x="475" y="450" type="line"/>
      <point x="340" y="450" type="line"/>
      <point x="340" y="435" type="line"/>
      <point x="372" y="435"/>
      <point x="388" y="426"/>
      <point x="388" y="410" type="curve" smooth="yes"/>
      <point x="388" y="406"/>
      <point x="387" y="400"/>
      <point x="384" y="393" type="curve"/>
      <point x="287" y="117" type="line"/>
      <point x="172" y="370" type="line" smooth="yes"/>
      <point x="166" y="384"/>
      <point x="162" y="397"/>
      <point x="162" y="408" type="curve" smooth="yes"/>
      <point x="162" y="426"/>
      <point x="177" y="433"/>
      <point x="220" y="435" type="curve"/>
      <point x="220" y="450" type="line"/>
      <point x="14" y="450" type="line"/>
      <point x="14" y="436" type="line"/>
      <point x="40" y="432"/>
      <point x="57" y="421"/>
      <point x="65" y="404" type="curve" smooth="yes"/>
      <point x="179" y="158" type="line"/>
      <point x="182" y="150" type="line"/>
      <point x="197" y="120" type="line" smooth="yes"/>
      <point x="225" y="70"/>
      <point x="241" y="34"/>
      <point x="241" y="19" type="curve" smooth="yes"/>
      <point x="241" y="4"/>
      <point x="218" y="-59"/>
      <point x="201" y="-89" type="curve" smooth="yes"/>
      <point x="187" y="-115"/>
      <point x="165" y="-134"/>
      <point x="151" y="-134" type="curve" smooth="yes"/>
      <point x="145" y="-134"/>
      <point x="136" y="-132"/>
      <point x="126" y="-127" type="curve"/>
      <point x="107" y="-120"/>
      <point x="90" y="-116"/>
      <point x="73" y="-116" type="curve" smooth="yes"/>
      <point x="50" y="-116"/>
      <point x="30" y="-136"/>
      <point x="30" y="-160" type="curve" smooth="yes"/>
      <point x="30" y="-193"/>
      <point x="62" y="-218"/>
      <point x="104" y="-218" type="curve" smooth="yes"/>
      <point x="171" y="-218"/>
      <point x="219" y="-162"/>
      <point x="273" y="-18" type="curve" smooth="yes"/>
      <point x="427" y="390" type="line" smooth="yes"/>
      <point x="440" y="422"/>
      <point x="451" y="432"/>
      <point x="475" y="435" type="curve"/>
    </contour>
    <contour>
      <point x="217" y="507" type="line"/>
      <point x="371" y="604" type="line" smooth="yes"/>
      <point x="392" y="617"/>
      <point x="401" y="630"/>
      <point x="401" y="646" type="curve" smooth="yes"/>
      <point x="401" y="666"/>
      <point x="388" y="678"/>
      <point x="366" y="678" type="curve" smooth="yes"/>
      <point x="351" y="678"/>
      <point x="342" y="673"/>
      <point x="324" y="655" type="curve" smooth="yes"/>
      <point x="177" y="507" type="line"/>
    </contour>
  </outline>
</glyph>
<glyph name="thorn" format="1">
  <advance width="500"/>
  <unicode hex="00FE"/>
  <outline>
    <contour>
      <point x="9" y="623" type="line"/>
      <point x="15" y="624"/>
      <point x="19" y="624"/>
      <point x="26" y="624" type="curve" smooth="yes"/>
      <point x="66" y="624"/>
      <point x="75" y="615"/>
      <point x="75" y="573" type="curve" smooth="yes"/>
      <point x="75" y="-131" type="line" smooth="yes"/>
      <point x="75" y="-183"/>
      <point x="64" y="-194"/>
      <point x="5" y="-199" type="curve"/>
      <point x="5" y="-217" type="line"/>
      <point x="247" y="-217" type="line"/>
      <point x="247" y="-199" type="line"/>
      <point x="172" y="-198"/>
      <point x="159" y="-187"/>
      <point x="159" y="-124" type="curve" smooth="yes"/>
      <point x="159" y="33" type="line"/>
      <point x="194" y="0"/>
      <point x="218" y="-10"/>
      <point x="260" y="-10" type="curve" smooth="yes"/>
      <point x="378" y="-10"/>
      <point x="470" y="102"/>
      <point x="470" y="247" type="curve" smooth="yes"/>
      <point x="470" y="371"/>
      <point x="400" y="460"/>
      <point x="303" y="460" type="curve" smooth="yes"/>
      <point x="248" y="460"/>
      <point x="204" y="436"/>
      <point x="159" y="382" type="curve"/>
      <point x="159" y="680" type="line"/>
      <point x="154" y="683" type="line"/>
      <point x="106" y="666"/>
      <point x="78" y="658"/>
      <point x="9" y="639" type="curve"/>
    </contour>
    <contour>
      <point x="159" y="334" type="line" smooth="yes"/>
      <point x="159" y="364"/>
      <point x="215" y="400"/>
      <point x="261" y="400" type="curve" smooth="yes"/>
      <point x="335" y="400"/>
      <point x="384" y="324"/>
      <point x="384" y="208" type="curve" smooth="yes"/>
      <point x="384" y="97"/>
      <point x="335" y="22"/>
      <point x="263" y="22" type="curve" smooth="yes"/>
      <point x="216" y="22"/>
      <point x="159" y="58"/>
      <point x="159" y="88" type="curve" smooth="yes"/>
    </contour>
  </outline>
</glyph>
<glyph name="Amacron" format="1">
  <advance width="722"/>
  <unicode hex="0100"/>
  <outline>
    <contour>
      <point x="706" y="19" type="line"/>
      <point x="661" y="22"/>
      <point x="651" y="32"/>
      <point x="616" y="106" type="curve" smooth="yes"/>
      <point x="367" y="674" type="line"/>
      <point x="347" y="674" type="line"/>
      <point x="139" y="183" type="line" smooth="yes"/>
      <point x="75" y="37"/>
      <point x="63" y="21"/>
      <point x="15" y="19" type="curve"/>
      <point x="15" y="0" type="line"/>
      <point x="213" y="0" type="line"/>
      <point x="213" y="19" type="line"/>
      <point x="165" y="19"/>
      <point x="145" y="32"/>
      <point x="145" y="60" type="curve" smooth="yes"/>
      <point x="145" y="72"/>
      <point x="148" y="86"/>
      <point x="153" y="99" type="curve" smooth="yes"/>
      <point x="199" y="216" type="line"/>
      <point x="461" y="216" type="line"/>
      <point x="502" y="120" type="line" smooth="yes"/>
      <point x="514" y="93"/>
      <point x="521" y="67"/>
      <point x="521" y="53" type="curve" smooth="yes"/>
      <point x="521" y="28"/>
      <point x="504" y="20"/>
      <point x="451" y="19" type="curve"/>
      <point x="451" y="0" type="line"/>
      <point x="706" y="0" type="line"/>
    </contour>
    <contour>
      <point x="216" y="257" type="line"/>
      <point x="331" y="532" type="line"/>
      <point x="447" y="257" type="line"/>
    </contour>
    <contour>
      <point x="206" y="813" type="line"/>
      <point x="206" y="759" type="line"/>
      <point x="517" y="759" type="line"/>
      <point x="517" y="813" type="line"/>
    </contour>
  </outline>
</glyph>
<glyph name="Abreve" format="1">
  <advance width="722"/>
  <unicode hex="0102"/>
  <outline>
    <contour>
      <point x="706" y="19" type="line"/>
      <point x="661" y="22"/>
      <point x="651" y="32"/>
      <point x="616" y="106" type="curve" smooth="yes"/>
      <point x="367" y="674" type="line"/>
      <point x="347" y="674" type="line"/>
      <point x="139" y="183" type="line" smooth="yes"/>
      <point x="75" y="37"/>
      <point x="63" y="21"/>
      <point x="15" y="19" type="curve"/>
      <point x="15" y="0" type="line"/>
      <point x="213" y="0" type="line"/>
      <point x="213" y="19" type="line"/>
      <point x="165" y="19"/>
      <point x="145" y="32"/>
      <point x="145" y="60" type="curve" smooth="yes"/>
      <point x="145" y="72"/>
      <point x="148" y="86"/>
      <point x="153" y="99" type="curve" smooth="yes"/>
      <point x="199" y="216" type="line"/>
      <point x="461" y="216" type="line"/>
      <point x="502" y="120" type="line" smooth="yes"/>
      <point x="514" y="93"/>
      <point x="521" y="67"/>
      <point x="521" y="53" type="curve" smooth="yes"/>
      <point x="521" y="28"/>
      <point x="504" y="20"/>
      <point x="451" y="19" type="curve"/>
      <point x="451" y="0" type="line"/>
      <point x="706" y="0" type="line"/>
    </contour>
    <contour>
      <point x="216" y="257" type="line"/>
      <point x="331" y="532" type="line"/>
      <point x="447" y="257" type="line"/>
    </contour>
    <contour>
      <point x="473" y="876" type="line"/>
      <point x="445" y="800"/>
      <point x="420" y="779"/>
      <point x="362" y="779" type="curve" smooth="yes"/>
      <point x="298" y="779"/>
      <point x="264" y="809"/>
      <point x="250" y="876" type="curve"/>
      <point x="221" y="876" type="line"/>
      <point x="222" y="825"/>
      <point x="229" y="801"/>
      <point x="248" y="773" type="curve" smooth="yes"/>
      <point x="273" y="738"/>
      <point x="313" y="719"/>
      <point x="360" y="719" type="curve" smooth="yes"/>
      <point x="444" y="719"/>
      <point x="490" y="770"/>
      <point x="502" y="876" type="curve"/>
    </contour>
  </outline>
</glyph>
<glyph name="abreve" format="1">
  <advance width="444"/>
  <unicode hex="0103"/>
  <outline>
    <contour>
      <point x="442" y="66" type="line"/>
      <point x="425" y="52"/>
      <point x="413" y="47"/>
      <point x="398" y="47" type="curve" smooth="yes"/>
      <point x="375" y="47"/>
      <point x="368" y="61"/>
      <point x="368" y="105" type="curve" smooth="yes"/>
      <point x="368" y="300" type="line" smooth="yes"/>
      <point x="368" y="352"/>
      <point x="363" y="381"/>
      <point x="348" y="405" type="curve" smooth="yes"/>
      <point x="326" y="441"/>
      <point x="283" y="460"/>
      <point x="224" y="460" type="curve" smooth="yes"/>
      <point x="130" y="460"/>
      <point x="56" y="411"/>
      <point x="56" y="348" type="curve" smooth="yes"/>
      <point x="56" y="325"/>
      <point x="76" y="305"/>
      <point x="99" y="305" type="curve" smooth="yes"/>
      <point x="123" y="305"/>
      <point x="144" y="325"/>
      <point x="144" y="347" type="curve" smooth="yes"/>
      <point x="144" y="351"/>
      <point x="143" y="356"/>
      <point x="142" y="363" type="curve"/>
      <point x="140" y="372"/>
      <point x="139" y="380"/>
      <point x="139" y="387" type="curve" smooth="yes"/>
      <point x="139" y="414"/>
      <point x="171" y="436"/>
      <point x="211" y="436" type="curve" smooth="yes"/>
      <point x="260" y="436"/>
      <point x="287" y="407"/>
      <point x="287" y="353" type="curve" smooth="yes"/>
      <point x="287" y="292" type="line"/>
      <point x="133" y="230"/>
      <point x="116" y="222"/>
      <point x="73" y="184" type="curve" smooth="yes"/>
      <point x="51" y="164"/>
      <point x="37" y="130"/>
      <point x="37" y="97" type="curve" smooth="yes"/>
      <point x="37" y="34"/>
      <point x="81" y="-10"/>
      <point x="142" y="-10" type="curve" smooth="yes"/>
      <point x="186" y="-10"/>
      <point x="227" y="11"/>
      <point x="288" y="63" type="curve"/>
      <point x="293" y="11"/>
      <point x="311" y="-10"/>
      <point x="352" y="-10" type="curve" smooth="yes"/>
      <point x="386" y="-10"/>
      <point x="407" y="2"/>
      <point x="442" y="40" type="curve"/>
    </contour>
    <contour>
      <point x="287" y="123" type="line" smooth="yes"/>
      <point x="287" y="92"/>
      <point x="282" y="83"/>
      <point x="261" y="71" type="curve" smooth="yes"/>
      <point x="237" y="57"/>
      <point x="209" y="48"/>
      <point x="188" y="48" type="curve" smooth="yes"/>
      <point x="153" y="48"/>
      <point x="125" y="82"/>
      <point x="125" y="125" type="curve" smooth="yes"/>
      <point x="125" y="129" type="line" smooth="yes"/>
      <point x="125" y="188"/>
      <point x="166" y="224"/>
      <point x="287" y="268" type="curve"/>
    </contour>
    <contour>
      <point x="334" y="664" type="line"/>
      <point x="306" y="588"/>
      <point x="281" y="567"/>
      <point x="223" y="567" type="curve" smooth="yes"/>
      <point x="159" y="567"/>
      <point x="125" y="597"/>
      <point x="111" y="664" type="curve"/>
      <point x="82" y="664" type="line"/>
      <point x="83" y="613"/>
      <point x="90" y="589"/>
      <point x="109" y="561" type="curve" smooth="yes"/>
      <point x="134" y="526"/>
      <point x="174" y="507"/>
      <point x="221" y="507" type="curve" smooth="yes"/>
      <point x="305" y="507"/>
      <point x="351" y="558"/>
      <point x="363" y="664" type="curve"/>
    </contour>
  </outline>
</glyph>
